<?xml version="1.0" encoding="UTF-8"?><svg id="_レイヤー_2" xmlns="http://www.w3.org/2000/svg" viewBox="0 0 1953 599"><defs><style>.cls-1{stroke-width:36.19px;}.cls-1,.cls-2,.cls-3,.cls-4,.cls-5,.cls-6,.cls-7,.cls-8,.cls-9,.cls-10,.cls-11,.cls-12,.cls-13{stroke:#fff;stroke-miterlimit:10;}.cls-1,.cls-2,.cls-3,.cls-4,.cls-6,.cls-7,.cls-8,.cls-9,.cls-10,.cls-11,.cls-12,.cls-13{fill:none;}.cls-1,.cls-2,.cls-5,.cls-14,.cls-10,.cls-15{opacity:.6;}.cls-16,.cls-6,.cls-7,.cls-8,.cls-9,.cls-12{opacity:.6;}.cls-2{stroke-width:60px;}.cls-3{stroke-dasharray:0 0 8.7 5.8;}.cls-3,.cls-4{stroke-width:3.1px;}.cls-3,.cls-4,.cls-11,.cls-13{stroke-linecap:round;}.cls-4{stroke-dasharray:0 0 8.66 5.77;}.cls-5{stroke-width:1.47px;}.cls-5,.cls-14{fill:#fff;}.cls-6{stroke-width:58.38px;}.cls-7{stroke-width:2.75px;}.cls-8{stroke-width:6.19px;}.cls-9{stroke-width:4px;}.cls-10{stroke-width:3.68px;}.cls-11{stroke-dasharray:0 0 13.61 9.07;stroke-width:5.76px;}.cls-17{fill:#4dc9cb;}.cls-12{stroke-width:8.94px;}.cls-13{stroke-dasharray:0 0 19.05 12.7;stroke-width:3.14px;}</style></defs><g id="_学祭企画_"><rect class="cls-17" width="1953" height="599"/><circle class="cls-5" cx="1589.16" cy="423.1" r="21.62"/><circle class="cls-14" cx="1905.73" cy="153.81" r="7.19"/><circle class="cls-5" cx="1791" cy="506" r="88.5"/><circle class="cls-5" cx="505.16" cy="146.1" r="21.62"/><circle class="cls-5" cx="171.66" cy="439.64" r="22.89"/><g class="cls-15"><circle class="cls-13" cx="1878.5" cy="347.38" r="55.61"/></g><circle class="cls-10" cx="1878.5" cy="347.38" r="21.36"/><g class="cls-15"><circle class="cls-11" cx="1480.86" cy="337.76" r="39.71" transform="translate(602.11 1576.64) rotate(-67.5)"/></g><circle class="cls-1" cx="1833" cy="230.09" r="28.05"/><circle class="cls-2" cx="1435.82" cy="499.35" r="60.46"/><g class="cls-16"><circle class="cls-4" cx="171.66" cy="439.64" r="41.34" transform="translate(-292.51 525.06) rotate(-79.1)"/></g><g class="cls-16"><circle class="cls-3" cx="392.64" cy="146.73" r="39.23" transform="translate(106.83 453.33) rotate(-67.5)"/></g><ellipse class="cls-8" cx="54.85" cy="352.3" rx="49.88" ry="49.49"/><circle class="cls-6" cx="220.3" cy="274.82" r="66.16"/><ellipse class="cls-12" cx="1690.22" cy="315.06" rx="72.05" ry="71.49"/><ellipse class="cls-9" cx="1240.74" cy="443.39" rx="36.17" ry="35.89"/><circle class="cls-7" cx="394.87" cy="259.07" r="30.39"/><ellipse class="cls-12" cx="1703.19" cy="164.89" rx="30.63" ry="30.39"/><ellipse class="cls-12" cx="143.54" cy="79.8" rx="72.05" ry="71.49"/></g></svg>