<svg xmlns="http://www.w3.org/2000/svg" xmlns:xlink="http://www.w3.org/1999/xlink" viewBox="0 0 841.89 1190.55"><defs><style>.cls-1{fill:url(#名称未設定グラデーション_14);}.cls-2{fill:#d3d3d4;}.cls-3{fill:#bfc0c0;}.cls-4{fill:#fff;}.cls-5{fill:#c6deeb;}.cls-10,.cls-6{font-size:30px;}.cls-10,.cls-16,.cls-17,.cls-19,.cls-6,.cls-8{fill:#ad5556;}.cls-6{font-family:SourceHanSansJP-Bold, SourceHanSansJP Bold-83pv-RKSJ-H;font-weight:700;}.cls-7{letter-spacing:0.25em;}.cls-8{font-size:65px;}.cls-16,.cls-17,.cls-19,.cls-8{font-family:SourceHanSansJP-Heavy, SourceHanSansJP Heavy-83pv-RKSJ-H;}.cls-16,.cls-8{letter-spacing:0.05em;}.cls-9{letter-spacing:-0.03em;}.cls-10{font-family:SourceHanSansJP-Medium, SourceHanSansJP Medium-83pv-RKSJ-H;}.cls-11{font-size:21px;font-family:SourceHanSansJP-Regular, SourceHanSansJP Regular-83pv-RKSJ-H;}.cls-11,.cls-14,.cls-15,.cls-24{fill:#231815;}.cls-12{letter-spacing:-0.5em;}.cls-13{letter-spacing:0.25em;}.cls-14{font-size:16px;}.cls-14,.cls-15{font-family:SourceHanSansJP-Normal, SourceHanSansJP Normal-83pv-RKSJ-H;}.cls-15{font-size:18px;}.cls-16{font-size:90px;}.cls-17,.cls-19{font-size:50px;}.cls-17{letter-spacing:0.3em;}.cls-18{letter-spacing:0.05em;}.cls-19{letter-spacing:0.3em;}.cls-20{letter-spacing:0.05em;}.cls-21{fill:#abdad8;}.cls-22{fill:#f0e7ce;}.cls-23{fill:#e7cbb2;}.cls-25{fill:#b45858;}.cls-26{fill:#e2e4a6;}.cls-27{fill:#040000;}.cls-28{fill:#e09a82;}.cls-29{fill:none;stroke:#231815;stroke-miterlimit:10;}</style><linearGradient id="名称未設定グラデーション_14" x1="420.94" y1="1215.41" x2="420.94" y2="-24.86" gradientUnits="userSpaceOnUse"><stop offset="0" stop-color="#90d3ed"/><stop offset="0.18" stop-color="#94d5ee"/><stop offset="0.38" stop-color="#a1daf0"/><stop offset="0.57" stop-color="#b5e2f3"/><stop offset="0.77" stop-color="#d2edf8"/><stop offset="0.96" stop-color="#f7fcfe"/><stop offset="1" stop-color="#fff"/></linearGradient></defs><title>アートボード 1</title><g id="レイヤー_2" data-name="レイヤー 2"><rect class="cls-1" x="-21.1" y="-24.86" width="884.09" height="1240.28"/><rect class="cls-2" x="7.85" y="1031.37" width="165.94" height="8.04" transform="translate(-705.53 367.48) rotate(-45)"/><path class="cls-3" d="M146.65,977.41l2.15,2.15L35,1093.36l-2.15-2.15,113.8-113.8m0-7.07L25.77,1091.21l9.22,9.22L155.86,979.56l-9.22-9.22Z"/><rect class="cls-2" x="747.62" y="952.41" width="8.04" height="165.94" transform="translate(-511.98 834.75) rotate(-45)"/><path class="cls-3" d="M695.81,977.41l113.8,113.8-2.15,2.15-113.8-113.8,2.15-2.15m0-7.07-9.22,9.22,120.87,120.87,9.22-9.22L695.81,970.34Z"/><rect class="cls-2" x="807.86" y="986.43" width="8.04" height="243.11"/><path class="cls-3" d="M813.4,988.93V1227h-3V988.93h3m5-5h-13V1232h13V983.93Z"/><rect class="cls-2" x="26.99" y="987.02" width="8.04" height="243.11"/><path class="cls-3" d="M32.53,989.52v238.11h-3V989.52h3m5-5h-13v248.11h13V984.52Z"/><path class="cls-4" d="M819.19,1031.6a1.48,1.48,0,0,1-.33,0c-10.15-.66-17-7.24-21.85-12.92-4.63-5.43-8.3-9.71-15.77-9.71s-11.13,4.29-15.76,9.71-10.68,12.51-22.19,12.51-17.43-6.94-22.18-12.51-8.29-9.71-15.76-9.71-11.13,4.29-15.76,9.71c-4.76,5.58-10.68,12.51-22.19,12.51s-17.43-6.94-22.18-12.51-8.29-9.71-15.76-9.71-11.13,4.29-15.76,9.71-10.68,12.51-22.18,12.51-17.42-6.94-22.18-12.51-8.29-9.71-15.76-9.71-11.13,4.29-15.76,9.71-10.68,12.51-22.18,12.51-17.43-6.94-22.18-12.51-8.29-9.71-15.76-9.71-11.13,4.29-15.76,9.71-10.68,12.51-22.18,12.51-17.42-6.94-22.18-12.51-8.29-9.72-15.76-9.72-11.13,4.29-15.76,9.71-10.68,12.51-22.18,12.51-17.42-6.94-22.18-12.51-8.29-9.71-15.76-9.71-11.13,4.29-15.76,9.71-10.68,12.51-22.18,12.51-17.42-6.94-22.18-12.51-8.29-9.71-15.76-9.71-11.13,4.29-15.76,9.71-10.68,12.51-22.18,12.51-17.42-6.94-22.18-12.51-8.29-9.71-15.76-9.71-11.13,4.29-15.76,9.71-10.68,12.51-22.18,12.51-17.42-6.94-22.18-12.51-8.29-9.71-15.76-9.71-11.13,4.29-15.76,9.71-10.68,12.51-22.18,12.51-17.42-6.94-22.18-12.51c-4.5-5.28-8.06-9.44-15.11-9.69a1.5,1.5,0,0,1-1.45-1.49l-.35-47.14a1.5,1.5,0,0,1,.69-1.27L420,702a1.5,1.5,0,0,1,1.63,0L820,959.05a1.5,1.5,0,0,1,.69,1.26v69.78a1.5,1.5,0,0,1-1.5,1.5Z"/><path class="cls-5" d="M420.77,703.26,819.19,960.31v69.78l0,0c-9.89-.52-16.44-7-21-12.41s-8.75-10.24-16.91-10.24-12.21,4.75-16.91,10.24-10.23,12-21,12-16.25-6.37-21-12-8.74-10.24-16.9-10.24-12.21,4.75-16.9,10.24-10.23,12-21,12-16.25-6.37-21-12-8.74-10.24-16.9-10.24-12.21,4.75-16.9,10.24-10.23,12-21,12-16.25-6.37-21-12-8.74-10.24-16.9-10.24-12.21,4.75-16.9,10.24-10.23,12-21,12-16.25-6.37-21-12-8.74-10.24-16.9-10.24-12.21,4.75-16.9,10.24-10.23,12-21,12-16.25-6.37-21-12-8.74-10.24-16.9-10.24-12.21,4.75-16.9,10.24-10.23,12-21,12-16.25-6.37-21-12-8.74-10.24-16.9-10.24-12.21,4.75-16.9,10.24-10.23,12-21,12-16.25-6.37-21-12-8.74-10.24-16.9-10.24-12.21,4.75-16.9,10.24-10.23,12-21,12-16.25-6.37-21-12-8.74-10.24-16.9-10.24-12.21,4.75-16.9,10.24-10.23,12-21,12-16.25-6.37-21-12-8.74-10.24-16.9-10.24-12.21,4.75-16.9,10.24-10.23,12-21,12-16.25-6.37-21-12c-4.55-5.33-8.51-9.94-16.2-10.22l-.35-47.13L420.77,703.26m0-3a3,3,0,0,0-1.63.48L21.08,957.79a3,3,0,0,0-1.37,2.54l.35,47.13a3,3,0,0,0,2.89,3c6.39.22,9.59,4,14,9.16,5,5.81,11.13,13,23.32,13s18.36-7.23,23.32-13c4.55-5.33,7.84-9.19,14.62-9.19s10.06,3.85,14.62,9.19c5,5.81,11.13,13,23.32,13s18.36-7.23,23.32-13c4.55-5.33,7.84-9.19,14.62-9.19s10.07,3.85,14.62,9.19c5,5.81,11.13,13,23.32,13s18.37-7.23,23.32-13c4.55-5.34,7.84-9.19,14.62-9.19s10.07,3.85,14.62,9.19c5,5.81,11.13,13,23.32,13s18.37-7.23,23.32-13c4.55-5.33,7.84-9.19,14.62-9.19s10.07,3.85,14.62,9.19c5,5.81,11.13,13,23.32,13s18.37-7.23,23.32-13c4.55-5.33,7.84-9.19,14.62-9.19s10.07,3.85,14.62,9.19c5,5.81,11.13,13,23.32,13s18.37-7.23,23.32-13c4.55-5.33,7.84-9.19,14.62-9.19s10.07,3.85,14.62,9.19c5,5.81,11.13,13,23.32,13s18.37-7.23,23.32-13c4.55-5.33,7.84-9.19,14.62-9.19s10.07,3.85,14.62,9.19c5,5.81,11.13,13,23.32,13s18.37-7.23,23.32-13c4.55-5.33,7.85-9.19,14.62-9.19s10.07,3.85,14.62,9.19c5,5.81,11.13,13,23.32,13s18.37-7.23,23.33-13c4.56-5.34,7.85-9.19,14.62-9.19s10.07,3.85,14.62,9.19c5,5.81,11.13,13,23.32,13s18.37-7.23,23.33-13c4.56-5.34,7.85-9.19,14.63-9.19s10.07,3.85,14.63,9.19c5,5.91,12.18,12.75,22.82,13.44a3,3,0,0,0,3.51-3V960.31a3,3,0,0,0-1.37-2.52L422.4,700.74a3,3,0,0,0-1.63-.48Z"/></g><g id="レイヤー_1" data-name="レイヤー 1"><text class="cls-6" transform="translate(320.78 56.5)"><tspan class="cls-7">第</tspan><tspan x="37.5" y="0">1</tspan><tspan class="cls-7" x="54.03" y="0">4</tspan><tspan x="78.06" y="0">回芸工祭</tspan></text><text class="cls-8" transform="translate(116.26 135.05)">一般テ<tspan class="cls-9" x="204.75" y="0">ン</tspan><tspan x="268.13" y="0">ト企画募集</tspan></text><text class="cls-10" transform="translate(45.85 204.48)">募集方法</text><text class="cls-11" transform="translate(85.24 255.33)">申込用紙に必要事項を記入し、期間内に提<tspan class="cls-7" x="399" y="0">出</tspan><tspan x="425.25" y="0">BO</tspan><tspan class="cls-7" x="452.86" y="0">X</tspan><tspan x="470.92" y="0">に提出してください</tspan><tspan class="cls-12" x="659.92" y="0">。</tspan><tspan x="0" y="36.75">申込用紙、提</tspan><tspan class="cls-7" x="126" y="36.75">出</tspan><tspan x="152.25" y="36.75">BO</tspan><tspan class="cls-7" x="179.86" y="36.75">X</tspan><tspan x="197.92" y="36.75">は共に第５研修</tspan><tspan class="cls-13" x="344.92" y="36.75">室(</tspan><tspan x="382.93" y="36.75">厚生</tspan><tspan class="cls-7" x="424.93" y="36.75">棟3階)</tspan><tspan x="506.01" y="36.75">前にあります</tspan><tspan class="cls-12" x="632.01" y="36.75">。</tspan></text><text class="cls-10" transform="translate(45.85 373.97)">募集期間</text><text class="cls-10" transform="translate(45.85 618.47)">第１回ガイダンス日時</text><text class="cls-10" transform="translate(45.85 847.31)">注意事項</text><text class="cls-14" transform="translate(58.06 547.28)">(※テントの設置場所の要望は、申し込み用紙の先着順とさせていただきます<tspan class="cls-12" x="548.96" y="0">。</tspan><tspan x="556.96" y="0" xml:space="preserve"> 何卒、ご了承ください。)</tspan></text><text class="cls-11" transform="translate(174.19 781.21)">申し込まれた団体の代表者は必ず出席してください<tspan class="cls-12" x="483" y="0">。</tspan></text><text class="cls-11" transform="translate(100.68 895.46)">今年度もアルコール類の持ち込み、販売は禁止しています<tspan class="cls-12" x="546" y="0">。</tspan><tspan x="0" y="36.75">募集期間以外での追加募集は行いません</tspan><tspan class="cls-12" x="378" y="36.75">。</tspan><tspan x="0" y="73.5">今年度</tspan><tspan class="cls-7" x="63" y="73.5">も</tspan><tspan x="89.25" y="73.5">T-</tspan><tspan class="cls-7" x="107.52" y="73.5">1</tspan><tspan x="124.34" y="73.5">グランプリは行いません。ご協力宜しくお願いします</tspan><tspan class="cls-12" x="628.34" y="73.5">。</tspan></text><text class="cls-15" transform="translate(89.06 1062.55)">連絡先<tspan class="cls-7" x="0" y="31.5">第</tspan><tspan x="22.5" y="31.5">1</tspan><tspan class="cls-7" x="32.42" y="31.5">4</tspan><tspan x="46.84" y="31.5">回九州大学大橋キャンパス芸工祭実行委員会</tspan><tspan x="0" y="63">一般テント企画</tspan><tspan x="0" y="94.5" xml:space="preserve">MAIL :  gfes.tent2017@gmail.com</tspan></text><text class="cls-16" transform="translate(288.06 711.13)">7/27</text><text class="cls-17" transform="translate(489.12 727.78) scale(0.58)">(木<tspan class="cls-18" x="95.5" y="0">)</tspan></text><text class="cls-16" transform="translate(96.35 475.84)">6/19</text><text class="cls-19" transform="translate(297.5 492.49) scale(0.58)">(月<tspan class="cls-20" x="95.5" y="0">)</tspan></text><text class="cls-16" transform="translate(363.67 475.84)"><tspan xml:space="preserve"> ~ 7/14</tspan></text><text class="cls-19" transform="translate(680.83 492.49) scale(0.58)">(金<tspan class="cls-20" x="95.5" y="0">)</tspan></text><rect id="rect1" class="cls-21" x="741" y="1087.2" width="19.93" height="19.93" rx="8.5" ry="8.5"/><rect id="rect2" class="cls-22" x="720.12" y="1108.07" width="19.93" height="19.93" rx="8.5" ry="8.5"/><rect id="rect3" class="cls-23" x="741" y="1108.07" width="19.93" height="19.93" rx="8.5" ry="8.5"/><g id="geikofes"><path class="cls-24" d="M538.57,1117v-6h6v-6h-11.9v-6h11.9v-11.9h6v11.9h17.85v-11.9h6v11.9h11.9v6h-11.9v6h6v6Zm-6,11.9v-6h53.56v6h-11.9v6h6v11.9h-6v-11.9h-6v6h-6v6H538.57v-11.9h6v6h17.85v-6h6v-6H550.47v6h-6v-6ZM550.47,1111h17.85v-6H550.47Z"/><path class="cls-24" d="M584.36,1146.71v-6h23.81V1099.1H590.31v-6H632v6H614.12v41.66h23.81v6Z"/><path class="cls-24" d="M639.41,1105.05v-6h6v6h6v6h6v6h-6v6h-6v-6h6v-6h-6v-6Zm0,23.81v-6h6v6Zm17.85,17.85v-6h6v-6h-11.9v6h-6v6h-6v-6h6v-11.9H687v11.9h6v6h-6v-6h-6v-6h-11.9v11.9Zm0-35.71v-11.9h-11.9v-6h17.85V1111Zm11.9,0v-6h6v6h6v6h6v6h6v6h-6v-6h-6v-6h-6v6H657.26v-6h17.85v-6Zm0-11.9v-6H693v11.9h-6v6h-6v-6h6v-6Z"/></g><rect id="rect6" class="cls-25" x="741" y="1128.94" width="19.93" height="19.93" rx="8.5" ry="8.5"/><rect id="rect4" class="cls-26" x="699.25" y="1128.94" width="19.93" height="19.93" rx="8.5" ry="8.5"/><path class="cls-27" d="M555,1053.32h6v-2H553v-2h2v-2h-4v2h-2v2h-2v2h-2v2h4v-2h2v2h2v2H541.1v-4h4v-2h-4v-2h2v-2h-4v2h-2l0,2h-4v2h-2v2h4v-2h2v2h2v2h-2v2h7.94v2h-9.92v2h-2v4h9.92v2h-4v2h-4v2h-2v2h4v-2h4v-2h4v4h4v-7.94H557v7.94h2v-2h2v-6h-2v-2H549v-2H559v-6h-4v-4Zm-17.85,11.9v-2h7.94v2Zm17.85-4h-6v-2h6Z"/><rect class="cls-27" x="551.02" y="1073.16" width="5.95" height="1.98"/><polygon class="cls-27" points="572.44 1049.31 568.48 1049.31 568.48 1051.3 566.49 1051.3 566.49 1053.28 568.48 1053.28 568.48 1073.12 564.51 1073.12 564.51 1075.1 574.43 1075.1 574.43 1073.12 572.44 1073.12 572.44 1049.31"/><rect class="cls-27" x="564.51" y="1053.28" width="1.98" height="1.98"/><polygon class="cls-27" points="588.31 1067.17 588.31 1049.31 584.35 1049.31 584.35 1067.17 580.38 1067.17 580.38 1049.31 576.41 1049.31 576.41 1069.15 584.35 1069.15 584.35 1075.1 588.31 1075.1 588.31 1069.15 590.3 1069.15 590.3 1067.17 588.31 1067.17"/><path class="cls-27" d="M598.63,1051.14h-4v23.81h23.81v-23.81Zm0,21.82v-19.84H614.5V1073Z"/><path class="cls-27" d="M602.6,1057.09h-2V1069h11.9v-11.9H602.6Zm6,2V1067h-4v-7.94Z"/><rect id="rect5" class="cls-28" x="720.12" y="1128.94" width="19.93" height="19.93" rx="8.5" ry="8.5"/><g id="theme"><path class="cls-24" d="M589.39,1167.84H587v-14.28h2.38Zm4.76,2.38h-4.76v-2.38h4.76Zm0-2.38v-14.28h2.38v14.28Z"/><path class="cls-24" d="M601.29,1170.22V1175h-2.38v-16.66H606v2.38h2.38v7.14H606v2.38Zm0-2.38H606v-7.14h-4.76Z"/><path class="cls-24" d="M620.33,1170.22h-7.14v-2.38H618v-7.14h-4.76v7.14h-2.38v-7.14h2.38v-2.38H618v-4.76h2.38Z"/><path class="cls-24" d="M622.71,1167.84v-2.38h2.38v2.38h4.76v-2.38h-4.76v-2.38h4.76v-2.38h2.38v9.52h-7.14v-2.38Zm2.38-7.14v-2.38h4.76v2.38Z"/><path class="cls-24" d="M634.62,1160.7v-2.38H637v-4.76h2.38v4.76h4.76v2.38h-4.76v7.14h4.76v2.38h-4.76v-2.38H637v-7.14Z"/><path class="cls-24" d="M648.9,1167.84h-2.38v-7.14h2.38v2.38h4.76v-2.38H656v4.76H648.9Zm4.76-7.14H648.9v-2.38h4.76Zm2.38,9.52H648.9v-2.38H656Z"/><path class="cls-24" d="M675.09,1170.22h-4.76v-16.66h2.38v14.28h2.38Zm0-2.38v-2.38h2.38v2.38Zm2.38-2.38v-11.9h2.38v11.9Z"/><path class="cls-24" d="M684.61,1167.84h-2.38v-7.14h2.38v2.38h4.76v-2.38h2.38v4.76h-7.14Zm4.76-7.14h-4.76v-2.38h4.76Zm2.38,9.52h-7.14v-2.38h7.14Z"/><path class="cls-24" d="M696.51,1163.08v7.14h-2.38v-11.9h2.38v2.38h2.38v2.38Zm7.14-2.38h-4.76v-2.38h4.76Z"/><path class="cls-24" d="M708.41,1170.22v-2.38h2.38v2.38Z"/><path class="cls-25" d="M717.94,1160.7v-2.38h2.38v2.38Zm7.14-7.14v16.66H722.7v-11.9h-2.38v-2.38h2.38v-2.38Z"/><path class="cls-25" d="M737,1165.46v4.76H734.6v-4.76h-4.76v-7.14h2.38v4.76h2.38v-4.76h-2.38v-2.38h2.38v-2.38H737v9.52h2.38v2.38Z"/><path class="cls-25" d="M744.12,1170.22v-2.38h2.38v2.38Z"/><path class="cls-25" d="M760.79,1167.84v-7.14h-2.38v2.38H756v4.76h-2.38v-11.9H756v4.76h2.38v-2.38h2.38v-2.38h2.38v11.9Zm0-11.9H756v-2.38h4.76Zm0,14.28H756v-2.38h4.76Z"/></g><line id="line" class="cls-29" x1="586.18" y1="1170.27" x2="760.93" y2="1170.17"/></g></svg>