<svg id="レイヤー_1" data-name="レイヤー 1" xmlns="http://www.w3.org/2000/svg" viewBox="0 0 267.6 32.4"><defs><style>.cls-1{fill:#231815;}.cls-2{fill:#b45858;}.cls-3{fill:none;stroke:#231815;stroke-miterlimit:10;}</style></defs><title>theme</title>
	<g id="color-logo">
		<g id="theme">
			<path class="cls-1" d="M96,133.1H92.4V111.5H96Zm7.2,3.6H96v-3.6h7.2Zm0-3.6V111.5h3.6v21.6Zm10.8,3.6v7.2h-3.6V118.7h10.8v3.6h3.6v10.8h-3.6v3.6Zm0-3.6h7.2V122.3H114Zm28.8,3.6H132v-3.6h7.2V122.3H132v10.8h-3.6V122.3H132v-3.6h7.2v-7.2h3.6Zm3.6-3.6v-3.6H150v3.6h7.2v-3.6H150v-3.6h7.2v-3.6h3.6v14.4H150v-3.6Zm3.6-10.8v-3.6h7.2v3.6Zm14.4,0v-3.6H168v-7.2h3.6v7.2h7.2v3.6h-7.2v10.8h7.2v3.6h-7.2v-3.6H168V122.3ZM186,133.1h-3.6V122.3H186v3.6h7.2v-3.6h3.6v7.2H186Zm7.2-10.8H186v-3.6h7.2Zm3.6,14.4H186v-3.6h10.8Zm28.8,0h-7.2V111.5H222v21.6h3.6Zm0-3.6v-3.6h3.6v3.6Zm3.6-3.6v-18h3.6v18Zm10.8,3.6h-3.6V122.3H240v3.6h7.2v-3.6h3.6v7.2H240Zm7.2-10.8H240v-3.6h7.2Zm3.6,14.4H240v-3.6h10.8Zm7.2-10.8v10.8h-3.6v-18H258v3.6h3.6v3.6Zm10.8-3.6h-7.2v-3.6h7.2Zm7.2,14.4v-3.6h3.6v3.6Z" transform="translate(-91.2 -111.5)"/>
			
			<path class="cls-2" d="M290.4,122.3v-3.6H294v3.6Zm10.8-10.8v25.2h-3.6v-18H294v-3.6h3.6v-3.6Zm18,18v7.2h-3.6v-7.2h-7.2V118.7H312v7.2h3.6v-7.2H312v-3.6h3.6v-3.6h3.6v14.4h3.6v3.6Zm10.8,7.2v-3.6h3.6v3.6Zm25.2-3.6V122.3h-3.6v3.6H348v7.2h-3.6v-18H348v7.2h3.6v-3.6h3.6v-3.6h3.6v18Zm0-18H348v-3.6h7.2Zm0,21.6H348v-3.6h7.2Z" transform="translate(-91.2 -111.5)"/>
		</g>
		<path id="line" class="cls-3" d="M91.2,136.8l264.3-.1" transform="translate(-91.2 -111.5)">
			<animate attributeName="d" attributeType="XML" dur="1s" repeatCount="indefinite" values="M0,25.3v-.1;M91.2,136.8l264.3-.1"/>
		</path>
	</g>
</svg>