<?xml version="1.0" encoding="UTF-8"?><svg id="_レイヤー_2" xmlns="http://www.w3.org/2000/svg" xmlns:xlink="http://www.w3.org/1999/xlink" viewBox="0 0 597 131"><defs><style>.cls-1{fill:#fff;}.cls-2{fill:url(#_名称未設定グラデーション_40);}</style><linearGradient id="_名称未設定グラデーション_40" x1="-7" y1="58.5" x2="590" y2="58.5" gradientTransform="translate(7 7)" gradientUnits="userSpaceOnUse"><stop offset="0" stop-color="#ff747c"/><stop offset=".53" stop-color="#bdacc5"/><stop offset="1" stop-color="#4dc9cb"/><stop offset="1" stop-color="#eeea4a"/></linearGradient></defs><g id="What_is_Geiko-fes_"><rect class="cls-2" width="597" height="131"/><g><path class="cls-1" d="M132.4,38.72v-12.3h16.38v12.3h-16.38Zm0,55.9V43.78h16.38v50.84h-16.38Z"/><path class="cls-1" d="M160.11,94.62V43.78h15.46v6.02c1.8-2.4,3.86-4.17,6.17-5.32,2.31-1.14,5.02-1.71,8.11-1.71,4.56,0,7.89,1.31,10,3.93,2.11,2.62,3.16,6.77,3.16,12.46v35.46h-16.38v-31.42c0-4.07-.31-6.61-.92-7.6-.61-1-1.7-1.49-3.27-1.49-1.84,0-3.27,.77-4.31,2.31-1.04,1.54-1.56,3.68-1.56,6.44v31.77h-16.48Z"/><path class="cls-1" d="M222.04,94.62l-12.96-50.84h16.53l5.76,34.54,5.71-34.54h16.43l-13.06,50.84h-18.42Z"/><path class="cls-1" d="M258.21,69.22c0-9.9,1.65-16.85,4.95-20.83,3.3-3.98,8.96-5.98,16.99-5.98s13.69,1.98,16.99,5.93c3.3,3.96,4.95,10.91,4.95,20.87s-1.65,16.84-4.95,20.81c-3.3,3.97-8.96,5.95-16.99,5.95s-13.73-1.97-17.01-5.91c-3.28-3.94-4.92-10.89-4.92-20.85Zm16.73,0c0,7.15,.37,11.62,1.1,13.43,.73,1.8,2.1,2.7,4.11,2.7s3.38-.86,4.11-2.59c.73-1.73,1.1-6.24,1.1-13.54s-.37-11.81-1.1-13.56c-.73-1.74-2.1-2.61-4.11-2.61s-3.38,.91-4.11,2.72c-.73,1.82-1.1,6.3-1.1,13.45Z"/><path class="cls-1" d="M328.11,94.62h-16.38V26.95h16.38V94.62Z"/><path class="cls-1" d="M347.34,94.62l-12.96-50.84h16.53l5.76,34.54,5.71-34.54h16.43l-13.06,50.84h-18.42Z"/><path class="cls-1" d="M411.42,76.78h15.46v1.27c0,5.95-1.8,10.42-5.41,13.43-3.61,3-8.98,4.5-16.12,4.5-3.61,0-6.87-.44-9.8-1.32-2.93-.88-5.2-2.09-6.84-3.65-1.84-1.79-3.15-4.16-3.93-7.12-.78-2.96-1.17-7.69-1.17-14.19,0-7.18,.4-12.19,1.2-15.03,.8-2.84,2.17-5.19,4.11-7.03,1.87-1.73,4.24-3.03,7.12-3.91,2.87-.88,6.22-1.32,10.03-1.32s7.23,.48,10.05,1.43c2.82,.95,5.12,2.37,6.89,4.24,1.5,1.58,2.57,3.47,3.21,5.67,.65,2.2,.97,5.95,.97,11.25v6.11h-26.84c-.03,.15-.05,.34-.05,.57-.14,2.14-.2,3.63-.2,4.48,0,3.57,.44,6.06,1.33,7.45,.88,1.39,2.4,2.09,4.54,2.09,1.87,0,3.28-.53,4.23-1.6,.95-1.07,1.43-2.69,1.43-4.86,0-.44-.05-1.11-.15-2.02-.03-.18-.05-.32-.05-.44Zm-10.66-14.46h11.07v-.26c.14-1.29,.2-2.2,.2-2.72,0-2.49-.47-4.33-1.4-5.52-.94-1.19-2.39-1.78-4.36-1.78s-3.44,.58-4.31,1.74c-.87,1.16-1.3,3.07-1.3,5.73,0,.73,0,1.3,.03,1.71,.02,.41,.04,.78,.08,1.1Z"/><path class="cls-1" d="M456.77,28.57l-1.38,48.21h-7.96l-1.48-48.21h10.82Zm-.2,66.23h-10.41v-9.27h10.41v9.27Z"/></g></g></svg>