<?xml version="1.0" encoding="UTF-8"?><svg xmlns="http://www.w3.org/2000/svg" viewBox="0 0 1118 944"><defs><style>.cls-1,.cls-2,.cls-3{fill:#fff;}.cls-4{fill:#998675;}.cls-5{fill:#4d4d4d;}.cls-6{stroke-width:7px;}.cls-6,.cls-7,.cls-8,.cls-2,.cls-3{stroke-miterlimit:10;}.cls-6,.cls-8{fill:none;stroke:#ccc;}.cls-7{stroke:#666;stroke-width:.75px;}.cls-7,.cls-9{fill:#666;}.cls-10{fill:#a7839a;}.cls-11{fill:#ff747c;}.cls-12{fill:gray;}.cls-8{stroke-width:5px;}.cls-2{stroke:gray;stroke-width:.5px;}.cls-13{fill:#bda494;}.cls-14{fill:#95c173;}.cls-15{fill:#4dc9cb;}.cls-16{fill:#89ac98;}.cls-17{fill:#ccc;}.cls-3{stroke:#fff;}.cls-18{fill:#c6eeee;}</style></defs><g id="_緑"><g id="_レイヤー_5"><polygon class="cls-17" points="475.64 724 911.59 724 1015 603.44 1015 40 94 40 94 642.93 475.64 724"/></g><rect class="cls-13" x="674.38" y="164.12" width="146" height="151"/><rect class="cls-13" x="622" y="355" width="82" height="85"/><rect class="cls-13" x="672.02" y="403.24" width="107" height="115"/><rect class="cls-13" x="502" y="401" width="94" height="115"/><circle class="cls-17" cx="747.38" cy="239.62" r="41.5"/><line class="cls-6" x1="669" y1="239.62" x2="824" y2="239.62"/><line class="cls-6" x1="747.38" y1="160" x2="747.38" y2="315"/><line class="cls-8" x1="647" y1="460.74" x2="802" y2="460.74"/><line class="cls-8" x1="725.38" y1="381" x2="725.38" y2="536"/><circle class="cls-14" cx="747.38" cy="239.62" r="32.5"/><circle class="cls-14" cx="725.52" cy="460.74" r="37"/><circle class="cls-14" cx="660" cy="395" r="17"/><circle class="cls-17" cx="725.52" cy="460.74" r="24.5"/><circle class="cls-15" cx="725.52" cy="460.74" r="17.58"/><path class="cls-14" d="M838.14,591.16l52.45,58.38c.27,.31,.54,.62,.78,.95l2.63,3.51v.08c5,7.92-4.42,7.92-8.98,7.92h-43.14c-19.88-3-26.88-5-26.96-14.63-.13-15.62-.44-31.24-.66-46.87-.26-35.5,6.74-31.5,23.88-9.34Z"/><path class="cls-14" d="M879.91,605.2l-53.91-54.2-2-2c-6.77-9.48,5-12,11.13-12.62l59.87-1.38c22-1,27.3,2.81,28,12,1.13,14.91-.28,29.99-.72,45.85-1.28,46.15-29.28,27.15-42.37,12.35Z"/><path class="cls-14" d="M508,350v-19c0-.67,.39-2.64,1-5,.62-2.42,1.96-4.08,3-5,9-8,14-12,17-15,.69-.69,2.13-1.34,4-2,1.35-.48,2.8-.8,5-1,1.17-.1,8,0,13,1,3.61,.72,5.13,1.52,6,2,2.03,1.11,3.37,2.33,4,3,17,18,18.75,20.14,23,25,.32,.37,1.23,1.4,2,3,.63,1.32,.87,2.42,1,3,.52,2.42,.96,7.85,1,15-2.09,1.39-5.14,3.25-9,5-30.08,13.66-71,2.85-71-10Z"/><path class="cls-14" d="M634,248c-.77-.39-6.85-1.59-19-4,0,0-9.97-1.97-21-2-1.16,0-3.8,.02-7,1-1.42,.44-3.74,1.17-6,3-2.11,1.71-3.41,3.53-4,5-2,5-5,14-8,27-.45,1.95,1,6,1,6,.5,2.08,1.01,4.2,2,6,1.82,3.32,4.78,4.72,7,6,1.29,.74,5.86,5.16,15,14,6.08,5.88,7.49,7.44,11,10,2.21,1.61,4.92,3.6,8,5,7.85,3.58,17.29,3.04,22,1,19.26-8.34,19.4-67.63-1-78Z"/><path class="cls-14" d="M644,226c-6.3,4.65-7.49-.64-31,4,0,0-20.14,3.98-33,1-.97-.23-2.59-.69-4-2-2.15-1.99-2.5-4.72-3-9-.69-5.93,0-11,0-11,.26-1.92,.65-3.69,0-6-.43-1.53-1.13-2.65-2-4-1.67-2.6-2.74-3.3-4-5-1.6-2.15-2.16-4.09-3-7-3.08-10.64-1.11-21.43-1-22,1.26-6.53,1.63-9.85,4-12,.75-.68,2.72-2.26,16-4,4.71-.62,5.84-.6,9-1,8.18-1.03,10.38-2.76,18-4,1.16-.19,6.51-1.15,10-1,14.21,.59,24.64,20.42,26,23,10.05,19.1,12.35,49.4-2,60Z"/><path class="cls-14" d="M840,240c29,4,36.74,4.26,55,4,0,0,13.02-2.08,20,3,2.37,1.72,4,4,4,4s2.11,2.95,3,7c3,13.68-.34,52.42-1,65-.06,1.06-.14,2.85-1,5-3.77,9.45-17.31,12.24-21,13-17.91,3.69-41.02-7.38-54-24-15.91-20.37-17.43-50.14-5-77Z"/><path class="cls-14" d="M854,155c18.46-.54,32-1,41-1h17c1.12,0,3.62-.37,6,1,.51,.29,2.58,1.56,4,5,5.11,12.35,4,47,3,60-.08,1-.14,4.98-2,9-.37,.8-1.23,2.61-3,4-3.28,2.58-7.62,2.12-9,2-6.46-.54-27.21-.02-57,1,.67-26.67-.67-54.33,0-81Z"/><path class="cls-14" d="M890,671c28.02-6.61,47.1-11.36,51-13,.13-.06,3.22-1.36,7-1,1.32,.13,2.23,.41,3,1,.94,.72,1.62,1.87,2,4,.92,5.12-.58,12.13-1,14-9.67,11-19.33,22-29,33-10,1.33-20,2.67-30,4l-3-42Z"/><path class="cls-14" d="M977,638c-1.1,.03-9.89,.17-15-6-.75-.9-.84-1.24-3-6-4.78-10.51-6.26-13.08-7-18-.81-5.38,.24-7.15,1-8,1.15-1.28,2.74-1.68,5-2,3.39-.48,9.39-1.33,14,0,13.73,3.97,22.29,29.35,15,37-2.65,2.78-7.1,2.91-10,3Z"/></g><g id="_建物"><rect class="cls-12" x="977" y="546" width="20" height="63"/><rect class="cls-12" x="971" y="537" width="18" height="34" transform="translate(1534 -426) rotate(90)"/><rect class="cls-12" x="820" y="410" width="47" height="113" transform="translate(1687 933) rotate(180)"/><rect class="cls-12" x="964.5" y="409" width="35.5" height="121" transform="translate(1964.5 939) rotate(180)"/><rect class="cls-10" x="939.5" y="148.5" width="81" height="54" transform="translate(1155.5 -804.5) rotate(90)"/><rect class="cls-12" x="966" y="296" width="43" height="95" transform="translate(1975 687) rotate(180)"/><rect class="cls-12" x="958" y="296" width="43" height="61" transform="translate(1959 653) rotate(180)"/><rect class="cls-12" x="950" y="220" width="51" height="59" transform="translate(1225 -726) rotate(90)"/><rect class="cls-12" x="951.5" y="61.5" width="60" height="55" transform="translate(1070.5 -892.5) rotate(90)"/><rect class="cls-10" x="830" y="67" width="67" height="83" transform="translate(972 -755) rotate(90)"/><rect class="cls-10" x="668.27" y="525.26" width="36.98" height="154.75" transform="translate(1369.04 1210.33) rotate(-179.58)"/><rect class="cls-10" x="692.63" y="549.63" width="100" height="102.75" transform="translate(1343.63 -141.63) rotate(90)"/><rect class="cls-10" x="681.63" y="538.63" width="100" height="102.75" transform="translate(1321.63 -141.63) rotate(90)"/><g><rect class="cls-12" x="539.5" y="320.85" width="24" height="86.3" transform="translate(915.5 -187.5) rotate(90)"/><rect class="cls-12" x="528" y="342.01" width="47" height="70.99" transform="translate(929 -174) rotate(90)"/><polygon class="cls-12" points="524.4 375.3 521.2 386.86 507.99 375.39 524.4 375.3"/><polygon class="cls-12" points="578.68 374.48 595 375.68 580.35 386.21 578.68 374.48"/></g><g><rect class="cls-12" x="535.5" y="513.85" width="34" height="86.3" transform="translate(-4.5 1109.5) rotate(-90)"/><rect class="cls-12" x="529" y="503.01" width="47" height="70.99" transform="translate(14 1091) rotate(-90)"/><polygon class="cls-12" points="525.4 540.7 522.2 529.14 508.99 540.61 525.4 540.7"/><polygon class="cls-12" points="579.68 541.52 596 540.32 581.35 529.79 579.68 541.52"/></g><g><rect class="cls-10" x="757.75" y="90.5" width="51" height="62" transform="translate(904.75 -661.75) rotate(90)"/><rect class="cls-10" x="757.75" y="113" width="51" height="51" transform="translate(921.75 -644.75) rotate(90)"/><polygon class="cls-10" points="763.78 146.3 761.48 157.86 751.99 146.39 763.78 146.3"/><polygon class="cls-10" points="802.77 145.48 814.5 146.68 803.98 157.21 802.77 145.48"/></g><g><rect class="cls-10" x="460" y="385" width="35" height="144"/><rect class="cls-10" x="464" y="390.5" width="44.25" height="132.5"/><polygon class="cls-10" points="494.91 517.11 506.47 519.41 495 528.89 494.91 517.11"/><polygon class="cls-10" points="493.73 396.47 494.93 384.75 505.46 395.27 493.73 396.47"/></g><g><rect class="cls-12" x="796" y="264" width="54" height="188" transform="translate(465 1181) rotate(-90)"/><rect class="cls-12" x="745" y="312.16" width="51" height="54.67" transform="translate(431 1110) rotate(-90)"/><polygon class="cls-12" points="749.63 331.7 747.16 320.14 736.99 331.61 749.63 331.7"/><polygon class="cls-12" points="791.43 332.52 804 331.32 792.72 320.79 791.43 332.52"/></g><g><rect class="cls-12" x="835.25" y="149.01" width="31.76" height="181.99" transform="translate(1702.25 480.01) rotate(180)"/><rect class="cls-12" x="814.13" y="154.54" width="45" height="170.44" transform="translate(1673.76 477.74) rotate(179.88)"/><polygon class="cls-12" points="835.9 160.57 824.34 158.29 835.79 148.78 835.9 160.57"/><polygon class="cls-12" points="836.8 319.56 835.63 331.29 825.08 320.79 836.8 319.56"/></g><g><rect class="cls-10" x="623.95" y="146.01" width="31.76" height="181.99"/><rect class="cls-10" x="631.82" y="151.54" width="45" height="170.44" transform="translate(.5 -1.39) rotate(.12)"/><polygon class="cls-10" points="655.05 157.57 666.61 155.29 655.16 145.78 655.05 157.57"/><polygon class="cls-10" points="654.15 316.56 655.32 328.29 665.87 317.79 654.15 316.56"/></g><g><rect class="cls-12" x="689.25" y="97" width="38" height="62" transform="translate(836.25 -580.25) rotate(90)"/><rect class="cls-12" x="682.75" y="113" width="51" height="51" transform="translate(846.75 -569.75) rotate(90)"/><polygon class="cls-12" points="688.78 146.3 686.48 157.86 676.99 146.39 688.78 146.3"/><polygon class="cls-12" points="727.77 145.48 739.5 146.68 728.98 157.21 727.77 145.48"/></g><rect class="cls-12" x="574" y="82" width="48" height="56"/><rect class="cls-12" x="482" y="76" width="46" height="123"/><g><rect class="cls-10" x="461" y="210" width="42" height="168"/><rect class="cls-10" x="469" y="210" width="92" height="36"/><polygon class="cls-10" points="499.33 245 561.22 245.67 500 306.89 499.33 245"/></g><rect class="cls-12" x="451" y="539" width="50" height="71"/><rect class="cls-12" x="519" y="623" width="124" height="48"/><rect class="cls-12" x="615" y="446" width="39" height="160"/><rect class="cls-12" x="596" y="460" width="23" height="70"/><rect class="cls-12" x="604" y="529" width="17" height="23"/><rect class="cls-10" x="724" y="669" width="169" height="44"/><rect class="cls-12" x="312" y="645" width="55" height="33"/><rect class="cls-12" x="216" y="634" width="44" height="19"/><rect class="cls-4" x="153.27" y="244" width="278" height="372"/><rect class="cls-12" x="132" y="57" width="140" height="96"/><rect class="cls-12" x="266" y="57" width="51" height="78"/><rect class="cls-12" x="118" y="167" width="21" height="111"/><rect class="cls-12" x="110" y="300" width="17" height="44"/><rect class="cls-12" x="108" y="351" width="20" height="26"/><rect class="cls-12" x="108" y="405" width="27" height="17"/><rect class="cls-12" x="107" y="431" width="26" height="33"/><rect class="cls-12" x="124" y="468" width="10" height="13"/><rect class="cls-12" x="106" y="530" width="24" height="40"/><rect class="cls-12" x="101" y="585" width="17" height="34"/><rect class="cls-16" x="153.77" y="172" width="277" height="72"/></g><g id="_レイヤー_6"><rect class="cls-15" x="955" y="641" width="125" height="41" rx="13.12" ry="13.12"/><g><path class="cls-1" d="M981.03,661.87c-.71,1.56-1.68,2.92-2.89,4.05-1.21,1.14-2.78,2.14-4.7,3.02l-1.21-1.96c2.1-.87,3.79-2.11,5.06-3.72,1.27-1.61,2.04-3.51,2.3-5.68v-1.83l-4.36-.02v-2.11h6.93c0,.15,0,.3,0,.47v1.6c0,1.14,.11,2.18,.32,3.1,.21,.93,.6,1.89,1.19,2.89s1.32,1.92,2.21,2.76c.89,.83,1.98,1.64,3.28,2.4l-1.73,2.06c-1.79-1.24-3.18-2.44-4.16-3.58s-1.73-2.3-2.26-3.46Z"/><path class="cls-1" d="M994.8,664.92c-1.01,.38-2.51,.84-4.49,1.38l-.44-2.18c.62-.12,1.27-.26,1.95-.42v-5.14h-1.56v-1.84h1.56v-3.65h2.32v3.65h1.29v1.84h-1.29v4.52c.51-.15,.95-.29,1.33-.41l.04,.57c.7-.66,1.26-1.26,1.66-1.81h-1.66v-1.71h11.71v1.71h-7.63c-.18,.3-.35,.56-.5,.77h7.64c0,1.45,0,2.46-.03,3.01s-.1,1.15-.25,1.8c-.15,.65-.42,1.12-.82,1.4s-.92,.42-1.56,.42h-1.69l-.27-1.87h1.2c.25,0,.46-.06,.65-.18s.32-.46,.41-1.02,.13-1.2,.13-1.94h-.23c-.99,2.04-2.56,3.73-4.72,5.06l-1.29-1.2c1.61-1.16,2.87-2.45,3.76-3.86h-1.04c-.57,.91-1.37,1.82-2.39,2.72s-1.98,1.59-2.87,2.05l-1.15-1.34c1.59-.93,2.96-2.08,4.09-3.44h-.95c-.67,.67-1.43,1.27-2.26,1.8l-.63-.69Zm11.31-5.93h-9.51v-5.72h9.51v5.72Zm-2.25-3.44v-.83h-5.03v.83h5.03Zm0,2v-.83h-5.03v.83h5.03Z"/><path class="cls-1" d="M1015.59,667.04l-1.58,1.91c-.28-.28-1.42-1.16-3.44-2.63l.98-1.08h-3.13v-1.77h11.41v-.81h-10.27v-6.22h5.77v-.74h-6.75v-1.75h6.75v-.99h2.5v.99h6.99v1.75h-6.99v.74h5.94v6.22h-1.49v.81h2.77v1.77h-2.77v1.96c0,.54-.22,.96-.67,1.28-.45,.31-.97,.47-1.58,.47h-2.73l-.27-2.21h2.3c.33,0,.5-.15,.5-.45v-1.05h-6.8c1.31,.84,2.16,1.44,2.56,1.8Zm-3.64-8.14h3.38v-.95h-3.38v.95Zm3.38,1.28h-3.38v.97h3.38v-.97Zm2.5-1.28h3.56v-.95h-3.56v.95Zm3.56,1.28h-3.56v.97h3.56v-.97Z"/><path class="cls-1" d="M1039.62,663.55h-3.44v5.19h-2.52v-5.19h-3.48c-.33,2.14-1.13,3.98-2.38,5.5l-1.85-1.24c1.32-1.79,1.98-4.22,1.98-7.29v-6.98h14.2v13.28c0,.53-.21,.97-.64,1.34-.43,.37-.94,.55-1.54,.55h-2.54l-.36-2.27h2c.38,0,.57-.14,.57-.43v-2.46Zm-9.25-1.99h3.3v-2.08h-3.26v.79c0,.39-.01,.82-.04,1.29Zm3.3-6.01h-3.26v2h3.26v-2Zm5.96,2v-2h-3.44v2h3.44Zm-3.44,4.01h3.44v-2.08h-3.44v2.08Z"/><path class="cls-1" d="M1057.48,667.27h-9.69v1.32h-2.52v-14.2h14.74v14.22h-2.53v-1.34Zm-9.69-2.14h9.69v-8.66h-9.69v8.66Z"/></g><rect class="cls-15" x="44" y="628" width="125" height="41" rx="13.12" ry="13.12"/><g><path class="cls-1" d="M78.47,653.77l-.4,2h-3.95l-4.34-.03c-.88-.01-1.52-.05-1.93-.1-.41-.06-.82-.12-1.24-.21-.93-.31-1.61-.77-2.04-1.39-.92,.87-1.86,1.55-2.82,2.03l-.81-2.1c.85-.32,1.63-.79,2.34-1.39v-4.45h-1.91v-1.91h4.16v5.84c0,.32,.1,.59,.31,.83s.52,.45,.94,.62,1.02,.28,1.79,.32,1.95,.06,3.52,.06c3.28,0,5.41-.04,6.39-.13Zm-12.49-10.08l-2.21,1.13c-.16-.33-.52-.92-1.08-1.77-.56-.85-.98-1.46-1.26-1.81l2-1.06c.83,.96,1.68,2.13,2.56,3.51Zm6.55,8.68c-.91,.3-2.9,.61-5.97,.93l-.42-1.92,.94-.07v-10.84h9.34v6.82h-3.44c.28,.59,.61,1.13,1,1.63,1.25-.66,2.18-1.25,2.78-1.78l1.41,1.49c-.64,.46-1.58,.99-2.81,1.59,.74,.58,1.72,1.11,2.95,1.58l-1.24,1.84c-1.68-.69-3.05-1.58-4.1-2.68-1.05-1.1-1.8-2.32-2.25-3.68h-1.36v3.78c1.48-.18,2.54-.34,3.16-.49v1.79Zm-3.16-9.18h4.74v-1.03h-4.74v1.03Zm4.74,1.48h-4.74v.97h4.74v-.97Z"/><path class="cls-1" d="M83.8,651.92c-1.01,.38-2.51,.84-4.49,1.38l-.44-2.18c.62-.12,1.27-.26,1.95-.42v-5.14h-1.56v-1.84h1.56v-3.65h2.32v3.65h1.29v1.84h-1.29v4.52c.51-.15,.95-.29,1.33-.41l.04,.57c.7-.66,1.26-1.26,1.66-1.81h-1.66v-1.71h11.71v1.71h-7.63c-.18,.3-.35,.56-.5,.77h7.64c0,1.45,0,2.46-.03,3.01s-.1,1.15-.25,1.8c-.15,.65-.42,1.12-.82,1.4s-.92,.42-1.56,.42h-1.69l-.27-1.87h1.2c.25,0,.46-.06,.65-.18s.32-.46,.41-1.02,.13-1.2,.13-1.94h-.23c-.99,2.04-2.56,3.73-4.72,5.06l-1.29-1.2c1.61-1.16,2.87-2.45,3.76-3.86h-1.04c-.57,.91-1.37,1.82-2.39,2.72s-1.98,1.59-2.87,2.05l-1.15-1.34c1.59-.93,2.96-2.08,4.09-3.44h-.95c-.67,.67-1.43,1.27-2.26,1.8l-.63-.69Zm11.31-5.93h-9.51v-5.72h9.51v5.72Zm-2.25-3.44v-.83h-5.03v.83h5.03Zm0,2v-.83h-5.03v.83h5.03Z"/><path class="cls-1" d="M104.59,654.04l-1.58,1.91c-.28-.28-1.42-1.16-3.44-2.63l.98-1.08h-3.13v-1.77h11.41v-.81h-10.27v-6.22h5.77v-.74h-6.75v-1.75h6.75v-.99h2.5v.99h6.99v1.75h-6.99v.74h5.94v6.22h-1.49v.81h2.77v1.77h-2.77v1.96c0,.54-.22,.96-.67,1.28-.45,.31-.97,.47-1.58,.47h-2.73l-.27-2.21h2.3c.33,0,.5-.15,.5-.45v-1.05h-6.8c1.31,.84,2.16,1.44,2.56,1.8Zm-3.64-8.14h3.38v-.95h-3.38v.95Zm3.38,1.28h-3.38v.97h3.38v-.97Zm2.5-1.28h3.56v-.95h-3.56v.95Zm3.56,1.28h-3.56v.97h3.56v-.97Z"/><path class="cls-1" d="M128.62,650.55h-3.44v5.19h-2.52v-5.19h-3.48c-.33,2.14-1.13,3.98-2.38,5.5l-1.85-1.24c1.32-1.79,1.98-4.22,1.98-7.29v-6.98h14.2v13.28c0,.53-.21,.97-.64,1.34-.43,.37-.94,.55-1.54,.55h-2.54l-.36-2.27h2c.38,0,.57-.14,.57-.43v-2.46Zm-9.25-1.99h3.3v-2.08h-3.26v.79c0,.39-.01,.82-.04,1.29Zm3.3-6.01h-3.26v2h3.26v-2Zm5.96,2v-2h-3.44v2h3.44Zm-3.44,4.01h3.44v-2.08h-3.44v2.08Z"/><path class="cls-1" d="M146.48,654.27h-9.69v1.32h-2.52v-14.2h14.74v14.22h-2.53v-1.34Zm-9.69-2.14h9.69v-8.66h-9.69v8.66Z"/></g><rect class="cls-15" x="811.28" y="595.64" width="106.29" height="15.56" transform="translate(679.87 -434.5) rotate(45)"/><g><path class="cls-1" d="M847.53,585.81c.38,1.08,.54,2.17,.49,3.28s-.34,2.31-.85,3.63l-1.49-.38c.61-1.39,.84-2.77,.7-4.13-.14-1.36-.65-2.63-1.53-3.79l-.85-.88-2.1,2.01-.98-1.01,3.32-3.21c.07,.07,.14,.14,.22,.22l.74,.77c.53,.54,1.06,.99,1.59,1.34,.53,.35,1.17,.63,1.91,.84,.74,.21,1.52,.31,2.34,.3,.81-.01,1.71-.13,2.68-.37l.12,1.79c-1.43,.24-2.65,.3-3.65,.21-1-.1-1.9-.3-2.68-.61Z"/><path class="cls-1" d="M855.25,597.87c-.31,.65-.81,1.57-1.51,2.74l-1.22-.84c.24-.34,.49-.71,.74-1.11l-2.38-2.46-.75,.72-.85-.88,.75-.72-1.69-1.75,1.11-1.08,1.69,1.75,.62-.6,.85,.88-.62,.6,2.09,2.17c.17-.31,.32-.58,.45-.81l.28,.26c.03-.64,.02-1.19-.04-1.64l-.8,.77-.79-.82,5.61-5.42,.79,.82-3.66,3.54c.05,.23,.09,.43,.12,.6l3.66-3.54c.67,.7,1.13,1.18,1.38,1.45,.25,.27,.49,.6,.71,.98,.23,.38,.31,.73,.25,1.05-.06,.32-.25,.63-.55,.93l-.81,.78-1-.77,.58-.56c.12-.11,.19-.24,.23-.39s-.06-.37-.27-.68-.5-.64-.84-.99l-.11,.11c.47,1.44,.5,2.97,.08,4.61l-1.18,.02c.24-1.3,.24-2.5,.02-3.59l-.5,.48c.14,.7,.18,1.51,.12,2.41-.07,.91-.21,1.68-.43,2.31l-1.17-.11c.33-1.19,.46-2.37,.37-3.54l-.46,.44c-.01,.63-.09,1.27-.25,1.91l-.62-.04Zm2.67-8.08l-4.56,4.41-2.65-2.74,4.56-4.41,2.65,2.74Zm-2.67-.61l-.38-.4-2.41,2.33,.38,.4,2.41-2.33Zm.93,.96l-.39-.4-2.41,2.33,.39,.4,2.41-2.33Z"/><path class="cls-1" d="M864.7,599.92c1.24,1.47,1.87,2.97,1.87,4.49s-.7,3.17-2.1,4.95l-1.35-.8c1.11-1.5,1.67-2.81,1.69-3.92,.02-1.11-.45-2.27-1.4-3.46l-2.2,2.12c.21,1.24,.12,2.56-.25,3.95l-1.53-.21c.5-2.26,.13-4.4-1.1-6.44l1.39-1.06c.44,.72,.78,1.4,1.02,2.05l4.96-4.79,1.07,1.11-2.09,2.02Zm-.59-2.33l-.39,.83c-.77-.34-1.38-.59-1.83-.74l.37-.81c.67,.22,1.29,.46,1.85,.72Zm1.09-1.36l-.39,.81c-.67-.3-1.28-.55-1.83-.74l.37-.77c.66,.22,1.27,.45,1.85,.7Z"/><path class="cls-1" d="M876.41,614.83l-1.12,1.08-7.48-7.74,1.12-1.08,7.48,7.74Z"/><path class="cls-1" d="M884.81,616.91l.17,1.77c-1.98,.34-3.83,.92-5.54,1.71l3.97,4.11-1.33,1.28-7.35-7.6,1.34-1.29,2.17,2.25c1.86-.92,4.05-1.66,6.56-2.23Z"/></g><g><path class="cls-1" d="M638.47,243.33h-7.77v-1.62c1.96-1.5,3.28-2.65,3.96-3.46,.68-.81,1.01-1.53,1.01-2.16,0-.5-.16-.89-.49-1.17-.33-.28-.77-.41-1.34-.41-.87,0-1.77,.31-2.71,.92h-.17v-1.96c1.13-.43,2.21-.65,3.23-.65,1.22,0,2.15,.27,2.81,.8,.66,.53,.99,1.28,.99,2.23,0,.74-.27,1.52-.8,2.34-.54,.82-1.78,1.98-3.74,3.48h5v1.66Z"/><path class="cls-1" d="M654.71,239.23c0,1.05-.05,1.91-.15,2.57-.1,.66-.24,1.12-.4,1.37-.17,.25-.38,.46-.66,.61-.27,.16-.53,.25-.78,.28s-.88,.05-1.9,.05h-.95l-.25-1.68h2.02c.35,0,.6-.1,.76-.31,.16-.21,.26-.71,.28-1.52h-6.19l-.16,.66h-1.92l.68-2.95h-1.96v-1.42h12.92v1.42h-9l-.21,.94h7.88Zm-.1-3.19h-10.04v-3.82h10.04v3.82Zm-1.86-1.29v-1.2h-6.32v1.2h6.32Z"/><path class="cls-1" d="M661.19,242.96c-1.09,.39-2.42,.75-3.98,1.07l-.38-1.54,.87-.16v-6.41l-.18,.15-.8-1.12c1.22-.99,2.08-2.06,2.58-3.21,.58,0,1.02,0,1.3,0s.41,0,.41,0c.44,.73,1.01,1.36,1.71,1.89v-.8h2.93v-1.22h1.74v1.22h2.91v2.84h-1.09v2.88h-4.03v.88h4.48v4.51h-1.76v-.48h-2.7v.46h-1.74v-8.28h-.72v-1.25l-.53,.7c-.66-.37-1.3-1.05-1.93-2.02-.37,.69-.92,1.37-1.64,2.04h.9v-.81h1.37v.81h1.6v4.9h-3.15v1.96c.58-.12,1.05-.23,1.4-.33-.13-.35-.28-.72-.45-1.11l1.46-.45c.31,.57,.73,1.65,1.26,3.25l-1.54,.47c-.08-.31-.17-.61-.26-.89Zm-1.87-5.87h1.52v-.81h-1.52v.81Zm1.52,.99h-1.52v.83h1.52v-.83Zm3.28-3.13h4.72v-.75h-4.72v.75Zm3.42,2.42v-1.19h-2.37v1.19h2.37Zm.32,4.72v-1.34h-2.69v1.34h2.69Z"/></g><g><path class="cls-1" d="M772.1,113.48l-.51-1.29h-1.72v-1.43h4.81v-1.11h1.94v1.11h4.83v1.43h-1.72l-.69,1.29h2.88v1.46h-12.56v-1.46h2.74Zm6.6,8h-6.2v.53h-1.89v-6.4h9.99v6.38h-1.91v-.52Zm0-3.63v-.9h-6.2v.9h6.2Zm-6.2,2.24h6.2v-.96h-6.2v.96Zm1.08-7.9l.54,1.29h2.98l.6-1.29h-4.12Z"/><path class="cls-1" d="M785.54,113.61c-.95,.2-1.73,.34-2.33,.42l-.13-1.02c.13,0,.43-.03,.89-.07,.09-.09,.23-.23,.41-.43l-1.33-1.24,.76-.88c.08,.06,.16,.12,.23,.18,.35-.37,.62-.72,.81-1.03l1.16,.38c-.4,.44-.82,.87-1.26,1.29l.42,.38c.44-.53,.75-.94,.92-1.22l1.13,.44c-.29,.42-.88,1.08-1.76,1.98l.79-.08c.1-.17,.2-.4,.3-.67l1.1,.3c-.16,.75-.61,1.44-1.35,2.05-.74,.62-1.59,1.03-2.56,1.24l-.43-.95c1.01-.33,1.75-.69,2.22-1.08Zm.48,3.52l-.38-.6h-1.63v-.94h4.76v-.51h1.87v.51h4.76v.94h-1.73l-.47,.6h2.99v.92h-13.02v-.92h2.84Zm7,4.61h-6.83v.32h-1.87v-3.57h10.61v3.55h-1.91v-.31Zm0-1.99v-.51h-6.83v.51h6.83Zm-6.83,1.2h6.83v-.53h-6.83v.53Zm4.4-6.31c-.45,.1-1.65,.27-3.6,.51l-.2-1.05,.9-.08v-4.07h3.88v2.96h-2.52v.97l1.09-.13c-.06-.11-.15-.27-.27-.48l1.09-.31c.31,.54,.68,1.16,1.1,1.85l-1.22,.35-.26-.53Zm-3.12,1.89l.38,.6h3.57l.4-.6h-4.34Zm2.79-5.36v-.49h-1.22v.49h1.22Zm0,1.07v-.55h-1.22v.55h1.22Zm3.57,2.78l-.19-1.11h.67c.35,0,.52-.19,.52-.57,0-.28-.31-.61-.93-.99-.09-.05-.13-.12-.13-.2,0-.05,.02-.12,.06-.18,.26-.43,.45-.8,.56-1.12h-.84v4.53h-1.43v-5.42h3.59l.36,.32c-.11,.36-.43,.93-.94,1.7,.27,.1,.51,.31,.72,.62,.21,.31,.31,.62,.31,.93,0,1.01-.53,1.51-1.59,1.51h-.75Z"/><path class="cls-1" d="M767.46,134.87c-.25,.13-.67,.29-1.23,.49v4.75h-1.78v-4.18c-.96,.29-1.69,.48-2.19,.59l-.36-1.65c.61-.1,1.46-.29,2.55-.58v-2.58h-.65c-.17,.88-.38,1.54-.63,1.99l-1.34-.48c.21-.52,.4-1.24,.54-2.14,.15-.9,.22-1.84,.22-2.82l1.54,.06c0,.65-.04,1.28-.11,1.9h.42v-2.47h1.78v2.47h.99v1.48h-.99v2.08c.44-.14,.76-.25,.98-.36l.25,1.46Zm6.56,3.6c0,.48-.16,.86-.49,1.13s-.76,.4-1.32,.4h-1.67l-.22-1.71h1.39c.29,0,.44-.14,.44-.41v-2.25h-4.58v-1.44h4.58v-1.07h-4.9v-1.51h3.11v-1.12h-2.58v-1.46h2.58v-1.37h1.89v1.37h2.59v1.46h-2.59v1.12h3.08v1.51h-1.32v1.07h1.04v1.44h-1.04v2.84Zm-3.13-.53l-1.57,.85c-.35-.53-.92-1.31-1.71-2.34l1.48-.79c.77,.83,1.37,1.59,1.8,2.28Z"/><path class="cls-1" d="M781.34,130.75c-.01,1.85-.22,3.34-.61,4.45-.39,1.11-.9,2.08-1.51,2.89s-1.34,1.48-2.18,1.99l-.88-1.09c1.06-.82,1.92-1.9,2.56-3.25-.39-.32-.77-.61-1.12-.86-.18,.34-.38,.67-.59,1l-1.2-.84c.36-.64,.72-1.47,1.06-2.51,.34-1.03,.58-2.03,.71-2.98h-1.22v-1.39h5.26v1.39h-2.37c-.05,.37-.12,.77-.22,1.2h2.3Zm-2.07,3.58c.21-.72,.34-1.5,.4-2.34h-.94c-.16,.57-.34,1.11-.55,1.62l1.09,.72Zm5.11,2.42c-.81,1.1-1.67,2-2.6,2.7l-1.08-1.16c1.24-1.03,2.3-2.31,3.18-3.85h-2.46v-1.6h2.94v-1.67h-.96c-.16,.44-.38,.89-.65,1.35l-1.4-.53c.27-.53,.51-1.17,.71-1.91,.2-.74,.32-1.43,.36-2.06l1.67,.1c-.06,.57-.14,1.07-.23,1.5h.51v-1.95h1.86v1.95h2.54v1.57h-2.54v1.67h2.87v1.6h-2.45c.24,.43,.58,.94,1,1.52s1.05,1.28,1.87,2.08l-1.22,1.44c-.77-.77-1.48-1.71-2.13-2.81v3.34h-1.79v-3.27Z"/><path class="cls-1" d="M791.8,135.56c-.29,.62-.64,1.21-1.03,1.79l-1-1.03c.42-.6,.82-1.35,1.21-2.27,.39-.92,.64-1.71,.76-2.38h-1.41v-1.39h1.47v-2.65h1.68v2.65h1.07v1.39h-1.07v.99c.19,.25,.64,.67,1.33,1.25l-.62,1.39c-.21-.16-.44-.39-.72-.7v5.51h-1.68v-4.56Zm6.12,1.59c-.86,.98-1.84,1.81-2.94,2.47l-.92-1.26c.38-.24,.76-.51,1.13-.82,.37-.3,1.01-.98,1.93-2.04h-2.06v-4.87h2.86v-.69h-3.32v-1.43h3.32v-.9h1.78v.9h3.4v1.43h-3.4v.69h2.91v4.87h-2.23c.95,1.18,1.97,2.1,3.06,2.76l-1.15,1.39c-.89-.57-1.76-1.41-2.59-2.5v2.93h-1.78v-2.94Zm-1.13-4.59h1.13v-.74h-1.13v.74Zm1.13,1h-1.13v.77h1.13v-.77Zm1.78-1h1.16v-.74h-1.16v.74Zm1.16,1h-1.16v.77h1.16v-.77Z"/></g><g><path class="cls-1" d="M843.53,101.9v-1.94h.22c1.04,.6,2.02,.9,2.93,.9,.72,0,1.28-.15,1.69-.45,.41-.3,.61-.74,.61-1.31,0-.46-.16-.81-.47-1.06-.32-.25-.97-.37-1.97-.37h-.6v-1.55h.57c1.53,0,2.3-.47,2.3-1.4,0-.39-.16-.69-.49-.89-.33-.2-.79-.3-1.4-.3-.82,0-1.77,.29-2.87,.88h-.21v-1.92c1.16-.43,2.27-.65,3.34-.65,1.27,0,2.22,.23,2.88,.7,.65,.46,.97,1.08,.97,1.85,0,.57-.18,1.08-.54,1.51-.36,.43-.84,.72-1.44,.86v.1c.69,.12,1.23,.39,1.63,.8,.4,.41,.6,.94,.6,1.6,0,1-.38,1.8-1.15,2.41s-1.8,.9-3.11,.9-2.43-.22-3.49-.65Z"/><path class="cls-1" d="M867.71,98.23c0,1.05-.05,1.91-.15,2.57-.1,.66-.24,1.12-.4,1.37-.17,.25-.38,.46-.66,.61-.27,.16-.53,.25-.78,.28s-.88,.05-1.9,.05h-.95l-.25-1.68h2.02c.35,0,.6-.1,.76-.31,.16-.21,.26-.71,.28-1.52h-6.19l-.16,.66h-1.92l.68-2.95h-1.96v-1.42h12.92v1.42h-9l-.21,.94h7.88Zm-.1-3.19h-10.04v-3.82h10.04v3.82Zm-1.86-1.29v-1.2h-6.32v1.2h6.32Z"/><path class="cls-1" d="M874.19,101.96c-1.09,.39-2.42,.75-3.98,1.07l-.38-1.54,.87-.16v-6.41l-.18,.15-.8-1.12c1.22-.99,2.08-2.06,2.58-3.21,.58,0,1.02,0,1.3,0s.41,0,.41,0c.44,.73,1.01,1.36,1.71,1.89v-.8h2.93v-1.22h1.74v1.22h2.91v2.84h-1.09v2.88h-4.03v.88h4.48v4.51h-1.76v-.48h-2.7v.46h-1.74v-8.28h-.72v-1.25l-.53,.7c-.66-.37-1.3-1.05-1.93-2.02-.37,.69-.92,1.37-1.64,2.04h.9v-.81h1.37v.81h1.6v4.9h-3.15v1.96c.58-.12,1.05-.23,1.4-.33-.13-.35-.28-.72-.45-1.11l1.46-.45c.31,.57,.73,1.65,1.26,3.25l-1.54,.47c-.08-.31-.17-.61-.26-.89Zm-1.87-5.87h1.52v-.81h-1.52v.81Zm1.52,.99h-1.52v.83h1.52v-.83Zm3.28-3.13h4.72v-.75h-4.72v.75Zm3.42,2.42v-1.19h-2.37v1.19h2.37Zm.32,4.72v-1.34h-2.69v1.34h2.69Z"/></g><g><path class="cls-1" d="M826.68,460.9c-.09,.21-.2,.41-.33,.62h3.04v1.15h-1.59l.47,.77-1.62,.31-.57-1.08h-.58c-.38,.44-.82,.85-1.31,1.23l-1.33-.7c.82-.7,1.49-1.54,2.02-2.54l1.8,.24Zm6.1,.04l-.3,.57h3.71v1.15h-1.9l.51,.7-1.7,.28-.62-.98h-.81c-.32,.37-.61,.66-.86,.87l-.27-.12v.61h5.46v2.43h-1.63v-1.33h-9.39v.64h9.03v2.87h-7.33v.78h8.43v3.62h-1.85v-.38h-6.56v.38h-1.92v-6.49h-1.42v-2.52h5.33v-.79h1.44l-.72-.31c.62-.67,.99-1.11,1.12-1.3s.31-.51,.55-.96l1.72,.27Zm-.55,6.71v-.9h-5.53v.9h5.53Zm1.02,3.9v-1.05h-6.55v1.05h6.55Z"/><path class="cls-1" d="M841.55,469.86c-1.03,.41-2.46,.83-4.31,1.29l-.39-1.55,1.67-.4v-2.85h-1.31v-1.42h1.31v-2.2h-1.31v-1.41h4.35v1.41h-1.25v2.2h1.13v1.42h-1.13v2.36c.54-.16,.98-.31,1.32-.44l.07,.62h3.11v-.98h-2.94v-6.96h7.77v6.96h-2.91v.98h3.08v1.47h-3.08v1.03h3.52v1.51h-9.15v-1.51h3.71v-1.03h-3.26v-.49Zm2.15-6.13h1.11v-1.33h-1.11v1.33Zm1.11,1.3h-1.11v1.4h1.11v-1.4Zm1.91-1.3h1.07v-1.33h-1.07v1.33Zm1.07,1.3h-1.07v1.4h1.07v-1.4Z"/><path class="cls-1" d="M852.8,468.56c-.29,.62-.64,1.21-1.03,1.79l-1-1.03c.42-.6,.82-1.35,1.21-2.27,.39-.92,.64-1.71,.76-2.38h-1.41v-1.39h1.47v-2.65h1.68v2.65h1.07v1.39h-1.07v.99c.19,.25,.64,.67,1.33,1.25l-.62,1.39c-.21-.16-.44-.39-.72-.7v5.51h-1.68v-4.56Zm6.12,1.59c-.86,.98-1.84,1.81-2.94,2.47l-.92-1.26c.38-.24,.76-.51,1.13-.82,.37-.3,1.01-.98,1.93-2.04h-2.06v-4.87h2.86v-.69h-3.32v-1.43h3.32v-.9h1.78v.9h3.4v1.43h-3.4v.69h2.91v4.87h-2.23c.95,1.18,1.97,2.1,3.06,2.76l-1.15,1.39c-.89-.57-1.76-1.41-2.59-2.5v2.93h-1.78v-2.94Zm-1.13-4.59h1.13v-.74h-1.13v.74Zm1.13,1h-1.13v.77h1.13v-.77Zm1.78-1h1.16v-.74h-1.16v.74Zm1.16,1h-1.16v.77h1.16v-.77Z"/></g><g><path class="cls-5" d="M716.11,463.98h-2.13v.9h-1.48v-9.47h3.61v8.58Zm-1.43-1.29v-6.05h-.7v6.05h.7Zm5.13,3.05c-.49,.28-1.13,.56-1.94,.84-.8,.28-1.49,.45-2.07,.52l-.55-1.31c1-.19,1.96-.48,2.86-.88h-1.34v-5.43h.88v-.55h-1.31v-1.26h1.31v-.63h1.63v.63h2.63v-.68h1.67v.68h1.58v1.26h-1.58v.55h.92v5.43h-1.57c.71,.28,1.59,.53,2.65,.77l-.87,1.4c-.99-.27-1.72-.5-2.18-.7-.47-.2-.92-.43-1.36-.7l.65-.77h-2.73l.7,.83Zm1.67-8.37h-1.75v-.66h-2.98v-1.33h2.98v-.76h1.75v.76h3.3v1.33h-3.3v.66Zm1.27,3.71v-.57h-4.22v.57h4.22Zm-4.22,1.37h4.22v-.63h-4.22v.63Zm4.22,.75h-4.22v.66h4.22v-.66Zm-3.46-3.73h2.63v-.55h-2.63v.55Z"/><path class="cls-5" d="M731.65,458.27c-.21,1.59-.75,3.11-1.63,4.58-.88,1.47-1.98,2.6-3.28,3.39l-1.02-1.33c.87-.61,1.64-1.42,2.32-2.43s1.16-2.04,1.42-3.1h-2.79v-1.63h4.54l.44,.51Zm2.13,7.24c0,.42-.18,.78-.55,1.08s-.77,.44-1.2,.44h-2.23s-.24-1.82-.24-1.82h1.81c.1,0,.19-.05,.29-.14s.14-.18,.14-.26v-10.05h1.96v3.27c.2,.45,.41,.88,.64,1.28,1.22-.99,2.24-1.96,3.04-2.88l1.47,1.37c-.86,.91-2.05,1.88-3.58,2.91,.54,.69,1.2,1.39,2,2.11s1.54,1.26,2.26,1.65l-1.28,1.67c-1.02-.67-1.92-1.43-2.7-2.28-.79-.86-1.4-1.67-1.83-2.45v4.11Z"/></g><g><path class="cls-5" d="M724.28,221.71c0,2.32-.35,4.29-1.06,5.92-.71,1.63-1.86,2.88-3.44,3.77s-3.5,1.43-5.74,1.63l-.55-1.83c1.91-.2,3.51-.63,4.8-1.31,1.29-.68,2.2-1.52,2.73-2.52,.54-1,.88-2.3,1.03-3.9h-8.64v-1.76h10.88Z"/><path class="cls-5" d="M738.34,224.8c-.01,1.25-.23,2.43-.65,3.53-.42,1.1-1.1,2.02-2.04,2.75-.94,.73-2.01,1.23-3.21,1.5-1.2,.27-2.44,.42-3.74,.46l-.4-1.78c2.54-.14,4.39-.57,5.54-1.29s1.9-1.85,2.23-3.39h-9.08v-1.79h11.35Zm-.53-1.47h-10.4v-1.72h10.4v1.72Z"/><path class="cls-5" d="M748.53,232.99h-2.1v-6.2c-1.7,.87-3.59,1.56-5.68,2.06l-.63-1.79c2.41-.57,4.5-1.42,6.28-2.54s3.12-2.4,4.04-3.85l1.99,.76c-.7,1.05-1.35,1.87-1.96,2.45s-1.25,1.12-1.94,1.6v7.51Z"/><path class="cls-5" d="M759.47,221.37c-.04,2.17-.19,3.84-.45,5.03-.26,1.19-.72,2.34-1.4,3.46-.68,1.12-1.53,2.15-2.55,3.1l-1.39-1.31c.84-.81,1.5-1.6,1.96-2.37,.46-.77,.86-1.68,1.2-2.73s.53-2.79,.57-5.24l2.06,.06Zm8.03,10.08l-1.54,1.43c-1.03-1.08-1.84-2.26-2.4-3.57-.57-1.3-.97-2.64-1.2-4-.23-1.37-.35-2.53-.35-3.5v-.46s2.07-.04,2.07-.04v.23c0,1.9,.24,3.64,.71,5.24,.48,1.6,1.38,3.16,2.7,4.68Zm.01-9.75c0,.42-.15,.77-.44,1.05-.29,.28-.66,.41-1.1,.41s-.81-.14-1.1-.41c-.29-.28-.44-.63-.44-1.05s.15-.77,.44-1.05c.29-.28,.66-.41,1.1-.41s.81,.14,1.1,.41c.29,.28,.44,.63,.44,1.05Zm-.92-.62c-.17-.17-.37-.25-.62-.25s-.45,.08-.62,.25c-.17,.17-.25,.37-.25,.62s.08,.45,.25,.62c.17,.17,.37,.25,.62,.25s.45-.08,.62-.25c.17-.17,.25-.37,.25-.62s-.08-.45-.25-.62Z"/><path class="cls-5" d="M775.7,224.24l-1.25,1.7c-.67-.43-1.27-.8-1.79-1.09-.52-.3-1.7-.91-3.54-1.83l1.08-1.57c1.43,.57,3.27,1.5,5.5,2.8Zm5.54,1.67c-1.16,2.14-2.67,3.77-4.53,4.89s-4.22,1.82-7.08,2.1l-.46-1.91c1.56-.14,2.86-.38,3.9-.71s1.95-.77,2.73-1.31c.78-.54,1.45-1.09,2-1.65,.55-.56,1.15-1.39,1.81-2.5l1.64,1.09Z"/><path class="cls-5" d="M711.23,248.21h-10.3v1.78c0,3.4-.59,5.93-1.76,7.57l-1.42-.87c.32-.53,.62-1.4,.9-2.61s.41-2.47,.41-3.76v-3.58h5.12v-1.43h1.93v1.43h5.12v1.47Zm-2.34,8.48c-2.55,.32-5.29,.56-8.21,.72l-.28-1.65c.27,0,.77-.03,1.5-.07,.51-1.14,1.03-2.45,1.53-3.93,.51-1.48,.8-2.52,.89-3.12l2.02,.31c-.63,2.27-1.46,4.48-2.48,6.62,1.78-.12,3.21-.23,4.29-.33-.71-1.32-1.22-2.22-1.55-2.71l1.62-.79c.25,.35,.76,1.15,1.5,2.41s1.24,2.18,1.46,2.78l-1.94,.6c-.02-.12-.14-.4-.35-.83Z"/><path class="cls-5" d="M715.62,254.43c-.79,.3-1.95,.65-3.49,1.07l-.34-1.7c.48-.09,.98-.2,1.52-.33v-4h-1.21v-1.43h1.21v-2.84h1.8v2.84h1v1.43h-1v3.51c.4-.12,.74-.23,1.03-.32l.03,.44c.55-.51,.98-.98,1.29-1.41h-1.29v-1.33h9.11v1.33h-5.93c-.14,.23-.27,.43-.39,.6h5.94c0,1.13,0,1.91-.02,2.34s-.08,.9-.2,1.4c-.12,.51-.33,.87-.64,1.09s-.72,.33-1.22,.33h-1.31l-.21-1.46h.94c.19,0,.36-.05,.51-.14,.15-.09,.25-.36,.32-.79,.07-.43,.1-.94,.1-1.51h-.18c-.77,1.59-1.99,2.9-3.67,3.94l-1-.94c1.25-.9,2.23-1.9,2.93-3h-.81c-.45,.71-1.07,1.41-1.86,2.12s-1.54,1.24-2.24,1.59l-.9-1.04c1.24-.72,2.3-1.62,3.18-2.67h-.74c-.52,.52-1.11,.99-1.76,1.4l-.49-.54Zm8.8-4.61h-7.4v-4.45h7.4v4.45Zm-1.75-2.67v-.64h-3.91v.64h3.91Zm0,1.56v-.65h-3.91v.65h3.91Z"/><path class="cls-5" d="M733.99,251.77c0,.39-.14,.72-.41,.99s-.6,.41-.99,.41-.72-.14-.99-.41-.41-.6-.41-.99,.14-.72,.41-.99,.6-.41,.99-.41,.72,.14,.99,.41,.41,.6,.41,.99Z"/><path class="cls-5" d="M753.38,256.13l-1.54,1.47c-.81-.88-2.37-2.31-4.68-4.3-2.02,1.96-4.16,3.4-6.4,4.34l-1-1.61c1.74-.74,3.44-1.84,5.09-3.29,1.65-1.45,2.87-3.05,3.66-4.79h-6.92v-1.8h8.98l.56,.54c-.33,1.16-.7,2.11-1.12,2.85-.42,.74-.94,1.51-1.58,2.3,1.97,1.6,3.62,3.03,4.94,4.29Z"/><path class="cls-5" d="M767.04,251.49h-5v.21c0,1.6-.51,2.9-1.53,3.91-1.02,1.01-2.45,1.68-4.3,2.02l-.62-1.7c1.39-.29,2.47-.79,3.22-1.5,.75-.71,1.12-1.59,1.12-2.64v-.31h-5.66v-1.76h12.76v1.76Zm-.84-3.55h-11.09v-1.75h11.09v1.75Z"/><path class="cls-5" d="M780.98,252.57h-12.56v-1.82h12.56v1.82Z"/><path class="cls-5" d="M789.16,250.91l-.93,1.72c-1.01-.44-1.84-.77-2.5-1-.65-.22-1.74-.55-3.26-.98l.78-1.61c.95,.2,1.82,.42,2.6,.67,.78,.25,1.89,.65,3.31,1.2Zm6.12-.53c-1.16,2.16-2.7,3.81-4.64,4.95-1.94,1.14-4.26,1.84-6.97,2.09l-.45-1.83c2.33-.24,4.34-.81,6.02-1.7,1.68-.89,3.12-2.35,4.33-4.38l1.71,.87Zm-4.79-2.82l-.96,1.71c-.5-.22-1.01-.44-1.54-.66s-.96-.38-1.29-.49l-2.87-.92,.8-1.58c1.45,.32,3.41,.97,5.87,1.94Zm2.45,.6l-1,.38c-.36-.91-.68-1.61-.94-2.1l.96-.38c.38,.73,.71,1.43,.97,2.1Zm1.94-.39l-.98,.36c-.32-.8-.63-1.5-.94-2.1l.94-.35c.35,.67,.67,1.37,.98,2.08Z"/></g><g><path class="cls-1" d="M485.96,243.94v-1.96h.23c1,.58,1.94,.88,2.82,.88,1.53,0,2.3-.62,2.3-1.85,0-.52-.21-.93-.64-1.21s-1.05-.42-1.88-.42c-.57,0-1.29,.1-2.17,.31h-.25v-5.65h7v1.67h-4.88v2.11c.52-.03,.91-.05,1.16-.05,1.29,0,2.26,.28,2.94,.84,.67,.56,1.01,1.33,1.01,2.31,0,1.08-.39,1.96-1.16,2.63-.77,.67-1.83,1-3.15,1-1.22,0-2.32-.21-3.32-.62Z"/><path class="cls-1" d="M508.74,240.23c0,1.05-.05,1.91-.15,2.57-.1,.66-.24,1.12-.4,1.37-.17,.25-.38,.46-.66,.61-.27,.16-.53,.25-.78,.28s-.88,.05-1.9,.05h-.95l-.25-1.68h2.02c.35,0,.6-.1,.76-.31,.16-.21,.26-.71,.28-1.52h-6.19l-.16,.66h-1.92l.68-2.95h-1.96v-1.42h12.92v1.42h-9l-.21,.94h7.88Zm-.1-3.19h-10.04v-3.82h10.04v3.82Zm-1.86-1.29v-1.2h-6.32v1.2h6.32Z"/><path class="cls-1" d="M515.21,243.96c-1.09,.39-2.42,.75-3.98,1.07l-.38-1.54,.87-.16v-6.41l-.18,.15-.8-1.12c1.22-.99,2.08-2.06,2.58-3.21,.58,0,1.02,0,1.3,0s.41,0,.41,0c.44,.73,1.01,1.36,1.71,1.89v-.8h2.93v-1.22h1.74v1.22h2.91v2.84h-1.09v2.88h-4.03v.88h4.48v4.51h-1.76v-.48h-2.7v.46h-1.74v-8.28h-.72v-1.25l-.53,.7c-.66-.37-1.3-1.05-1.93-2.02-.37,.69-.92,1.37-1.64,2.04h.9v-.81h1.37v.81h1.6v4.9h-3.15v1.96c.58-.12,1.05-.23,1.4-.33-.13-.35-.28-.72-.45-1.11l1.46-.45c.31,.57,.73,1.65,1.26,3.25l-1.54,.47c-.08-.31-.17-.61-.26-.89Zm-1.87-5.87h1.52v-.81h-1.52v.81Zm1.52,.99h-1.52v.83h1.52v-.83Zm3.28-3.13h4.72v-.75h-4.72v.75Zm3.42,2.42v-1.19h-2.37v1.19h2.37Zm.32,4.72v-1.34h-2.69v1.34h2.69Z"/></g><g><path class="cls-1" d="M473.65,442.86l-4.68,8.47h-2.46l4.89-8.63h-5.54v-1.67h7.79v1.83Z"/><path class="cls-1" d="M488.74,447.23c0,1.05-.05,1.91-.15,2.57-.1,.66-.24,1.12-.4,1.37-.17,.25-.38,.46-.66,.61-.27,.16-.53,.25-.78,.28s-.88,.05-1.9,.05h-.95l-.25-1.68h2.02c.35,0,.6-.1,.76-.31,.16-.21,.26-.71,.28-1.52h-6.19l-.16,.66h-1.92l.68-2.95h-1.96v-1.42h12.92v1.42h-9l-.21,.94h7.88Zm-.1-3.19h-10.04v-3.82h10.04v3.82Zm-1.86-1.29v-1.2h-6.32v1.2h6.32Z"/><path class="cls-1" d="M495.21,450.96c-1.09,.39-2.42,.75-3.98,1.07l-.38-1.54,.87-.16v-6.41l-.18,.15-.8-1.12c1.22-.99,2.08-2.06,2.58-3.21,.58,0,1.02,0,1.3,0s.41,0,.41,0c.44,.73,1.01,1.36,1.71,1.89v-.8h2.93v-1.22h1.74v1.22h2.91v2.84h-1.09v2.88h-4.03v.88h4.48v4.51h-1.76v-.48h-2.7v.46h-1.74v-8.28h-.72v-1.25l-.53,.7c-.66-.37-1.3-1.05-1.93-2.02-.37,.69-.92,1.37-1.64,2.04h.9v-.81h1.37v.81h1.6v4.9h-3.15v1.96c.58-.12,1.05-.23,1.4-.33-.13-.35-.28-.72-.45-1.11l1.46-.45c.31,.57,.73,1.65,1.26,3.25l-1.54,.47c-.08-.31-.17-.61-.26-.89Zm-1.87-5.87h1.52v-.81h-1.52v.81Zm1.52,.99h-1.52v.83h1.52v-.83Zm3.28-3.13h4.72v-.75h-4.72v.75Zm3.42,2.42v-1.19h-2.37v1.19h2.37Zm.32,4.72v-1.34h-2.69v1.34h2.69Z"/></g><g><path class="cls-1" d="M686.48,577.29c-.45-.33-.84-.6-1.18-.83-.81,.46-1.62,.87-2.43,1.22l-.91-1.36c.79-.33,1.63-.78,2.53-1.33,.9-.55,1.58-1.03,2.03-1.42,.45-.39,.89-.83,1.3-1.31l1.87,.38c-.14,.22-.29,.44-.46,.66h3.07l.67,.77c-.96,1.39-2.39,2.68-4.29,3.84-1.9,1.17-3.91,2.05-6.04,2.66l-.66-1.46c1.63-.5,3.13-1.11,4.49-1.83Zm9.09,1.51c-2.02,3.66-6.04,5.78-12.06,6.36l-.46-1.59c2.35-.25,4.35-.75,6.01-1.5-.22-.16-.67-.46-1.35-.92-1.03,.54-2.05,.98-3.07,1.33l-.72-1.4c1.32-.48,2.64-1.13,3.97-1.96,1.32-.83,2.32-1.64,2.98-2.42l1.76,.42c-.15,.25-.34,.5-.57,.77h2.78l.73,.91Zm-8.78-3.26c.49,.32,.91,.6,1.24,.83,.78-.51,1.49-1.06,2.13-1.65h-2.26c-.31,.25-.69,.52-1.11,.81Zm3.96,5.63c.91-.57,1.63-1.19,2.15-1.84h-2.33c-.37,.29-.79,.58-1.26,.88l1.44,.96Z"/><path class="cls-1" d="M699.55,579.18c-.26,.97-.59,1.99-.97,3.07-.39,1.08-.71,1.84-.98,2.28l-1.64-.94c.65-.99,1.3-2.65,1.95-4.96l1.65,.55Zm.2-2.93l-1.71,.85c-.07-.14-.71-1.15-1.9-3.03l1.59-.83c.29,.31,.96,1.31,2.02,3Zm4.98-.04c0,.66,0,1.11-.03,1.34,.1,1.12,.59,2.21,1.47,3.27s1.97,1.89,3.27,2.48l-1.18,1.65c-.96-.5-1.82-1.12-2.56-1.86s-1.33-1.51-1.74-2.32c-.42,.94-1.04,1.79-1.86,2.55-.82,.75-1.72,1.32-2.71,1.71l-.9-1.39c.91-.46,1.65-.97,2.24-1.53s1.03-1.16,1.33-1.8c.3-.64,.49-1.25,.56-1.82,.07-.57,.11-1.33,.11-2.3h1.99Zm-1.23-3.42c-.14,.55-.29,1.08-.47,1.58h5.58l.51,.44c-.16,.64-.42,1.39-.79,2.24-.37,.85-.7,1.5-.99,1.96l-1.68-.31c.57-1.26,.94-2.2,1.12-2.82h-4.35c-.51,1.13-1.13,2.14-1.85,3.01l-1.52-.9c.65-.87,1.19-1.83,1.62-2.88,.43-1.05,.71-1.92,.84-2.61l1.99,.28Z"/><path class="cls-1" d="M715.69,579.1c-.05,1.67-.5,2.99-1.33,3.96-.83,.97-2.05,1.64-3.66,1.99l-.65-1.47c1.38-.37,2.34-.92,2.88-1.64,.54-.72,.83-1.67,.87-2.84h-3.3v-1.54h12.41v1.54h-3.85v3.79c0,.16,.06,.26,.19,.31s.43,.08,.9,.08c.42,0,.69-.02,.81-.07s.2-.11,.25-.18,.09-.27,.12-.57,.05-.78,.05-1.43l1.61,.24v2.1c0,.41-.14,.75-.42,1.02-.28,.28-.62,.43-1,.46-.38,.03-.89,.05-1.52,.05s-1.15-.02-1.55-.07c-.41-.05-.73-.2-.98-.47-.24-.27-.37-.62-.37-1.05v-4.2h-1.48Zm6.25-4.01h-10.55v-1.51h10.55v1.51Z"/><path class="cls-1" d="M736.39,578.99h-4.92v.4c0,1.47-.49,2.71-1.5,3.7s-2.44,1.68-4.32,2.06l-.62-1.71c1.39-.29,2.47-.79,3.22-1.5,.75-.71,1.12-1.59,1.12-2.64v-.31h-5.52v-1.76h12.53v1.76Zm-2.17-3.55h-9.6v-1.74h9.6v1.74Zm1.43-1.11l-.98,.38c-.18-.57-.48-1.27-.91-2.1l.92-.39c.37,.72,.69,1.43,.96,2.11Zm1.92-.25l-.96,.36c-.32-.8-.63-1.5-.94-2.1l.91-.35c.37,.72,.7,1.41,.98,2.08Z"/><path class="cls-1" d="M748.21,576.01h2.59v1.79h-2.59v1.18c0,1.93-.69,3.42-2.07,4.45s-3.39,1.58-6.04,1.63l-.29-1.8c2.39-.08,4.04-.5,4.97-1.27,.92-.76,1.39-1.77,1.39-3.01v-1.18h-4.12v3.23h-2.06v-3.23h-2.13v-1.79h2.13v-2.82h2.06v2.82h4.12v-2.94h1.91c-.08-.17-.14-.31-.19-.4l.9-.36c.37,.72,.69,1.43,.96,2.11l-.95,.38c-.12-.31-.31-.79-.59-1.44v2.65Zm3.43-1.95l-.95,.36c-.3-.75-.62-1.45-.94-2.1l.92-.35c.35,.67,.67,1.37,.98,2.08Z"/><path class="cls-1" d="M760.53,584.99h-2.1v-6.2c-1.7,.87-3.59,1.56-5.68,2.06l-.63-1.79c2.41-.57,4.5-1.42,6.28-2.54s3.12-2.4,4.04-3.85l1.99,.76c-.7,1.05-1.35,1.87-1.96,2.45s-1.25,1.12-1.94,1.6v7.51Z"/><path class="cls-1" d="M773.7,576.24l-1.25,1.7c-.67-.43-1.27-.8-1.79-1.09-.52-.3-1.7-.91-3.54-1.83l1.08-1.57c1.43,.57,3.27,1.5,5.5,2.8Zm5.54,1.67c-1.16,2.14-2.67,3.77-4.53,4.89s-4.22,1.82-7.08,2.1l-.46-1.91c1.56-.14,2.86-.38,3.9-.71s1.95-.77,2.73-1.31c.78-.54,1.45-1.09,2-1.65,.55-.56,1.15-1.39,1.81-2.5l1.64,1.09Z"/><path class="cls-1" d="M716.6,600.24c-.57,.72-1.4,1.35-2.49,1.87-1.08,.52-2.25,.86-3.52,1.01l-.59-1.52c1.3-.25,2.31-.53,3.02-.87,.72-.33,1.3-.71,1.75-1.12h-4.4v-1.44h5.18v-.74h-4.2v-1.39h4.2v-.76h-4.24v-.88h-.9v-2.73h5.13v-1.05h1.92v1.05h5.32v2.73h-.95v.88h-4.29v.76h4.72v1.39h-4.72v.74h5.43v1.44h-4.72c.59,.47,1.23,.85,1.92,1.12,.69,.27,1.71,.5,3.07,.68l-.77,1.65c-1.15-.11-2.26-.42-3.33-.92s-1.92-1.14-2.57-1.9Zm-1.03-6.3v-.52h2v.52h3.68v-.96h-9.26v.96h3.57Z"/><path class="cls-1" d="M725.3,599c0,.44-.05,1.1-.15,1.97-.1,.87-.2,1.49-.32,1.84l-.88-.43c.11-.32,.22-.85,.31-1.59,.09-.74,.14-1.36,.15-1.84l.88,.05Zm8.16,1.37c-.78,1.33-1.96,2.21-3.54,2.65l-.46-1.12c-.21,.78-.72,1.18-1.56,1.18h-1.16l-.16-1.31h.99c.23,0,.4-.09,.52-.26,.12-.17,.19-.41,.21-.7,.02-.29,.04-1.12,.07-2.46h-2.35v.23h-1.43v-7.48s5.17,0,5.17,0v1.2h-1.44v.87h1.18v.89c1.39-.89,2.38-2,2.98-3.31h1.72c.34,.66,.85,1.28,1.53,1.86,.68,.58,1.33,1.02,1.95,1.32l-.83,1.42c-.46-.28-.91-.58-1.33-.9v.51h-1.33v.77h2.46v3.81h-1.83c.63,.88,1.54,1.56,2.72,2.03l-.92,1.47c-.62-.25-1.22-.63-1.8-1.14-.59-.51-1.04-1.02-1.36-1.53Zm-7.04,1.29l-.64,.11-.15-2.82,.62-.1,.18,2.82Zm.52-9.37h-.8v.87h.8v-.87Zm-.8,1.96v.91h.8v-.91h-.8Zm0,1.99v.88h.8v-.88h-.8Zm1.32,4.89l-.56,.14-.31-2.5,.53-.12,.33,2.47Zm.79-.82l-.46,.22-.33-1.89,.48-.13,.32,1.8Zm1.28,1.29c1.13-.4,1.98-1.09,2.56-2.07h-1.89v-3.81h2.35v-.77h-1.2v-.4c-.32,.25-.78,.57-1.37,.94l-.76-1.23h-.88v.91h1.18v1.08h-1.18v.88h1.4c0,2.25-.07,3.74-.21,4.48Zm3.01-4.73h-.82v1.46h.82v-1.46Zm-.29-3.17h2.39c-.51-.47-.92-.94-1.24-1.42-.21,.4-.59,.87-1.14,1.42Zm2.84,4.62v-1.46h-.9v1.46h.9Z"/><path class="cls-1" d="M739.8,598.56c-.29,.62-.64,1.21-1.03,1.79l-1-1.03c.42-.6,.82-1.35,1.21-2.27,.39-.92,.64-1.71,.76-2.38h-1.41v-1.39h1.47v-2.65h1.68v2.65h1.07v1.39h-1.07v.99c.19,.25,.64,.67,1.33,1.25l-.62,1.39c-.21-.16-.44-.39-.72-.7v5.51h-1.68v-4.56Zm6.12,1.59c-.86,.98-1.84,1.81-2.94,2.47l-.92-1.26c.38-.24,.76-.51,1.13-.82,.37-.3,1.01-.98,1.93-2.04h-2.06v-4.87h2.86v-.69h-3.32v-1.43h3.32v-.9h1.78v.9h3.4v1.43h-3.4v.69h2.91v4.87h-2.23c.95,1.18,1.97,2.1,3.06,2.76l-1.15,1.39c-.89-.57-1.76-1.41-2.59-2.5v2.93h-1.78v-2.94Zm-1.13-4.59h1.13v-.74h-1.13v.74Zm1.13,1h-1.13v.77h1.13v-.77Zm1.78-1h1.16v-.74h-1.16v.74Zm1.16,1h-1.16v.77h1.16v-.77Z"/></g><g><path class="cls-1" d="M742.39,690.99h-4.92v.4c0,1.47-.49,2.71-1.5,3.7s-2.44,1.68-4.32,2.06l-.62-1.71c1.39-.29,2.47-.79,3.22-1.5,.75-.71,1.12-1.59,1.12-2.64v-.31h-5.52v-1.76h12.53v1.76Zm-2.17-3.55h-9.6v-1.74h9.6v1.74Zm1.43-1.11l-.98,.38c-.18-.57-.48-1.27-.91-2.1l.92-.39c.37,.72,.69,1.43,.96,2.11Zm1.92-.25l-.96,.36c-.32-.8-.63-1.5-.94-2.1l.91-.35c.37,.72,.7,1.41,.98,2.08Z"/><path class="cls-1" d="M754.21,688.01h2.59v1.79h-2.59v1.18c0,1.93-.69,3.42-2.07,4.45s-3.39,1.58-6.04,1.63l-.29-1.8c2.39-.08,4.04-.5,4.97-1.27,.92-.76,1.39-1.77,1.39-3.01v-1.18h-4.12v3.23h-2.06v-3.23h-2.13v-1.79h2.13v-2.82h2.06v2.82h4.12v-2.94h1.91c-.08-.17-.14-.31-.19-.4l.9-.36c.37,.72,.69,1.43,.96,2.11l-.95,.38c-.12-.31-.31-.79-.59-1.44v2.65Zm3.43-1.95l-.95,.36c-.3-.75-.62-1.45-.94-2.1l.92-.35c.35,.67,.67,1.37,.98,2.08Z"/><path class="cls-1" d="M766.53,696.99h-2.1v-6.2c-1.7,.87-3.59,1.56-5.68,2.06l-.63-1.79c2.41-.57,4.5-1.42,6.28-2.54s3.12-2.4,4.04-3.85l1.99,.76c-.7,1.05-1.35,1.87-1.96,2.45s-1.25,1.12-1.94,1.6v7.51Z"/><path class="cls-1" d="M779.7,688.24l-1.25,1.7c-.67-.43-1.27-.8-1.79-1.09-.52-.3-1.7-.91-3.54-1.83l1.08-1.57c1.43,.57,3.27,1.5,5.5,2.8Zm5.54,1.67c-1.16,2.14-2.67,3.77-4.53,4.89s-4.22,1.82-7.08,2.1l-.46-1.91c1.56-.14,2.86-.38,3.9-.71s1.95-.77,2.73-1.31c.78-.54,1.45-1.09,2-1.65,.55-.56,1.15-1.39,1.81-2.5l1.64,1.09Z"/><path class="cls-1" d="M797.81,696.53h-10.91v-1.83h8.75v-6.75h-8.63v-1.82h10.79v10.4Z"/><path class="cls-1" d="M812.71,691.77h-6.49v1.86c0,.43,.06,.74,.18,.92s.39,.28,.8,.28h4.84v1.82h-5c-1.12,0-1.88-.23-2.29-.68-.41-.45-.61-1.19-.61-2.21v-2h-3.86v-1.77h3.88v-2.56h-3.45v-1.75h11v1.75h-5.43v2.56h6.43v1.77Z"/><path class="cls-1" d="M821.7,688.24l-1.25,1.7c-.67-.43-1.27-.8-1.79-1.09-.52-.3-1.7-.91-3.54-1.83l1.08-1.57c1.43,.57,3.27,1.5,5.5,2.8Zm5.54,1.67c-1.16,2.14-2.67,3.77-4.53,4.89s-4.22,1.82-7.08,2.1l-.46-1.91c1.56-.14,2.86-.38,3.9-.71s1.95-.77,2.73-1.31c.78-.54,1.45-1.09,2-1.65,.55-.56,1.15-1.39,1.81-2.5l1.64,1.09Z"/></g><g><path class="cls-1" d="M264.43,416.42l-.09,1.57c-.34,2.7-1.37,5.13-3.06,7.3s-4.67,3.76-8.92,4.78l-.83-2.3c2.79-.53,5.02-1.52,6.69-2.98,1.67-1.46,2.76-3.51,3.28-6.16h-5.64c-1.47,2.32-3.38,4.17-5.73,5.55l-1.43-1.82c3.14-2.01,5.21-4.66,6.2-7.95l2.68,.3c-.24,.73-.45,1.3-.62,1.71h5.16c-.41-.87-.78-1.57-1.1-2.1l1.18-.57c.41,.66,.86,1.51,1.36,2.54l-.3,.13h1.16Zm1.73-.39l-1.2,.54c-.46-1.02-.9-1.86-1.31-2.52l1.14-.56c.41,.66,.86,1.51,1.36,2.54Z"/><path class="cls-1" d="M282.17,419.64c-.02,1.58-.29,3.06-.81,4.45-.53,1.39-1.38,2.54-2.57,3.46-1.19,.92-2.53,1.55-4.04,1.89-1.51,.34-3.07,.53-4.7,.59l-.51-2.24c3.2-.17,5.53-.71,6.98-1.63s2.39-2.33,2.8-4.27h-11.44v-2.25h14.28Zm-.66-1.85h-13.1v-2.17h13.1v2.17Z"/><path class="cls-1" d="M300.01,418.18c0,4.15-.9,7.08-2.71,8.81-1.8,1.72-4.79,2.78-8.94,3.16l-.56-2.27c2.18-.26,3.78-.58,4.81-.95,1.03-.37,1.88-.86,2.56-1.49s1.13-1.19,1.36-1.7c.23-.51,.42-1.19,.55-2.06,.14-.87,.21-1.77,.21-2.71h-9.38v4.68h-2.56v-6.87h5.9v-2.19h2.64v2.19h6.1v1.39Z"/><path class="cls-1" d="M311.57,418.93l-1.57,2.13c-.85-.54-1.6-1-2.26-1.38-.66-.37-2.14-1.14-4.45-2.31l1.36-1.97c1.8,.72,4.11,1.89,6.93,3.52Zm6.98,2.1c-1.46,2.69-3.36,4.74-5.7,6.15s-5.31,2.29-8.91,2.64l-.59-2.41c1.96-.18,3.6-.48,4.9-.89s2.45-.97,3.44-1.65c.98-.68,1.82-1.37,2.51-2.07,.69-.7,1.45-1.75,2.28-3.14l2.07,1.38Z"/><path class="cls-1" d="M335.84,423.5l-1.63,2.04c-2.44-1.66-4.98-2.94-7.6-3.84v8.39h-2.71v-15.52h2.74v4.59c2.9,.94,5.97,2.38,9.2,4.34Zm-3.65-5.01l-1.26,.48c-.47-1.16-.86-2.05-1.18-2.65l1.21-.47c.48,.92,.89,1.8,1.22,2.64Zm2.61-.56l-1.24,.46c-.4-1-.79-1.88-1.18-2.64l1.18-.44c.47,.9,.88,1.77,1.24,2.62Z"/></g><path class="cls-11" d="M799.51,473.62c-9.66,0-17.49,7.83-17.49,17.49s7.83,17.49,17.49,17.49,17.49-7.83,17.49-17.49-7.83-17.49-17.49-17.49Zm4.77,27.76c-.95,1.25-3,3.23-6,2.4-1.45-.4-2.96-1.66-1.93-5.35l2-7.21c.16-.57,.02-1.18-.36-1.64-.23-.28-.54-.47-.89-.57-.22-.06-.44-.08-.67-.06-.47,.05-.95,.13-1.42,.23-.04,0-.09,0-.13,0-.06-.02-.12-.06-.15-.11-.06-.09-.06-.22,.01-.31,.95-1.25,3-3.23,6-2.4,1.45,.4,2.96,1.66,1.93,5.35l-2,7.21c-.16,.57-.02,1.18,.36,1.64,.23,.28,.54,.47,.89,.57,.22,.06,.44,.08,.67,.06,.47-.05,.95-.13,1.42-.23,.04,0,.09,0,.13,0,.06,.02,.12,.06,.15,.11,.06,.09,.06,.22-.01,.31Zm-3.13-16.76c-1.76,0-3.19-1.43-3.19-3.19s1.43-3.19,3.19-3.19,3.19,1.43,3.19,3.19-1.43,3.19-3.19,3.19Z"/><g><path class="cls-1" d="M862.95,696.67c-1,1.53-2.87,2.43-4.9,1.99-1.7-.37-3.07-1.72-3.46-3.42-.45-1.96,.36-3.78,1.77-4.82l-.25-1.91c-2.31,1.22-3.78,3.82-3.32,6.69,.43,2.65,2.56,4.8,5.22,5.24,2.85,.47,5.44-.97,6.68-3.25l-1.74-.52Z"/><circle class="cls-1" cx="857.63" cy="685.41" r="1.52"/><path class="cls-1" d="M867.46,697.74l-1.54-4.97c-.11-.37-.45-.62-.84-.62h-5.71l-.17-1.1h2.8c.49,0,.88-.39,.88-.88s-.39-.88-.88-.88h-3.06l-.18-1.19c-.07-.48-.52-.81-1-.74-.48,.07-.81,.52-.74,1l.73,4.79c.07,.43,.43,.75,.87,.75h5.82l1.35,4.35c.12,.38,.46,.62,.84,.62,.09,0,.17-.01,.26-.04,.46-.14,.72-.64,.58-1.1Z"/></g><g><path class="cls-1" d="M718.62,635.99c-1.18,1.8-3.39,2.87-5.79,2.35-2.01-.44-3.63-2.04-4.09-4.04-.53-2.32,.42-4.47,2.1-5.7l-.3-2.26c-2.73,1.44-4.47,4.51-3.93,7.91,.5,3.14,3.03,5.68,6.17,6.19,3.38,.55,6.43-1.15,7.9-3.84l-2.05-.61Z"/><circle class="cls-1" cx="712.33" cy="622.67" r="1.8"/><path class="cls-1" d="M723.95,637.25l-1.82-5.87c-.13-.44-.54-.73-.99-.73h-6.75l-.2-1.3h3.31c.57,0,1.04-.47,1.04-1.04s-.47-1.04-1.04-1.04h-3.62l-.21-1.4c-.09-.57-.62-.96-1.18-.87-.57,.09-.96,.62-.87,1.18l.86,5.67c.08,.51,.51,.88,1.03,.88h6.88l1.59,5.14c.14,.45,.55,.73,.99,.73,.1,0,.21-.02,.31-.05,.55-.17,.86-.75,.69-1.3Z"/></g><g><path class="cls-1" d="M664.76,287.91c-1.15,1.76-3.31,2.8-5.64,2.29-1.96-.42-3.54-1.99-3.99-3.94-.52-2.26,.41-4.36,2.05-5.55l-.29-2.2c-2.66,1.41-4.36,4.4-3.83,7.71,.49,3.06,2.96,5.53,6.01,6.04,3.29,.54,6.27-1.12,7.7-3.75l-2-.6Z"/><circle class="cls-1" cx="658.63" cy="274.93" r="1.76"/><path class="cls-1" d="M669.97,289.14l-1.77-5.73c-.13-.42-.52-.71-.97-.71h-6.58l-.19-1.27h3.22c.56,0,1.01-.45,1.01-1.01s-.45-1.01-1.01-1.01h-3.53l-.21-1.37c-.08-.55-.6-.93-1.15-.85-.55,.08-.93,.6-.85,1.15l.84,5.52c.08,.5,.5,.86,1,.86h6.7l1.55,5.01c.13,.43,.54,.71,.97,.71,.1,0,.2-.01,.3-.05,.53-.17,.83-.73,.67-1.27Z"/></g><g><path class="cls-1" d="M845.76,685.29c-1.24,.3-2.34-.79-2.04-2.04,.14-.58,.62-1.06,1.2-1.2,1.24-.3,2.34,.79,2.04,2.04-.14,.58-.62,1.06-1.2,1.2Z"/><path class="cls-1" d="M836.63,685.29c-1.24,.3-2.34-.79-2.04-2.04,.14-.58,.62-1.06,1.2-1.2,1.24-.3,2.34,.79,2.04,2.04-.14,.58-.62,1.06-1.2,1.2Z"/><path class="cls-1" d="M848.88,693.6l-1.72-3.76-.02-.18,.7-2.85c.03-.37-.24-.67-.61-.67h-3.77c-.37,0-.64,.3-.61,.67l.7,2.85-.02,.18-1.72,3.76c-.05,.52,.35,.95,.87,.95h1.53l.4,6.43c.01,.35,.31,.63,.66,.63h.17c.35,0,.65-.29,.66-.63l.4-6.43h1.53c.52,0,.91-.43,.87-.95Z"/><path class="cls-1" d="M838.23,686.14h-4.02c-.41,0-.74,.33-.73,.74l.19,6.8c0,.25,.24,.4,.46,.45l.68,.22,.3,6.6c.02,.37,.41,.66,.87,.66h.47c.47,0,.86-.29,.87-.66l.3-6.6,.68-.22c.22-.06,.46-.2,.46-.45l.19-6.8c0-.41-.32-.74-.73-.74Z"/></g><g><path class="cls-1" d="M645.64,274.79c-1.43,.35-2.69-.92-2.35-2.35,.16-.67,.72-1.22,1.39-1.39,1.43-.35,2.69,.92,2.35,2.35-.16,.67-.72,1.22-1.39,1.39Z"/><path class="cls-1" d="M635.12,274.79c-1.43,.35-2.69-.92-2.35-2.35,.16-.67,.72-1.22,1.39-1.39,1.43-.35,2.69,.92,2.35,2.35-.16,.67-.72,1.22-1.39,1.39Z"/><path class="cls-1" d="M649.24,284.37l-1.99-4.34-.02-.2,.81-3.28c.04-.42-.28-.77-.71-.77h-4.34c-.43,0-.74,.35-.71,.77l.81,3.28-.02,.2-1.99,4.34c-.05,.6,.4,1.09,1,1.09h1.76l.46,7.42c.02,.4,.36,.73,.76,.73h.19c.4,0,.74-.33,.76-.73l.46-7.42h1.76c.6,0,1.05-.49,1-1.09Z"/><path class="cls-1" d="M636.95,275.77h-4.63c-.47,0-.85,.39-.84,.86l.21,7.83c0,.29,.28,.46,.53,.52l.78,.25,.35,7.61c.02,.43,.47,.76,1.01,.76h.54c.54,0,.99-.34,1.01-.76l.35-7.61,.78-.25c.25-.06,.53-.23,.53-.52l.21-7.83c0-.47-.37-.86-.84-.86Z"/></g><g><path class="cls-1" d="M879.23,129.66c-1.2,1.84-3.45,2.92-5.89,2.39-2.04-.44-3.7-2.08-4.17-4.11-.54-2.36,.43-4.55,2.14-5.8l-.3-2.3c-2.78,1.47-4.56,4.6-4,8.06,.51,3.2,3.09,5.78,6.28,6.3,3.44,.56,6.55-1.17,8.04-3.91l-2.09-.63Z"/><circle class="cls-1" cx="872.83" cy="116.1" r="1.83"/><path class="cls-1" d="M884.67,130.94l-1.85-5.98c-.14-.44-.55-.75-1.01-.75h-6.87l-.2-1.32h3.37c.58,0,1.06-.47,1.06-1.06s-.47-1.06-1.06-1.06h-3.69l-.22-1.43c-.09-.58-.63-.98-1.21-.89-.58,.09-.98,.63-.89,1.21l.87,5.77c.08,.52,.52,.9,1.05,.9h7l1.62,5.24c.14,.45,.56,.75,1.01,.75,.1,0,.21-.02,.31-.05,.56-.17,.87-.77,.7-1.32Z"/></g><g><path class="cls-1" d="M859.26,115.96c-1.49,.36-2.81-.96-2.45-2.45,.17-.7,.75-1.28,1.45-1.45,1.49-.36,2.81,.96,2.45,2.45-.17,.7-.75,1.28-1.45,1.45Z"/><path class="cls-1" d="M848.28,115.96c-1.49,.36-2.81-.96-2.45-2.45,.17-.7,.75-1.28,1.45-1.45,1.49-.36,2.81,.96,2.45,2.45-.17,.7-.75,1.28-1.45,1.45Z"/><path class="cls-1" d="M863.02,125.96l-2.08-4.53-.02-.21,.84-3.43c.04-.44-.29-.8-.74-.8h-4.53c-.44,0-.78,.36-.74,.8l.84,3.43-.02,.21-2.08,4.53c-.05,.63,.42,1.14,1.04,1.14h1.84l.48,7.74c.02,.42,.37,.76,.79,.76h.2c.42,0,.78-.34,.79-.76l.48-7.74h1.84c.63,0,1.1-.51,1.04-1.14Z"/><path class="cls-1" d="M850.19,116.98h-4.83c-.49,0-.89,.4-.88,.89l.22,8.18c0,.3,.29,.48,.56,.55l.82,.26,.36,7.94c.02,.44,.49,.8,1.05,.8h.56c.56,0,1.03-.35,1.05-.8l.36-7.94,.82-.26c.27-.07,.55-.24,.56-.55l.22-8.18c.01-.49-.38-.89-.88-.89Z"/></g><g><path class="cls-1" d="M488.86,265.77c-1.43,.35-2.69-.92-2.35-2.35,.16-.67,.72-1.22,1.39-1.39,1.43-.35,2.69,.92,2.35,2.35-.16,.67-.72,1.22-1.39,1.39Z"/><path class="cls-1" d="M478.34,265.77c-1.43,.35-2.69-.92-2.35-2.35,.16-.67,.72-1.22,1.39-1.39,1.43-.35,2.69,.92,2.35,2.35-.16,.67-.72,1.22-1.39,1.39Z"/><path class="cls-1" d="M492.46,275.34l-1.99-4.34-.02-.2,.81-3.28c.04-.42-.28-.77-.71-.77h-4.34c-.43,0-.74,.35-.71,.77l.81,3.28-.02,.2-1.99,4.34c-.05,.6,.4,1.09,1,1.09h1.76l.46,7.42c.02,.4,.36,.73,.76,.73h.19c.4,0,.74-.33,.76-.73l.46-7.42h1.76c.6,0,1.05-.49,1-1.09Z"/><path class="cls-1" d="M480.17,266.75h-4.63c-.47,0-.85,.39-.84,.86l.21,7.83c0,.29,.28,.46,.53,.52l.78,.25,.35,7.61c.02,.43,.47,.76,1.01,.76h.54c.54,0,.99-.34,1.01-.76l.35-7.61,.78-.25c.25-.06,.53-.23,.53-.52l.21-7.83c0-.47-.37-.86-.84-.86Z"/></g><g><path class="cls-1" d="M498.46,478.17c-1.1,1.68-3.16,2.68-5.4,2.19-1.87-.41-3.39-1.9-3.82-3.76-.5-2.16,.39-4.17,1.96-5.31l-.28-2.11c-2.54,1.34-4.17,4.21-3.66,7.37,.47,2.92,2.82,5.29,5.75,5.77,3.15,.52,5.99-1.07,7.36-3.58l-1.91-.57Z"/><circle class="cls-1" cx="492.6" cy="465.76" r="1.68"/><path class="cls-1" d="M503.44,479.34l-1.7-5.47c-.13-.41-.5-.68-.93-.68h-6.29l-.18-1.21h3.08c.54,0,.97-.43,.97-.97s-.43-.97-.97-.97h-3.37l-.2-1.31c-.08-.53-.57-.89-1.1-.81-.53,.08-.89,.57-.81,1.1l.8,5.28c.07,.47,.48,.82,.96,.82h6.41l1.48,4.79c.13,.42,.51,.68,.93,.68,.09,0,.19-.01,.29-.04,.51-.16,.8-.7,.64-1.21Z"/></g><g><path class="cls-1" d="M507.98,278.89c-1.15,1.76-3.31,2.8-5.64,2.29-1.96-.42-3.54-1.99-3.99-3.94-.52-2.26,.41-4.36,2.05-5.55l-.29-2.2c-2.66,1.41-4.36,4.4-3.83,7.71,.49,3.06,2.96,5.53,6.01,6.04,3.29,.54,6.27-1.12,7.7-3.75l-2-.6Z"/><circle class="cls-1" cx="501.86" cy="265.9" r="1.76"/><path class="cls-1" d="M513.19,280.11l-1.77-5.73c-.13-.42-.52-.71-.97-.71h-6.58l-.19-1.27h3.22c.56,0,1.01-.45,1.01-1.01s-.45-1.01-1.01-1.01h-3.53l-.21-1.37c-.08-.55-.6-.93-1.15-.85-.55,.08-.93,.6-.85,1.15l.84,5.52c.08,.5,.5,.86,1,.86h6.7l1.55,5.01c.13,.43,.54,.71,.97,.71,.1,0,.2-.01,.3-.05,.53-.17,.83-.73,.67-1.27Z"/></g><g><path class="cls-1" d="M481.01,465.63c-1.37,.33-2.58-.88-2.24-2.24,.16-.64,.68-1.17,1.33-1.33,1.37-.33,2.58,.88,2.24,2.24-.16,.64-.68,1.17-1.33,1.33Z"/><path class="cls-1" d="M470.95,465.63c-1.37,.33-2.58-.88-2.24-2.24,.16-.64,.68-1.17,1.33-1.33,1.37-.33,2.58,.88,2.24,2.24-.16,.64-.68,1.17-1.33,1.33Z"/><path class="cls-1" d="M484.45,474.78l-1.9-4.15-.02-.19,.77-3.14c.04-.4-.27-.74-.67-.74h-4.15c-.41,0-.71,.33-.67,.74l.77,3.14-.02,.19-1.9,4.15c-.05,.57,.38,1.04,.96,1.04h1.69l.44,7.09c.01,.38,.34,.7,.73,.7h.19c.38,0,.71-.31,.73-.7l.44-7.09h1.69c.58,0,1.01-.47,.96-1.04Z"/><path class="cls-1" d="M472.71,466.56h-4.42c-.45,0-.81,.37-.8,.82l.2,7.49c0,.28,.27,.44,.51,.5l.75,.24,.33,7.27c.02,.41,.45,.73,.96,.73h.51c.51,0,.94-.32,.96-.73l.33-7.27,.75-.24c.24-.06,.5-.22,.51-.5l.2-7.49c0-.45-.35-.82-.8-.82Z"/></g><g><path class="cls-1" d="M698.51,624.37c-1.09,0-1.98-.89-1.98-1.98s.89-1.98,1.98-1.98,1.98,.89,1.98,1.98-.89,1.98-1.98,1.98Z"/><circle class="cls-1" cx="687.72" cy="622.39" r="1.98"/><path class="cls-1" d="M702.69,634.13l-2.03-4.44c0-.07-.02-.15-.03-.22l.83-3.37c.04-.43-.29-.79-.72-.79h-4.45c-.44,0-.76,.36-.72,.79l.83,3.37c-.01,.07-.02,.15-.03,.22l-2.03,4.44c-.05,.62,.41,1.12,1.03,1.12h1.81l.47,7.61c.02,.41,.37,.75,.78,.75h.2c.41,0,.76-.34,.78-.75l.47-7.61h1.81c.62,0,1.08-.5,1.03-1.12Z"/><path class="cls-1" d="M690.09,625.32h-4.75c-.48,0-.87,.4-.86,.88l.22,8.03c0,.3,.29,.47,.55,.54l.8,.26,.36,7.8c.02,.44,.48,.78,1.03,.78h.55c.55,0,1.01-.35,1.03-.78l.36-7.8,.8-.26c.26-.07,.54-.24,.55-.54l.22-8.03c0-.48-.38-.88-.86-.88Z"/></g><g><path class="cls-3" d="M968.01,164.36h4.27v.88h-4.27v1.22h-1.06v-10.94c.55-.05,1.37-.21,2.45-.45s1.93-.48,2.53-.71l.48,.83c-1.03,.38-2.5,.74-4.41,1.07v3.14h4.12v.85h-4.12v4.1Zm9.18,.31h-1.69l-.16-.98h1.52c.38,0,.57-.18,.57-.53v-7.2h-3.07v10.77h-1.09v-11.61h5.24v8.33c0,.38-.12,.68-.37,.89s-.57,.32-.95,.32Z"/><path class="cls-3" d="M982.02,158.06v1.6c0,1.23-.13,2.42-.39,3.56s-.62,2.09-1.08,2.85l-.7-.47c.33-.61,.62-1.44,.85-2.5s.35-2.14,.35-3.24v-5.09h6.7v3.28h-5.73Zm.08-2.5v1.73h4.58v-1.73h-4.58Zm2.54,11.2v-6.19h-1.18v4.89h-.96v-5.59h2.14v-1.3h1.03v1.3h2.3v4.31c0,.3-.11,.53-.32,.7s-.47,.26-.77,.26h-.74l-.14-.83h.5c.32,0,.49-.14,.49-.41v-3.33h-1.31v6.19h-1.03Zm4.39-3.39v-8.16h1.05v8.16h-1.05Zm2.18,3.21h-1.61l-.11-.98h1.34c.34,0,.51-.17,.51-.5v-10.74h1.07v11.13c0,.73-.4,1.09-1.2,1.09Z"/><path class="cls-3" d="M965.03,186.59v-1.37h-4.53v-.81h4.53v-1.31h-4.3v-.85h4.3v-.9h1.13v.9h4.5v.85h-4.5v1.31h4.76v.81h-4.76v1.37h5.85v.84h-5.41c1.16,1.39,2.98,2.37,5.46,2.93l-.47,.93c-1.18-.21-2.31-.64-3.4-1.28-1.09-.64-1.92-1.36-2.48-2.16-.52,.86-1.32,1.6-2.39,2.21s-2.28,1.05-3.65,1.28l-.34-.83c1.54-.31,2.76-.77,3.66-1.4s1.48-1.19,1.75-1.68h-5.27v-.84h5.56Zm5.77-4.5v-1.48h-10.23v1.48h-.97v-2.27h5.43v-1.11h1.1v1.11h5.68v2.27h-1.01Z"/><path class="cls-3" d="M973.65,190.71l-.68-.36c.29-.91,.46-1.98,.53-3.23l.7,.05c0,.38-.07,.96-.19,1.72s-.24,1.37-.36,1.81Zm3.32-5.14h1.71c-.02,1.48-.08,2.61-.16,3.41s-.18,1.3-.3,1.52-.28,.38-.48,.49-.44,.18-.74,.21c-.07,0-.52,.01-1.35,.01l-.1-.79h1.12s.04,0,.04,0c.41,0,.69-.29,.81-.86,.13-.57,.2-1.67,.22-3.3h-3.13v.22h-.87v-7.2h4.97v.74h-1.74v1.36h1.34v.7h-1.34v1.39h1.34v.7h-1.34v1.4Zm-2.2,4.21l-.16-2.64,.6-.06,.14,2.66-.59,.04Zm-.1-9.75v1.36h1.39v-1.36h-1.39Zm0,2.06v1.39h1.39v-1.39h-1.39Zm0,2.08v1.4h1.39v-1.4h-1.39Zm1.27,5.09l-.3-2.3,.53-.07,.34,2.28-.57,.09Zm.99-.75l-.31-1.7,.46-.06,.33,1.67-.48,.08Zm5.08-4.48v-1.27h-1.71v-.7c-.38,.31-.83,.63-1.35,.96l-.46-.63c.6-.35,1.22-.84,1.86-1.48s1.15-1.34,1.53-2.09h1.19c.44,.71,.97,1.35,1.59,1.94s1.25,1.05,1.88,1.38l-.5,.73c-1.56-.94-2.73-2.07-3.51-3.4-.57,.98-1.29,1.83-2.17,2.56h4.35v.72h-1.71v1.27h2.67v3.4h-2.5c.7,1.31,1.82,2.31,3.38,3l-.53,.77c-.73-.29-1.41-.74-2.05-1.34s-1.11-1.22-1.41-1.86c-.31,.76-.8,1.42-1.46,1.99s-1.45,.98-2.37,1.23l-.29-.68c1.62-.49,2.74-1.53,3.34-3.12h-2.28v-3.4h2.53Zm0,.67h-1.57v2.06h1.57v-2.06Zm2.66,0h-1.69v2.06h1.69v-2.06Z"/><path class="cls-3" d="M991.17,185.91c-.21-.23-.55-.62-1-1.16v6.53h-1.02v-6.43c-.44,1.2-1.03,2.29-1.77,3.25l-.57-.51c.44-.63,.9-1.5,1.37-2.63,.47-1.12,.76-2.04,.88-2.74h-1.62v-.81h1.71v-2.62h1.02v2.62h1.29v.81h-1.29v1.28c.23,.35,.74,.91,1.53,1.7l-.53,.71Zm.04,4.86l-.46-.69c1.65-.9,2.99-2.1,4.01-3.58h-2.73v-4.67h3.11v-1.14h-3.58v-.81h3.58v-1.13h1.05v1.13h3.94v.81h-3.94v1.14h3.33v4.67h-2.97c.95,1.34,2.31,2.52,4.08,3.51l-.61,.79c-.65-.34-1.32-.82-2.03-1.44-.71-.62-1.31-1.27-1.81-1.93v3.81h-1.02v-3.77c-.53,.74-1.18,1.41-1.96,2.01-.77,.6-1.44,1.03-2,1.29Zm1.83-7.03h2.12v-1.2h-2.12v1.2Zm2.12,.7h-2.12v1.36h2.12v-1.36Zm1.02-.7h2.32v-1.2h-2.32v1.2Zm2.32,.7h-2.32v1.36h2.32v-1.36Z"/></g></g><g id="_レイヤー_7"><rect class="cls-18" x="96.5" y="712" width="209.5" height="191"/><g><path class="cls-1" d="M876.1,683.8v3.99c0,.26-.21,.46-.46,.46h-.12c-.25,0-.46-.21-.46-.46v-4.01c0-.66-.44-.86-.87-.86s-.87,.2-.87,.86v4.01c0,.26-.21,.46-.46,.46h-.12c-.26,0-.46-.21-.46-.46v-3.99c0-1.18-1.68-1.14-1.68,.01v3.81c0,2.12,.5,2.67,1.33,3.33,.67,.53,1.25,.84,1.25,2.16v8.49h2.02v-8.49c0-1.32,.58-1.62,1.25-2.16,.84-.66,1.34-1.21,1.33-3.33v-3.81c0-1.15-1.68-1.19-1.68-.01Z"/><path class="cls-1" d="M882.61,684.2c-.43,1.21-1.67,4.03-1.75,6.52-.12,3.87,2.25,3.3,2.29,5.83v5.07h2.01v.03s.01-.01,.01-.03v-17.43c0-1.47-1.9-1.88-2.57,0Z"/></g><g><path class="cls-9" d="M136.74,836.63v8.28c0,.53-.43,.96-.96,.96h-.26c-.53,0-.96-.43-.96-.96v-8.32c0-1.37-.92-1.77-1.8-1.77s-1.8,.41-1.8,1.77v8.32c0,.53-.43,.96-.96,.96h-.26c-.53,0-.96-.43-.96-.96v-8.28c0-2.44-3.48-2.36-3.48,.03v7.91c-.02,4.39,1.03,5.53,2.77,6.9,1.4,1.1,2.59,1.73,2.59,4.47v17.61h4.2v-17.61c0-2.74,1.19-3.37,2.59-4.47,1.73-1.37,2.78-2.51,2.77-6.9v-7.91c0-2.39-3.48-2.47-3.48-.03Z"/><path class="cls-9" d="M150.25,837.45c-.89,2.5-3.46,8.35-3.62,13.53-.25,8.03,4.67,6.84,4.76,12.1v10.52h4.18l.02,.05v-36.2c0-3.05-3.95-3.89-5.33,0Z"/></g><g><path class="cls-2" d="M617.96,389.01v4.62c0,.3-.24,.53-.53,.53h-.14c-.29,0-.53-.24-.53-.53v-4.64c0-.76-.51-.99-1-.99s-1,.23-1,.99v4.64c0,.3-.24,.53-.53,.53h-.14c-.3,0-.53-.24-.53-.53v-4.62c0-1.36-1.94-1.32-1.94,.01v4.41c0,2.45,.58,3.09,1.54,3.85,.78,.61,1.44,.97,1.44,2.49v9.82h2.34v-9.82c0-1.53,.67-1.88,1.44-2.49,.97-.76,1.55-1.4,1.54-3.85v-4.41c0-1.33-1.94-1.38-1.94-.01Z"/><path class="cls-2" d="M625.49,389.47c-.5,1.39-1.93,4.66-2.02,7.54-.14,4.48,2.6,3.81,2.65,6.75v5.87h2.33v.03s.01-.01,.01-.03v-20.15c0-1.7-2.2-2.17-2.97,0Z"/></g><g><path class="cls-9" d="M146.55,812.45c-2.07,3.16-5.95,5.04-10.16,4.12-3.52-.76-6.37-3.58-7.18-7.09-.94-4.07,.74-7.85,3.68-9.99l-.52-3.96c-4.79,2.53-7.85,7.92-6.89,13.88,.89,5.51,5.32,9.96,10.82,10.86,5.92,.97,11.28-2.02,13.85-6.74l-3.6-1.08Z"/><circle class="cls-9" cx="135.53" cy="789.09" r="3.16"/><path class="cls-9" d="M155.92,814.66l-3.19-10.3c-.24-.76-.94-1.28-1.74-1.28h-11.84l-.35-2.28h5.8c1.01,0,1.82-.82,1.82-1.82s-.82-1.82-1.82-1.82h-6.35l-.37-2.46c-.15-1-1.08-1.68-2.08-1.53-1,.15-1.68,1.08-1.53,2.08l1.5,9.94c.13,.89,.9,1.55,1.8,1.55h12.06l2.79,9.02c.24,.78,.96,1.28,1.74,1.28,.18,0,.36-.03,.54-.08,.96-.3,1.5-1.32,1.2-2.28Z"/></g><g><path class="cls-9" d="M147.13,742.28c-2.57,.63-4.85-1.65-4.22-4.22,.29-1.21,1.29-2.2,2.5-2.5,2.57-.63,4.85,1.65,4.22,4.22-.29,1.21-1.29,2.2-2.5,2.5Z"/><path class="cls-9" d="M128.2,742.28c-2.57,.63-4.85-1.65-4.22-4.22,.29-1.21,1.29-2.2,2.5-2.5,2.57-.63,4.85,1.65,4.22,4.22-.29,1.21-1.29,2.2-2.5,2.5Z"/><path class="cls-9" d="M153.61,759.5l-3.58-7.81-.03-.36,1.45-5.9c.07-.76-.5-1.39-1.27-1.39h-7.81c-.77,0-1.34,.62-1.27,1.39l1.45,5.9-.03,.36-3.58,7.81c-.09,1.08,.72,1.96,1.8,1.96h3.17l.82,13.34c.03,.72,.64,1.32,1.37,1.32h.35c.72,0,1.34-.59,1.37-1.32l.82-13.34h3.17c1.08,0,1.89-.88,1.8-1.96Z"/><path class="cls-9" d="M131.5,744.04h-8.33c-.85,0-1.53,.69-1.51,1.54l.39,14.09c.01,.52,.5,.82,.96,.94l1.41,.45,.62,13.68c.03,.77,.85,1.37,1.81,1.37h.97c.97,0,1.78-.61,1.81-1.37l.62-13.68,1.41-.45c.46-.12,.95-.42,.96-.94l.39-14.09c.02-.85-.66-1.54-1.51-1.54Z"/></g><g><path class="cls-7" d="M182.21,758.29l.22-.72c.47,.18,.97,.27,1.5,.27,.73,0,1.3-.17,1.72-.51s.63-.83,.63-1.46c0-.69-.28-1.22-.84-1.58s-1.35-.54-2.35-.54c-.67,0-1.32,.07-1.95,.22v3.52c0,.75-.57,1.12-1.71,1.12-.65,0-1.23-.19-1.72-.58s-.74-.87-.74-1.46c0-.65,.31-1.26,.92-1.83s1.38-1.01,2.31-1.31v-2.02h-2.92v-.77h2.89v-1.9h.96v1.81h3.06v.77h-3.06v1.85c.64-.14,1.28-.21,1.93-.21,1.17,0,2.16,.25,2.95,.75s1.2,1.2,1.2,2.09-.28,1.59-.83,2.09c-.56,.5-1.31,.75-2.26,.75-.8,0-1.43-.12-1.9-.37Zm-1.99-4.03c-.67,.27-1.24,.6-1.69,1.01s-.69,.83-.69,1.27,.17,.73,.5,.95,.71,.33,1.12,.33c.51,0,.76-.18,.76-.54v-3.01Zm7.68-2.54l-.76,.54c-.77-.95-1.72-1.82-2.87-2.61l.62-.54c.48,.31,1.02,.72,1.61,1.23s1.06,.98,1.4,1.39Z"/><path class="cls-7" d="M188.79,755.25v-.74h5.2v-2.1h-4.73v-.73h4.73v-1.88c-1.64,.13-3.09,.19-4.35,.19l-.09-.73c4-.07,6.93-.33,8.81-.79l.42,.7c-.9,.21-2.19,.39-3.87,.55v1.96h4.36v.73h-4.36v2.1h4.91v.74h-4.91v2.71c0,.29-.11,.52-.34,.7s-.49,.27-.8,.27h-1.75l-.09-.82h1.53c.13,0,.25-.05,.37-.14s.17-.2,.17-.31v-2.4h-5.2Z"/><path class="cls-7" d="M202.19,753.41c-.3-.32-.88-.85-1.74-1.56l.6-.6c.57,.43,1.16,.94,1.78,1.52l-.64,.64Zm-.8,5.18l-.74-.52c.3-.43,.64-1.03,1.01-1.82s.66-1.47,.86-2.05l.77,.3c-.18,.59-.45,1.3-.83,2.12s-.73,1.48-1.07,1.96Zm1.38-8c-.48-.52-1.04-1.04-1.68-1.56l.63-.57c.51,.39,1.07,.9,1.7,1.51l-.65,.63Zm.16,8.36l-.32-.63c.88-.27,1.6-.76,2.17-1.47s.85-1.72,.86-3.05h-2.16v-.73h3.53v-2.23h-1.9c-.38,.68-.72,1.18-1,1.49l-.66-.4c.34-.44,.68-1.01,1.02-1.7s.56-1.25,.67-1.67l.9,.18c-.21,.57-.39,1.04-.55,1.38h1.53v-1.79h.96v1.79h3.12v.72h-3.12v2.23h3.66v.73h-2.71v3.73c0,.12,.03,.22,.1,.3s.15,.14,.26,.17,.32,.05,.62,.05c.32,0,.54-.04,.67-.13,.13-.09,.22-.22,.25-.39s.07-.67,.1-1.5l.75,.12v1.57c0,.25-.06,.46-.17,.63s-.28,.28-.49,.35-.52,.1-.92,.1c-.68,0-1.15-.03-1.39-.08s-.42-.16-.54-.31-.18-.35-.18-.59v-4.03h-1.42c-.05,2.75-1.26,4.46-3.63,5.15Z"/><path class="cls-7" d="M218.19,755.12c-.13,.37-.34,.82-.63,1.36s-.58,.98-.88,1.34-.61,.54-.93,.54c-.2,0-.37-.05-.52-.14s-.35-.28-.6-.54-.47-.64-.68-1.11-.36-.96-.45-1.48-.15-1.02-.15-1.51c0-.44,.04-1.06,.13-1.86,.09-.84,.14-1.45,.15-1.84h.98c-.02,.35-.08,.96-.19,1.84-.1,.78-.15,1.4-.15,1.85,0,.68,.07,1.29,.21,1.83s.35,1.01,.62,1.4,.47,.59,.59,.59c.2,0,.48-.28,.82-.83s.65-1.16,.93-1.8l.72,.38Zm5.36,1.72l-.98,.03v-.11c0-1.16-.19-2.28-.56-3.38s-.91-2.07-1.61-2.93l.72-.46c1.59,1.82,2.4,4.1,2.43,6.84Z"/><path class="cls-7" d="M177.13,804.95l-.15-.77,1.28-.08v-5.88h2.8c.17-.37,.32-.77,.47-1.2l.99,.16c-.15,.31-.32,.66-.52,1.04h4.05v4.56c.45-.41,.92-.9,1.41-1.45l.66,.5c-.27,.29-.96,.89-2.07,1.82v3.43c0,.25-.1,.46-.3,.62s-.44,.24-.7,.24h-1.82l-.13-.82h1.49c.14,0,.27-.05,.39-.15s.17-.21,.17-.35v-2.19c-.64,.56-1.75,1.18-3.3,1.85s-3.09,1.17-4.61,1.49l-.28-.7c.99-.19,2.18-.56,3.59-1.1s2.56-1.1,3.47-1.68c-2.73,.3-5.03,.52-6.88,.64Zm8.02-4.87v-1.19h-6.01v1.19h6.01Zm0,1.83v-1.17h-6.01v1.17h6.01Zm-6.01,2.13c2.89-.2,4.89-.37,6.01-.5v-.95h-6.01v1.45Z"/><path class="cls-7" d="M191.43,801.1c.16,.22,.33,.5,.52,.85s.31,.66,.37,.94,.09,.53,.09,.76v.03c0,.36-.04,.69-.11,.97s-.19,.51-.33,.69-.32,.3-.52,.38-.47,.11-.81,.11h-.25l-.13-.76,.7-.03c.42-.07,.63-.51,.63-1.33s-.31-1.66-.92-2.45h0s0-.05-.02-.11-.02-.08-.02-.09c.14-.34,.32-.85,.53-1.51s.31-1.07,.31-1.22h-1.42v9.67h-.83v-10.32h3.11l.19,.23c-.11,.43-.28,1.01-.53,1.75s-.43,1.23-.55,1.44Zm4.15,6.87v-1.56h-3.18v-.72h3.18v-.88h-2.44v-3.59h5.89v3.59h-2.53v.88h3.18v.72h-3.18v1.56h-.92Zm-1.44-8.08l-.42-1.2h-.84v-.63h2.67v-.79h.9v.79h2.84v.63h-.96l-.54,1.2h1.78v.64h-6.99v-.64h1.56Zm-.13,2.81h4.14v-.87h-4.14v.87Zm4.14,.6h-4.14v.88h4.14v-.88Zm-3.58-4.62l.41,1.2h2.01l.45-1.2h-2.87Z"/><path class="cls-7" d="M209.63,807.44h-5.68v.46h-.91v-4.44c-.61,.27-1.31,.54-2.11,.81l-.32-.71c1.81-.62,3.59-1.44,5.35-2.46h-4.93v-.71h3.8v-1.42h-3.16v-.73h3.16v-1.03h.96v1.03h2.85v.73h-2.85v1.42h1.34c1.49-.96,2.61-1.88,3.35-2.75l.82,.46c-.59,.62-1.46,1.35-2.6,2.19l-.13,.1h3.24v.71h-4.42c-.83,.51-1.58,.94-2.25,1.29h5.44v5.51h-.93v-.46Zm0-2.99v-1.37h-5.68v1.37h5.68Zm-5.68,2.26h5.68v-1.54h-5.68v1.54Z"/><path class="cls-7" d="M222.18,804.17h-3.29v3.65h-.91v-3.65h-3.26c-.2,1.5-.72,2.78-1.57,3.82l-.63-.43c.52-.7,.88-1.47,1.09-2.3s.32-1.77,.32-2.83v-4.63h9.19v9.12c0,.23-.11,.44-.33,.61s-.46,.26-.74,.26h-1.61l-.13-.83h1.32c.37,0,.55-.15,.55-.46v-2.33Zm-7.4-.74h3.2v-2.14h-3.14v.98c0,.11-.02,.5-.06,1.17Zm3.2-4.93h-3.14v2.08h3.14v-2.08Zm4.2,2.08v-2.08h-3.29v2.08h3.29Zm-3.29,2.85h3.29v-2.14h-3.29v2.14Z"/><path class="cls-7" d="M230.21,807.29l.22-.72c.47,.18,.97,.27,1.5,.27,.73,0,1.3-.17,1.72-.51s.63-.83,.63-1.46c0-.69-.28-1.22-.84-1.58s-1.35-.54-2.35-.54c-.67,0-1.32,.07-1.95,.22v3.52c0,.75-.57,1.12-1.71,1.12-.65,0-1.23-.19-1.72-.58s-.74-.87-.74-1.46c0-.65,.31-1.26,.92-1.83s1.38-1.01,2.31-1.31v-2.02h-2.92v-.77h2.89v-1.9h.96v1.81h3.06v.77h-3.06v1.85c.64-.14,1.28-.21,1.93-.21,1.17,0,2.16,.25,2.95,.75s1.2,1.2,1.2,2.09-.28,1.59-.83,2.09c-.56,.5-1.31,.75-2.26,.75-.8,0-1.43-.12-1.9-.37Zm-1.99-4.03c-.67,.27-1.24,.6-1.69,1.01s-.69,.83-.69,1.27,.17,.73,.5,.95,.71,.33,1.12,.33c.51,0,.76-.18,.76-.54v-3.01Zm7.68-2.54l-.76,.54c-.77-.95-1.72-1.82-2.87-2.61l.62-.54c.48,.31,1.02,.72,1.61,1.23s1.06,.98,1.4,1.39Z"/><path class="cls-7" d="M236.79,804.25v-.74h5.2v-2.1h-4.73v-.73h4.73v-1.88c-1.64,.13-3.09,.19-4.35,.19l-.09-.73c4-.07,6.93-.33,8.81-.79l.42,.7c-.9,.21-2.19,.39-3.87,.55v1.96h4.36v.73h-4.36v2.1h4.91v.74h-4.91v2.71c0,.29-.11,.52-.34,.7s-.49,.27-.8,.27h-1.75l-.09-.82h1.53c.13,0,.25-.05,.37-.14s.17-.2,.17-.31v-2.4h-5.2Z"/><path class="cls-7" d="M250.19,802.41c-.3-.32-.88-.85-1.74-1.56l.6-.6c.57,.43,1.16,.94,1.78,1.52l-.64,.64Zm-.8,5.18l-.74-.52c.3-.43,.64-1.03,1.01-1.82s.66-1.47,.86-2.05l.77,.3c-.18,.59-.45,1.3-.83,2.12s-.73,1.48-1.07,1.96Zm1.38-8c-.48-.52-1.04-1.04-1.68-1.56l.63-.57c.51,.39,1.07,.9,1.7,1.51l-.65,.63Zm.16,8.36l-.32-.63c.88-.27,1.6-.76,2.17-1.47s.85-1.72,.86-3.05h-2.16v-.73h3.53v-2.23h-1.9c-.38,.68-.72,1.18-1,1.49l-.66-.4c.34-.44,.68-1.01,1.02-1.7s.56-1.25,.67-1.67l.9,.18c-.21,.57-.39,1.04-.55,1.38h1.53v-1.79h.96v1.79h3.12v.72h-3.12v2.23h3.66v.73h-2.71v3.73c0,.12,.03,.22,.1,.3s.15,.14,.26,.17,.32,.05,.62,.05c.32,0,.54-.04,.67-.13,.13-.09,.22-.22,.25-.39s.07-.67,.1-1.5l.75,.12v1.57c0,.25-.06,.46-.17,.63s-.28,.28-.49,.35-.52,.1-.92,.1c-.68,0-1.15-.03-1.39-.08s-.42-.16-.54-.31-.18-.35-.18-.59v-4.03h-1.42c-.05,2.75-1.26,4.46-3.63,5.15Z"/><path class="cls-7" d="M266.19,804.12c-.13,.37-.34,.82-.63,1.36s-.58,.98-.88,1.34-.61,.54-.93,.54c-.2,0-.37-.05-.52-.14s-.35-.28-.6-.54-.47-.64-.68-1.11-.36-.96-.45-1.48-.15-1.02-.15-1.51c0-.44,.04-1.06,.13-1.86,.09-.84,.14-1.45,.15-1.84h.98c-.02,.35-.08,.96-.19,1.84-.1,.78-.15,1.4-.15,1.85,0,.68,.07,1.29,.21,1.83s.35,1.01,.62,1.4,.47,.59,.59,.59c.2,0,.48-.28,.82-.83s.65-1.16,.93-1.8l.72,.38Zm5.36,1.72l-.98,.03v-.11c0-1.16-.19-2.28-.56-3.38s-.91-2.07-1.61-2.93l.72-.46c1.59,1.82,2.4,4.1,2.43,6.84Z"/><path class="cls-7" d="M177.02,856.84l-.26-.72c.21-.04,.5-.11,.88-.21v-6.72c-.3,.24-.61,.46-.92,.66l-.42-.56c1.35-.95,2.32-1.96,2.92-3.04h.96c.16,.24,.46,.55,.91,.94s.87,.71,1.26,.94l-.53,.63c-.8-.5-1.49-1.12-2.06-1.85-.52,.77-1.2,1.5-2.03,2.19h1.61v-.85h.86v.85h1.47v4.04h-3.17v2.54c.79-.21,1.51-.42,2.17-.63-.17-.35-.36-.7-.55-1.06l.73-.3c.4,.69,.74,1.37,1.01,2.04l-.73,.32-.18-.4c-1.19,.45-2.5,.84-3.94,1.18Zm1.48-6.08h2.33v-.94h-2.33v.94Zm2.33,.66h-2.33v1.03h2.33v-1.03Zm1.35,5.58l-.53-.55c.3-.22,.58-.49,.83-.81s.5-.68,.73-1.1,.42-.86,.57-1.31,.26-.88,.32-1.28,.1-.7,.1-.89,0-.68,0-1.49v-.3h.93v1.01c0,.29,.04,.64,.14,1.06s.22,.85,.37,1.28,.34,.87,.58,1.32,.51,.89,.83,1.33,.64,.82,.98,1.14l-.64,.63c-.56-.53-1.08-1.2-1.54-2.01s-.8-1.61-1.01-2.4c-.52,1.93-1.41,3.39-2.67,4.38Zm.43-5.97l-.64-.38c.84-1.61,1.37-3.1,1.59-4.48l.93,.11c-.09,.49-.24,1.04-.45,1.64h3.75l.12,.13c-.1,.49-.25,1.06-.45,1.7s-.38,1.11-.53,1.41l-.82-.15c.34-.74,.58-1.53,.72-2.38h-3.05c-.4,1.06-.79,1.86-1.18,2.4Z"/><path class="cls-7" d="M189.24,856.87l-.13-.72c.39-.02,.92-.06,1.56-.12v-6.66c-.65,.3-1.29,.54-1.9,.72l-.32-.63c1.04-.28,2.04-.74,3.03-1.37s1.72-1.24,2.2-1.82h1.05c.5,.59,1.29,1.17,2.35,1.74s2.03,.98,2.89,1.21l-.45,.71c-.55-.19-1.1-.42-1.66-.69v4.01h-3.11c.41,.52,.89,.97,1.42,1.35,.98-.39,1.89-.84,2.74-1.37l.62,.6c-.71,.4-1.6,.81-2.65,1.22,.83,.48,1.84,.86,3.04,1.12l-.42,.73c-1.39-.34-2.54-.82-3.45-1.45s-1.68-1.37-2.3-2.22h-2.23v2.69c1.88-.18,3.11-.31,3.67-.42v.71c-.36,.06-1.25,.17-2.69,.32s-2.53,.25-3.28,.31Zm1.86-7.71h2.77v-.99h.88v.99h2.94c-1.5-.73-2.63-1.5-3.42-2.29-.75,.82-1.8,1.58-3.18,2.29Zm.44,1.73h5.45v-1.08h-5.45v1.08Zm5.45,.62h-5.45v1.09h5.45v-1.09Z"/><path class="cls-7" d="M211.96,856.12l-.83,.64c-1.07-1.1-2.53-2.43-4.39-4-1.94,1.87-3.87,3.18-5.79,3.95l-.45-.74c1.61-.66,3.21-1.7,4.81-3.12s2.71-2.98,3.35-4.67h-6.69v-.81h7.74l.24,.22c-.55,1.66-1.42,3.17-2.63,4.54,1.2,.93,2.74,2.27,4.63,4Z"/><path class="cls-7" d="M224.21,854.96l-.59,.88c-1.09-1.14-2.24-2.33-3.45-3.54s-2.01-1.99-2.37-2.32-.57-.5-.62-.52-.09-.03-.14-.03c-.04,0-.09,.01-.15,.04s-.2,.16-.39,.4-.82,1.05-1.88,2.44l-1.61,2.1-.67-.66c.28-.32,.64-.77,1.08-1.35l2.47-3.29c.26-.33,.62-.5,1.07-.5,.2,0,.4,.04,.61,.11s.47,.25,.77,.54l1.77,1.68c.87,.83,2.24,2.17,4.1,4.04Zm-3.96-6.43v-.02c0-.35,.13-.65,.39-.88s.56-.36,.91-.36c.38,0,.7,.12,.94,.37s.37,.54,.37,.86c0,.38-.13,.68-.39,.92s-.56,.35-.89,.35c-.38,0-.7-.13-.95-.38s-.37-.54-.37-.87Zm1.29,.83c.23,0,.43-.08,.6-.24s.25-.36,.25-.58-.08-.44-.25-.6-.37-.25-.6-.25c-.22,0-.41,.08-.58,.25s-.25,.36-.25,.59,.08,.42,.25,.59,.36,.25,.59,.25Z"/><path class="cls-7" d="M235.08,852.34h-9.69v-.87h9.69v.87Z"/><path class="cls-7" d="M247.96,856.12l-.83,.64c-1.07-1.1-2.53-2.43-4.39-4-1.94,1.87-3.87,3.18-5.79,3.95l-.45-.74c1.61-.66,3.21-1.7,4.81-3.12s2.71-2.98,3.35-4.67h-6.69v-.81h7.74l.24,.22c-.55,1.66-1.42,3.17-2.63,4.54,1.2,.93,2.74,2.27,4.63,4Z"/></g></g></svg>