<?xml version="1.0" encoding="UTF-8"?><svg id="_レイヤー_2" xmlns="http://www.w3.org/2000/svg" xmlns:xlink="http://www.w3.org/1999/xlink" viewBox="0 0 1114.94 769.25"><defs><style>.cls-1{fill:#fff;}.cls-2{stroke-width:.97px;}.cls-2,.cls-3{fill:none;}.cls-2,.cls-4{stroke:#666;stroke-miterlimit:10;}.cls-5{fill:#bdacc5;}.cls-6{clip-path:url(#clippath-2);}.cls-7{fill:#c1272d;}.cls-8{fill:#ff747c;}.cls-9{clip-path:url(#clippath-1);}.cls-10{fill:#2e3192;}.cls-11{fill:#dacc23;}.cls-12{clip-path:url(#clippath);}.cls-13{fill:#4dc9cb;}.cls-14{fill:#e169b0;}.cls-4,.cls-15{fill:#666;}.cls-16{fill:#14a7e2;}.cls-17{fill:#fbb03b;}.cls-18{fill:#b3cb4a;}</style><clipPath id="clippath"><rect class="cls-3" x="62.94" y="390.21" width="1042" height="343"/></clipPath><clipPath id="clippath-1"><rect class="cls-3" x="72.94" y="26.21" width="1042" height="78"/></clipPath><clipPath id="clippath-2"><rect class="cls-3" x="62.94" y="124.21" width="1042" height="246"/></clipPath></defs><g id="Schedule"><g class="cls-12"><line class="cls-2" x1="213.94" y1="34.21" x2="213.94" y2="734.21"/><line class="cls-2" x1="866.44" y1="34.21" x2="866.44" y2="734.21"/><line class="cls-2" x1="279.19" y1="34.21" x2="279.19" y2="734.21"/><line class="cls-2" x1="344.44" y1="34.21" x2="344.44" y2="734.21"/><line class="cls-2" x1="409.69" y1="34.21" x2="409.69" y2="734.21"/><line class="cls-2" x1="474.94" y1="34.21" x2="474.94" y2="734.21"/><line class="cls-2" x1="540.19" y1="34.21" x2="540.19" y2="734.21"/><line class="cls-2" x1="605.44" y1="34.21" x2="605.44" y2="734.21"/><line class="cls-2" x1="670.69" y1="34.21" x2="670.69" y2="734.21"/><line class="cls-2" x1="735.94" y1="34.21" x2="735.94" y2="734.21"/><line class="cls-2" x1="801.19" y1="34.21" x2="801.19" y2="734.21"/><line class="cls-2" x1="931.69" y1="34.21" x2="931.69" y2="734.21"/><line class="cls-2" x1="996.94" y1="34.21" x2="996.94" y2="734.21"/></g><g class="cls-9"><line class="cls-2" x1="213.94" y1="33.21" x2="213.94" y2="733.21"/><line class="cls-2" x1="866.44" y1="33.21" x2="866.44" y2="733.21"/><line class="cls-2" x1="279.19" y1="33.21" x2="279.19" y2="733.21"/><line class="cls-2" x1="344.44" y1="33.21" x2="344.44" y2="733.21"/><line class="cls-2" x1="409.69" y1="33.21" x2="409.69" y2="733.21"/><line class="cls-2" x1="474.94" y1="33.21" x2="474.94" y2="733.21"/><line class="cls-2" x1="540.19" y1="33.21" x2="540.19" y2="733.21"/><line class="cls-2" x1="605.44" y1="33.21" x2="605.44" y2="733.21"/><line class="cls-2" x1="670.69" y1="33.21" x2="670.69" y2="733.21"/><line class="cls-2" x1="735.94" y1="33.21" x2="735.94" y2="733.21"/><line class="cls-2" x1="801.19" y1="33.21" x2="801.19" y2="733.21"/><line class="cls-2" x1="931.69" y1="33.21" x2="931.69" y2="733.21"/><line class="cls-2" x1="996.94" y1="33.21" x2="996.94" y2="733.21"/></g><rect class="cls-10" x="571.94" y="51.21" width="228" height="36" rx="18" ry="18"/><g><path class="cls-4" d="M119.76,63.11c-1.16,1.63-3.09,3.26-5.78,4.89s-5.13,2.73-7.3,3.32l-.52-1.01c2.09-.64,4.21-1.57,6.36-2.8-.64-.5-1.54-1.13-2.69-1.89-1.08,.64-2.11,1.16-3.08,1.57l-.59-.91c3.38-1.55,5.85-3.27,7.4-5.16l1.38,.27c-.26,.4-.56,.76-.9,1.08h5.03l.69,.64Zm2.87,6.32c-1.2,2.11-3.11,3.89-5.76,5.35s-5.86,2.38-9.65,2.78l-.29-1.1c3.35-.38,6.23-1.19,8.63-2.42-.85-.65-1.83-1.36-2.95-2.12-1.35,.74-2.67,1.34-3.94,1.78l-.53-.91c1.54-.57,3.13-1.36,4.79-2.38s3.03-2.15,4.12-3.39l1.25,.37c-.33,.43-.7,.87-1.12,1.3h4.7l.76,.72Zm-4.74-5.97h-4.91c-.66,.52-1.35,1.02-2.09,1.5,1.09,.69,2.01,1.32,2.77,1.87,1.83-1.13,3.24-2.26,4.24-3.38Zm2.94,6.26h-4.81c-.71,.54-1.48,1.06-2.31,1.56,.79,.5,1.82,1.2,3.08,2.09,1.83-1.1,3.18-2.32,4.04-3.66Z"/><path class="cls-4" d="M125.27,76.21l-1.28-.71c.42-.57,.93-1.5,1.53-2.79s1.04-2.34,1.3-3.16l1.25,.42c-.25,.84-.67,1.94-1.28,3.3s-1.11,2.34-1.52,2.94Zm1.73-9.71c-.8-1.09-1.68-2.14-2.65-3.16l1.12-.77c.97,.97,1.85,2,2.65,3.1l-1.12,.83Zm6.98,4.09c-.39,1.66-1.17,3.09-2.33,4.28s-2.37,2.05-3.63,2.58l-.69-.9c1.09-.58,2.01-1.22,2.76-1.91,.75-.69,1.36-1.48,1.83-2.36s.8-1.74,.97-2.57c.17-.84,.25-1.77,.25-2.81v-.91h1.39v.89c.01,.53,0,.94-.04,1.23,.21,1.54,.87,3.08,2,4.62s2.56,2.77,4.3,3.68l-.91,1.09c-1.36-.76-2.6-1.78-3.72-3.07s-1.85-2.57-2.18-3.85Zm-2.49-5.48c-.66,1.55-1.44,2.87-2.35,3.98l-1.01-.61c1.46-2.06,2.52-4.42,3.16-7.08l1.43,.22c-.15,.59-.41,1.38-.8,2.38h8.27l.27,.28c-.18,.75-.48,1.67-.91,2.75s-.77,1.86-1.05,2.33l-1.23-.31c.73-1.47,1.21-2.79,1.43-3.95h-7.22Z"/><path class="cls-4" d="M142.78,77.37l-.62-.95c1.42-.67,2.58-1.64,3.47-2.91s1.37-2.75,1.45-4.44h-4.3v-1.06h15.34v1.06h-5.26v6.15c0,.24,.06,.42,.19,.55,.13,.13,.35,.2,.69,.22s.66,.03,.99,.03c.69,0,1.19-.04,1.5-.11s.53-.25,.64-.54c.11-.28,.17-1.04,.17-2.25l1.2,.14v2.41c0,.47-.18,.84-.55,1.09-.37,.26-1.22,.38-2.57,.38-.24,0-.69-.01-1.34-.04-.65-.03-1.06-.06-1.22-.09s-.33-.12-.5-.25-.31-.3-.41-.52c-.1-.22-.15-.48-.15-.78v-6.39h-3.06c-.25,3.87-2.14,6.63-5.67,8.3Zm1.05-13.53v-1.08h13.22v1.08h-13.22Z"/></g><g><path class="cls-4" d="M119.76,155.11c-1.16,1.63-3.09,3.26-5.78,4.89s-5.13,2.73-7.3,3.32l-.52-1.01c2.09-.64,4.21-1.57,6.36-2.8-.64-.5-1.54-1.13-2.69-1.89-1.08,.64-2.11,1.16-3.08,1.57l-.59-.91c3.38-1.55,5.85-3.27,7.4-5.16l1.38,.27c-.26,.4-.56,.76-.9,1.08h5.03l.69,.64Zm2.87,6.32c-1.2,2.11-3.11,3.89-5.76,5.35s-5.86,2.38-9.65,2.78l-.29-1.1c3.35-.38,6.23-1.19,8.63-2.42-.85-.65-1.83-1.36-2.95-2.12-1.35,.74-2.67,1.34-3.94,1.78l-.53-.91c1.54-.57,3.13-1.36,4.79-2.38s3.03-2.15,4.12-3.39l1.25,.37c-.33,.43-.7,.87-1.12,1.3h4.7l.76,.72Zm-4.74-5.97h-4.91c-.66,.52-1.35,1.02-2.09,1.5,1.09,.69,2.01,1.32,2.77,1.87,1.83-1.13,3.24-2.26,4.24-3.38Zm2.94,6.26h-4.81c-.71,.54-1.48,1.06-2.31,1.56,.79,.5,1.82,1.2,3.08,2.09,1.83-1.1,3.18-2.32,4.04-3.66Z"/><path class="cls-4" d="M125.27,168.21l-1.28-.71c.42-.57,.93-1.5,1.53-2.79s1.04-2.34,1.3-3.16l1.25,.42c-.25,.84-.67,1.94-1.28,3.3s-1.11,2.34-1.52,2.94Zm1.73-9.71c-.8-1.09-1.68-2.14-2.65-3.16l1.12-.77c.97,.97,1.85,2,2.65,3.1l-1.12,.83Zm6.98,4.09c-.39,1.66-1.17,3.09-2.33,4.28s-2.37,2.05-3.63,2.58l-.69-.9c1.09-.58,2.01-1.22,2.76-1.91,.75-.69,1.36-1.48,1.83-2.36s.8-1.74,.97-2.57c.17-.84,.25-1.77,.25-2.81v-.91h1.39v.89c.01,.53,0,.94-.04,1.23,.21,1.54,.87,3.08,2,4.62s2.56,2.77,4.3,3.68l-.91,1.09c-1.36-.76-2.6-1.78-3.72-3.07s-1.85-2.57-2.18-3.85Zm-2.49-5.48c-.66,1.55-1.44,2.87-2.35,3.98l-1.01-.61c1.46-2.06,2.52-4.42,3.16-7.08l1.43,.22c-.15,.59-.41,1.38-.8,2.38h8.27l.27,.28c-.18,.75-.48,1.67-.91,2.75s-.77,1.86-1.05,2.33l-1.23-.31c.73-1.47,1.21-2.79,1.43-3.95h-7.22Z"/><path class="cls-4" d="M142.78,169.37l-.62-.95c1.42-.67,2.58-1.64,3.47-2.91s1.37-2.75,1.45-4.44h-4.3v-1.06h15.34v1.06h-5.26v6.15c0,.24,.06,.42,.19,.55,.13,.13,.35,.2,.69,.22s.66,.03,.99,.03c.69,0,1.19-.04,1.5-.11s.53-.25,.64-.54c.11-.28,.17-1.04,.17-2.25l1.2,.14v2.41c0,.47-.18,.84-.55,1.09-.37,.26-1.22,.38-2.57,.38-.24,0-.69-.01-1.34-.04-.65-.03-1.06-.06-1.22-.09s-.33-.12-.5-.25-.31-.3-.41-.52c-.1-.22-.15-.48-.15-.78v-6.39h-3.06c-.25,3.87-2.14,6.63-5.67,8.3Zm1.05-13.53v-1.08h13.22v1.08h-13.22Z"/></g><g><path class="cls-4" d="M113.71,207.94v1.23h-1.23v-11.36h4.03v10.13h-2.8Zm1.63-9.16h-1.63v8.21h1.63v-8.21Zm1.21,13.77l-.4-.94c1.65-.4,3.02-.94,4.13-1.6l.81,.87c-.5,.29-1.22,.61-2.16,.95-.93,.34-1.73,.58-2.38,.72Zm1.39-2.74v-7.25h1.53v-1.15h-2.17v-.91h2.17v-1.03h1.28v1.03h4.18v-1.03h1.27v1.03h2.56v.91h-2.56v1.15h1.49v7.25h-9.76Zm4.3-10.04v-1.06h-4.28l.02-.98h4.26v-1.2h1.3v1.2h4.6v.98h-4.6v1.06h-1.3Zm-3.01,4.92h7.15v-1.29h-7.15v1.29Zm0,2.06h7.15v-1.23h-7.15v1.23Zm7.15,.83h-7.15v1.28h7.15v-1.28Zm-5.63-5.02h4.18v-1.15h-4.18v1.15Zm7.58,9.9c-1.56-.48-2.9-1.05-4.03-1.71l.79-.81c1.38,.7,2.69,1.22,3.93,1.56l-.69,.95Z"/><path class="cls-4" d="M130.19,211.06l-.66-.89c.78-.51,1.59-1.25,2.43-2.22,.84-.97,1.55-2.06,2.12-3.27,.57-1.21,.88-2.18,.94-2.91h-4.41v-1.09h5.68l.31,.39c-.26,1.89-.99,3.78-2.18,5.68s-2.6,3.34-4.22,4.32Zm7.2,1.28h-2.55l-.2-1.25h2.22c.56,0,.84-.25,.84-.74v-13.69h1.43v3.72c.35,.91,.82,1.86,1.42,2.85,1.61-1.25,3.06-2.63,4.37-4.14l1.12,.83c-.54,.59-1.32,1.33-2.35,2.21s-1.87,1.56-2.54,2.03c.79,1.17,1.73,2.26,2.8,3.28s2.12,1.82,3.13,2.43l-1.01,1.08c-1.47-1.01-2.82-2.23-4.05-3.67s-2.19-2.88-2.88-4.34v8.04c0,.41-.16,.74-.49,.99-.33,.25-.75,.37-1.26,.37Z"/></g><g><path class="cls-4" d="M103.52,241.2c0,2.13-.36,4.24-1.09,6.34s-2.13,3.81-4.2,5.15-4.69,2.16-7.85,2.48l-.36-1.33c3.11-.29,5.81-1.25,8.1-2.87,2.29-1.62,3.56-4.45,3.81-8.48h-12.23v-1.29h13.81Z"/><path class="cls-4" d="M121.59,245.34c-.06,1.05-.16,1.87-.28,2.45s-.44,1.39-.94,2.43-1.24,1.92-2.19,2.63c-.96,.71-2.14,1.27-3.57,1.66-1.42,.39-3.1,.62-5.04,.67l-.25-1.27c3.33-.08,5.87-.71,7.61-1.9,1.74-1.19,2.76-3,3.07-5.43h-12.76v-1.24h14.36Zm-.61-3.11h-13.05v-1.23h13.05v1.23Z"/><path class="cls-4" d="M134.65,255.23h-1.56v-8.75c-2.57,1.37-5.31,2.39-8.23,3.07l-.47-1.2c3.8-.98,6.8-2.21,9-3.68s3.85-3,4.95-4.58l1.44,.56c-1.07,1.59-2.78,3.2-5.13,4.82v9.77Z"/><path class="cls-4" d="M148.15,240.8c-.09,3.45-.62,6.26-1.61,8.42s-2.38,4-4.19,5.53l-.88-.95c.67-.6,1.27-1.22,1.78-1.85s.96-1.31,1.34-2.04c.38-.73,.73-1.48,1.03-2.25s.55-1.73,.72-2.87c.17-1.14,.28-2.46,.32-3.98h1.49Zm10.55,12.8l-1.13,.99c-.94-.97-1.81-2.22-2.6-3.77s-1.35-3.29-1.69-5.24-.5-3.57-.5-4.89h1.46v.14c0,2.52,.35,4.88,1.05,7.07,.7,2.2,1.84,4.09,3.41,5.69Zm-3.81-12.61c0-.53,.19-.97,.58-1.33s.84-.54,1.36-.54c.57,0,1.04,.19,1.41,.56,.37,.37,.55,.8,.55,1.3,0,.56-.2,1.02-.59,1.38s-.84,.54-1.34,.54c-.57,0-1.05-.19-1.42-.57-.37-.38-.56-.83-.56-1.34Zm1.94,1.27c.35,0,.65-.12,.9-.37,.25-.24,.38-.53,.38-.87s-.13-.65-.38-.91-.55-.38-.91-.38c-.33,0-.62,.12-.87,.37s-.38,.54-.38,.88,.13,.64,.38,.89,.54,.38,.88,.38Z"/><path class="cls-4" d="M176.46,246.44c-.98,1.72-2.26,3.2-3.83,4.45s-3.2,2.18-4.9,2.79-3.69,1.04-5.99,1.29l-.31-1.35c1.91-.19,3.62-.54,5.13-1.05,1.51-.51,2.79-1.12,3.85-1.84s1.94-1.43,2.66-2.14c.72-.71,1.45-1.68,2.19-2.91l1.2,.76Zm-7.66-2.23l-.99,1.15c-2.09-1.29-4.18-2.38-6.26-3.26l.76-1.1c2.19,.82,4.36,1.89,6.5,3.21Z"/></g><g><path class="cls-4" d="M108.08,296.89v-1.76h.14c1.14,.74,2.33,1.12,3.57,1.12,.95,0,1.71-.27,2.28-.81s.86-1.29,.86-2.25c0-1.73-1.19-2.6-3.57-2.6-.68,0-1.58,.12-2.71,.35v-6.79h7.87v1.42h-6.28v3.75c.77-.08,1.29-.11,1.56-.11,1.58,0,2.77,.34,3.59,1.02s1.22,1.67,1.22,2.97-.44,2.38-1.32,3.22-2.03,1.25-3.46,1.25-2.63-.26-3.74-.77Z"/><path class="cls-4" d="M131.93,298.44l-.18-1.21h2.26c1,0,1.58-.46,1.74-1.38s.24-1.7,.24-2.35h-9.44l-.24,1.06h-1.4l.97-4.17h-3.04v-1.09h16.66v1.09h-12.23l-.46,2.04h10.66c0,.72-.04,1.47-.11,2.24s-.2,1.46-.39,2.07-.46,1.04-.83,1.29-.78,.38-1.24,.39-1.09,.02-1.88,.02h-1.11Zm-6.9-10.78v-4.51h12.34v4.51h-12.34Zm10.96-3.52h-9.6v2.54h9.6v-2.54Z"/><path class="cls-4" d="M141.12,298.36l-.27-1.1,1.1-.23v-9.96c-.32,.28-.63,.52-.94,.75l-.62-.86c1.56-1.18,2.79-2.68,3.69-4.48h1.56c.71,1.18,1.61,2.14,2.68,2.88l-.72,.91c-.94-.67-1.83-1.61-2.66-2.8-.68,1.2-1.58,2.31-2.72,3.36h2.14v-1.3h1.2v1.3h2.19v6.12h-4.54v3.81c1.51-.33,2.63-.61,3.38-.82-.32-.7-.57-1.23-.77-1.6l1.15-.46c.8,1.48,1.43,2.83,1.89,4.06l-1.25,.37c-.17-.44-.37-.92-.61-1.45-1.34,.42-3.3,.92-5.89,1.5Zm2.09-8.94h3.3v-1.65h-3.3v1.65Zm3.3,.86h-3.3v1.71h3.3v-1.71Zm9.83-3.36v-1.85h-6.74v1.89h-1.14v-2.9h3.71v-1.62l1.36,.02v1.6h4v2.87h-1.19Zm-.7,11.57v-.62h-4.55v.64h-1.27v-11.87h6.3v4.43h-5.04v1.85h5.84v5.56h-1.28Zm-.81-10.87h-3.74v2.44h3.74v-2.44Zm.81,6.35h-4.55v2.84h4.55v-2.84Z"/></g><g><path class="cls-4" d="M88.73,333.73c0,1.48-.24,2.68-.73,3.61s-1.26,1.72-2.32,2.37c-1.05,.65-2.4,1.14-4.04,1.47l-.47-1.24c1.84-.39,3.3-1.04,4.38-1.95,1.08-.91,1.62-2.22,1.62-3.94v-.91h-7.97v-1.28h16.45v1.28h-6.91v.59Zm5.83-5.4h-14.34v-1.22h14.34v1.22Z"/><path class="cls-4" d="M113.46,332.44c-.98,1.72-2.26,3.2-3.83,4.45s-3.2,2.18-4.9,2.79-3.69,1.04-5.99,1.29l-.31-1.35c1.91-.19,3.62-.54,5.13-1.05,1.51-.51,2.79-1.12,3.85-1.84s1.94-1.43,2.66-2.14c.72-.71,1.45-1.68,2.19-2.91l1.2,.76Zm-7.66-2.23l-.99,1.15c-2.09-1.29-4.18-2.38-6.26-3.26l.76-1.1c2.19,.82,4.36,1.89,6.5,3.21Z"/><path class="cls-4" d="M131.5,334.92l-.92,1.22c-1.22-.81-2.67-1.61-4.37-2.4s-3.2-1.38-4.53-1.78v9.33h-1.56v-15.39h1.58v4.71c3.47,1.04,6.74,2.48,9.8,4.31Z"/><path class="cls-4" d="M139.81,333.96c0-.45,.16-.83,.47-1.14s.7-.47,1.14-.47,.83,.16,1.14,.47,.47,.7,.47,1.14-.16,.83-.47,1.14-.7,.47-1.14,.47-.83-.16-1.14-.47-.47-.7-.47-1.14Z"/><path class="cls-4" d="M151.46,338.27l-.22-1.18c.91-.1,2.34-.3,4.3-.59v-1.74h.81c.38-.19,.99-.61,1.85-1.25h-4.34c-.79,.44-1.67,.87-2.64,1.3l-.42-.84c1.92-.78,3.59-1.77,5.02-2.97l.04-.04h-4.51v-1.01h3.36v-2h-2.72v-1.01h2.72v-1.37h1.34v1.37h2.21v1.01h-2.21v2h.92c1.21-1.17,2.17-2.4,2.87-3.69l1.2,.46c-.68,1.07-1.53,2.15-2.54,3.23h1.48v1.01h-2.49c-.64,.58-1.37,1.14-2.18,1.67h4.04l.69,.66c-.18,.22-.68,.62-1.48,1.2s-1.38,.95-1.71,1.11v.7c2.03-.32,3.39-.55,4.07-.7l.06,1.01c-.49,.13-1.87,.39-4.13,.77v2.95c0,.34-.15,.61-.44,.81s-.61,.3-.96,.3h-1.99l-.14-1.2h1.52c.45,0,.68-.18,.68-.55v-2.09l-4.08,.66Zm12.59-.44c-1.18,1.56-2.71,2.81-4.58,3.73l-.66-.91c1.92-1.05,3.43-2.4,4.52-4.03-.93-1.71-1.57-3.47-1.93-5.27-.19,.32-.41,.64-.66,.98l-.91-.61c.54-.85,1.05-1.9,1.52-3.15s.79-2.35,.96-3.31l1.36,.18c-.25,1.1-.52,2.06-.83,2.88h4.96v1.06h-.94c-.13,2.7-.8,5.1-2,7.22,1.05,1.62,2.12,2.86,3.18,3.73l-.91,1.08c-1.16-1.01-2.19-2.2-3.08-3.58Zm.03-2.5c.96-1.89,1.44-3.87,1.44-5.93h-3.12s-.16,.35-.16,.35c.42,2.23,1.03,4.09,1.84,5.58Z"/><path class="cls-4" d="M169.49,341.03v-1.06h7.1v-2.54h-6.24v-1.06h6.24v-1.34h1.43v1.34h6.24v1.06h-6.24v2.54h7.32v1.06h-15.86Zm14.52-11.09v-1.87h-13.2v1.94h-1.23v-2.97h7.01v-1.47h1.43v1.47h7.22v2.9h-1.23Zm-11.13,3.44c.59-.78,1.19-1.69,1.8-2.74h-2.96v-1.01h11.22v1.01h-6.71c-.59,.94-1.22,1.84-1.89,2.7,3.47-.1,5.99-.2,7.54-.3-.66-.64-1.18-1.1-1.55-1.39l1.12-.61c.64,.45,1.82,1.52,3.52,3.22l-1.21,.68c-.18-.21-.5-.53-.96-.98-3.18,.23-7.44,.44-12.78,.62l-.18-1.13c.62,0,1.63-.02,3.03-.05Z"/></g><g><path class="cls-4" d="M119.76,421.11c-1.16,1.63-3.09,3.26-5.78,4.89s-5.13,2.73-7.3,3.32l-.52-1.01c2.09-.64,4.21-1.57,6.36-2.8-.64-.5-1.54-1.13-2.69-1.89-1.08,.64-2.11,1.16-3.08,1.57l-.59-.91c3.38-1.55,5.85-3.27,7.4-5.16l1.38,.27c-.26,.4-.56,.76-.9,1.08h5.03l.69,.64Zm2.87,6.32c-1.2,2.11-3.11,3.89-5.76,5.35s-5.86,2.38-9.65,2.78l-.29-1.1c3.35-.38,6.23-1.19,8.63-2.42-.85-.65-1.83-1.36-2.95-2.12-1.35,.74-2.67,1.34-3.94,1.78l-.53-.91c1.54-.57,3.13-1.36,4.79-2.38s3.03-2.15,4.12-3.39l1.25,.37c-.33,.43-.7,.87-1.12,1.3h4.7l.76,.72Zm-4.74-5.97h-4.91c-.66,.52-1.35,1.02-2.09,1.5,1.09,.69,2.01,1.32,2.77,1.87,1.83-1.13,3.24-2.26,4.24-3.38Zm2.94,6.26h-4.81c-.71,.54-1.48,1.06-2.31,1.56,.79,.5,1.82,1.2,3.08,2.09,1.83-1.1,3.18-2.32,4.04-3.66Z"/><path class="cls-4" d="M125.27,434.21l-1.28-.71c.42-.57,.93-1.5,1.53-2.79s1.04-2.34,1.3-3.16l1.25,.42c-.25,.84-.67,1.94-1.28,3.3s-1.11,2.34-1.52,2.94Zm1.73-9.71c-.8-1.09-1.68-2.14-2.65-3.16l1.12-.77c.97,.97,1.85,2,2.65,3.1l-1.12,.83Zm6.98,4.09c-.39,1.66-1.17,3.09-2.33,4.28s-2.37,2.05-3.63,2.58l-.69-.9c1.09-.58,2.01-1.22,2.76-1.91,.75-.69,1.36-1.48,1.83-2.36s.8-1.74,.97-2.57c.17-.84,.25-1.77,.25-2.81v-.91h1.39v.89c.01,.53,0,.94-.04,1.23,.21,1.54,.87,3.08,2,4.62s2.56,2.77,4.3,3.68l-.91,1.09c-1.36-.76-2.6-1.78-3.72-3.07s-1.85-2.57-2.18-3.85Zm-2.49-5.48c-.66,1.55-1.44,2.87-2.35,3.98l-1.01-.61c1.46-2.06,2.52-4.42,3.16-7.08l1.43,.22c-.15,.59-.41,1.38-.8,2.38h8.27l.27,.28c-.18,.75-.48,1.67-.91,2.75s-.77,1.86-1.05,2.33l-1.23-.31c.73-1.47,1.21-2.79,1.43-3.95h-7.22Z"/><path class="cls-4" d="M142.78,435.37l-.62-.95c1.42-.67,2.58-1.64,3.47-2.91s1.37-2.75,1.45-4.44h-4.3v-1.06h15.34v1.06h-5.26v6.15c0,.24,.06,.42,.19,.55,.13,.13,.35,.2,.69,.22s.66,.03,.99,.03c.69,0,1.19-.04,1.5-.11s.53-.25,.64-.54c.11-.28,.17-1.04,.17-2.25l1.2,.14v2.41c0,.47-.18,.84-.55,1.09-.37,.26-1.22,.38-2.57,.38-.24,0-.69-.01-1.34-.04-.65-.03-1.06-.06-1.22-.09s-.33-.12-.5-.25-.31-.3-.41-.52c-.1-.22-.15-.48-.15-.78v-6.39h-3.06c-.25,3.87-2.14,6.63-5.67,8.3Zm1.05-13.53v-1.08h13.22v1.08h-13.22Z"/></g><g><path class="cls-4" d="M95.69,473.66c-.17,.56-.41,1.16-.73,1.8h8.53l-.07,1.22c-.02,.35-.17,1.03-.45,2.05-.18,.65-.41,1.3-.67,1.96s-.62,1.34-1.05,2.04-.96,1.37-1.57,1.99-1.33,1.19-2.14,1.7-1.76,.97-2.83,1.37-2.23,.72-3.48,.97l-.52-1.27c3.38-.66,5.95-1.87,7.72-3.63s2.88-4.13,3.33-7.11h-7.49c-.69,1.14-1.55,2.21-2.57,3.23-1.02,1.02-2.09,1.85-3.2,2.49l-.83-.98c1.55-.98,2.91-2.24,4.06-3.77,1.15-1.53,1.94-2.95,2.35-4.28l1.62,.21Zm6.82,1.08l-1,.45c-.38-.86-.8-1.66-1.27-2.41l.96-.43c.52,.8,.95,1.6,1.31,2.39Zm2.58-.33l-1.01,.41c-.39-.91-.81-1.72-1.26-2.43l.92-.43c.46,.71,.91,1.53,1.34,2.44Z"/><path class="cls-4" d="M121.59,478.79c-.06,1.05-.16,1.87-.28,2.45s-.44,1.39-.94,2.43-1.24,1.92-2.19,2.63c-.96,.71-2.14,1.27-3.57,1.66-1.42,.39-3.1,.62-5.04,.67l-.25-1.27c3.33-.08,5.87-.71,7.61-1.9,1.74-1.19,2.76-3,3.07-5.43h-12.76v-1.24h14.36Zm-.61-3.11h-13.05v-1.23h13.05v1.23Z"/><path class="cls-4" d="M139.8,476.63c0,1.58-.1,2.89-.29,3.94-.19,1.05-.47,1.96-.84,2.72-.37,.77-.83,1.45-1.4,2.04-.57,.6-1.29,1.12-2.17,1.59-.88,.46-1.9,.85-3.06,1.14-1.16,.29-2.47,.51-3.91,.64l-.36-1.29c1.42-.14,2.64-.34,3.65-.6,1.01-.26,1.92-.6,2.73-1.03s1.43-.86,1.85-1.3c.59-.62,1.01-1.18,1.26-1.69s.46-1.22,.65-2.14c.19-.92,.28-1.96,.28-3.1v-.62h-11.53v4.93h-1.53v-6.12h6.53v-2.3h1.6v2.3h6.54v.88Z"/><path class="cls-4" d="M158.46,479.89c-.98,1.72-2.26,3.2-3.83,4.45s-3.2,2.18-4.9,2.79-3.69,1.04-5.99,1.29l-.31-1.35c1.91-.19,3.62-.54,5.13-1.05,1.51-.51,2.79-1.12,3.85-1.84s1.94-1.43,2.66-2.14c.72-.71,1.45-1.68,2.19-2.91l1.2,.76Zm-7.66-2.23l-.99,1.15c-2.09-1.29-4.18-2.38-6.26-3.26l.76-1.1c2.19,.82,4.36,1.89,6.5,3.21Z"/><path class="cls-4" d="M176.14,482.38l-.92,1.22c-1.22-.81-2.67-1.61-4.37-2.4s-3.2-1.38-4.53-1.78v9.33h-1.56v-15.39h1.58v4.71c3.47,1.04,6.74,2.48,9.8,4.31Zm-3.37-5.58l-1.01,.45c-.43-.97-.85-1.8-1.27-2.47l.95-.43c.52,.8,.96,1.61,1.34,2.45Zm2.55-.54l-1,.41c-.38-.88-.8-1.69-1.27-2.43l.92-.43c.46,.71,.91,1.53,1.34,2.44Z"/></g><g><path class="cls-4" d="M103.52,528.04c0,2.13-.36,4.24-1.09,6.34s-2.13,3.81-4.2,5.15-4.69,2.16-7.85,2.48l-.36-1.33c3.11-.29,5.81-1.25,8.1-2.87,2.29-1.62,3.56-4.45,3.81-8.48h-12.23v-1.29h13.81Z"/><path class="cls-4" d="M121.59,532.18c-.06,1.05-.16,1.87-.28,2.45s-.44,1.39-.94,2.43-1.24,1.92-2.19,2.63c-.96,.71-2.14,1.27-3.57,1.66-1.42,.39-3.1,.62-5.04,.67l-.25-1.27c3.33-.08,5.87-.71,7.61-1.9,1.74-1.19,2.76-3,3.07-5.43h-12.76v-1.24h14.36Zm-.61-3.11h-13.05v-1.23h13.05v1.23Z"/><path class="cls-4" d="M134.65,542.08h-1.56v-8.75c-2.57,1.37-5.31,2.39-8.23,3.07l-.47-1.2c3.8-.98,6.8-2.21,9-3.68s3.85-3,4.95-4.58l1.44,.56c-1.07,1.59-2.78,3.2-5.13,4.82v9.77Z"/><path class="cls-4" d="M148.15,527.64c-.09,3.45-.62,6.26-1.61,8.42s-2.38,4-4.19,5.53l-.88-.95c.67-.6,1.27-1.22,1.78-1.85s.96-1.31,1.34-2.04c.38-.73,.73-1.48,1.03-2.25s.55-1.73,.72-2.87c.17-1.14,.28-2.46,.32-3.98h1.49Zm10.55,12.8l-1.13,.99c-.94-.97-1.81-2.22-2.6-3.77s-1.35-3.29-1.69-5.24-.5-3.57-.5-4.89h1.46v.14c0,2.52,.35,4.88,1.05,7.07,.7,2.2,1.84,4.09,3.41,5.69Zm-3.81-12.61c0-.53,.19-.97,.58-1.33s.84-.54,1.36-.54c.57,0,1.04,.19,1.41,.56,.37,.37,.55,.8,.55,1.3,0,.56-.2,1.02-.59,1.38s-.84,.54-1.34,.54c-.57,0-1.05-.19-1.42-.57-.37-.38-.56-.83-.56-1.34Zm1.94,1.27c.35,0,.65-.12,.9-.37,.25-.24,.38-.53,.38-.87s-.13-.65-.38-.91-.55-.38-.91-.38c-.33,0-.62,.12-.87,.37s-.38,.54-.38,.88,.13,.64,.38,.89,.54,.38,.88,.38Z"/><path class="cls-4" d="M176.46,533.28c-.98,1.72-2.26,3.2-3.83,4.45s-3.2,2.18-4.9,2.79-3.69,1.04-5.99,1.29l-.31-1.35c1.91-.19,3.62-.54,5.13-1.05,1.51-.51,2.79-1.12,3.85-1.84s1.94-1.43,2.66-2.14c.72-.71,1.45-1.68,2.19-2.91l1.2,.76Zm-7.66-2.23l-.99,1.15c-2.09-1.29-4.18-2.38-6.26-3.26l.76-1.1c2.19,.82,4.36,1.89,6.5,3.21Z"/></g><g><path class="cls-4" d="M108.08,647.5v-1.76h.14c1.14,.74,2.33,1.12,3.57,1.12,.95,0,1.71-.27,2.28-.81s.86-1.29,.86-2.25c0-1.73-1.19-2.6-3.57-2.6-.68,0-1.58,.12-2.71,.35v-6.79h7.87v1.42h-6.28v3.75c.77-.08,1.29-.11,1.56-.11,1.58,0,2.77,.34,3.59,1.02s1.22,1.67,1.22,2.97-.44,2.38-1.32,3.22-2.03,1.25-3.46,1.25-2.63-.26-3.74-.77Z"/><path class="cls-4" d="M131.93,649.06l-.18-1.21h2.26c1,0,1.58-.46,1.74-1.38s.24-1.7,.24-2.35h-9.44l-.24,1.06h-1.4l.97-4.17h-3.04v-1.09h16.66v1.09h-12.23l-.46,2.04h10.66c0,.72-.04,1.47-.11,2.24s-.2,1.46-.39,2.07-.46,1.04-.83,1.29-.78,.38-1.24,.39-1.09,.02-1.88,.02h-1.11Zm-6.9-10.78v-4.51h12.34v4.51h-12.34Zm10.96-3.52h-9.6v2.54h9.6v-2.54Z"/><path class="cls-4" d="M141.12,648.97l-.27-1.1,1.1-.23v-9.96c-.32,.28-.63,.52-.94,.75l-.62-.86c1.56-1.18,2.79-2.68,3.69-4.48h1.56c.71,1.18,1.61,2.14,2.68,2.88l-.72,.91c-.94-.67-1.83-1.61-2.66-2.8-.68,1.2-1.58,2.31-2.72,3.36h2.14v-1.3h1.2v1.3h2.19v6.12h-4.54v3.81c1.51-.33,2.63-.61,3.38-.82-.32-.7-.57-1.23-.77-1.6l1.15-.46c.8,1.48,1.43,2.83,1.89,4.06l-1.25,.37c-.17-.44-.37-.92-.61-1.45-1.34,.42-3.3,.92-5.89,1.5Zm2.09-8.94h3.3v-1.65h-3.3v1.65Zm3.3,.86h-3.3v1.71h3.3v-1.71Zm9.83-3.36v-1.85h-6.74v1.89h-1.14v-2.9h3.71v-1.62l1.36,.02v1.6h4v2.87h-1.19Zm-.7,11.57v-.62h-4.55v.64h-1.27v-11.87h6.3v4.43h-5.04v1.85h5.84v5.56h-1.28Zm-.81-10.87h-3.74v2.44h3.74v-2.44Zm.81,6.35h-4.55v2.84h4.55v-2.84Z"/></g><g><path class="cls-4" d="M79.55,587.96c0,1.49-.24,2.7-.73,3.62-.49,.92-1.26,1.71-2.32,2.35s-2.41,1.14-4.05,1.48l-.47-1.24c1.84-.39,3.3-1.04,4.38-1.95,1.08-.91,1.62-2.22,1.62-3.94v-.91h-7.88v-1.28h16.18v1.28h-6.73v.59Zm3.33-5.4h-11.75v-1.22h11.75v1.22Zm1.91-.65l-1.01,.45c-.42-.96-.85-1.78-1.27-2.46l.95-.43c.52,.81,.97,1.62,1.34,2.44Zm2.41-.54l-1,.41c-.39-.9-.81-1.71-1.27-2.43l.92-.43c.45,.7,.9,1.51,1.34,2.45Z"/><path class="cls-4" d="M92.77,590h-1.53v-4.45h-3.47v-1.27h3.47v-3.55h1.53v3.55h6.75v-3.62h1.53v3.62h3.5v1.27h-3.5v2.13c0,4.91-3.39,7.48-10.17,7.7l-.29-1.31c3.29-.12,5.6-.74,6.93-1.87s2-2.62,2-4.48v-2.16h-6.75v4.45Zm10.42-7.83l-.99,.41c-.24-.58-.63-1.42-1.17-2.5l.92-.4c.44,.75,.85,1.58,1.24,2.49Zm2.11-.6l-.99,.38c-.4-1.01-.79-1.83-1.17-2.46l.9-.4c.42,.71,.84,1.54,1.27,2.48Z"/><path class="cls-4" d="M116.65,595.46h-1.56v-8.75c-2.57,1.37-5.31,2.39-8.23,3.07l-.47-1.2c3.8-.98,6.8-2.21,9-3.68s3.85-3,4.95-4.58l1.44,.56c-1.07,1.59-2.78,3.2-5.13,4.82v9.77Z"/><path class="cls-4" d="M140.46,586.66c-.98,1.72-2.26,3.2-3.83,4.45s-3.2,2.18-4.9,2.79-3.69,1.04-5.99,1.29l-.31-1.35c1.91-.19,3.62-.54,5.13-1.05,1.51-.51,2.79-1.12,3.85-1.84s1.94-1.43,2.66-2.14c.72-.71,1.45-1.68,2.19-2.91l1.2,.76Zm-7.66-2.23l-.99,1.15c-2.09-1.29-4.18-2.38-6.26-3.26l.76-1.1c2.19,.82,4.36,1.89,6.5,3.21Z"/><path class="cls-4" d="M156.87,594.65h-13.81v-1.26h12.3v-10.24h-12.13v-1.21h13.64v12.71Z"/><path class="cls-4" d="M176.38,588.28h-9.12v3.44c0,.76,.16,1.26,.48,1.48,.32,.23,.82,.34,1.52,.34h6.21v1.3h-6.28c-.6,0-1.11-.06-1.55-.18-.44-.12-.8-.3-1.08-.54s-.48-.53-.6-.88c-.12-.35-.18-.9-.18-1.66v-3.3h-5.29v-1.22h5.36v-4.41h-4.77v-1.2h14.12v1.2h-7.88v4.41h9.07v1.22Z"/><path class="cls-4" d="M194.46,586.66c-.98,1.72-2.26,3.2-3.83,4.45s-3.2,2.18-4.9,2.79-3.69,1.04-5.99,1.29l-.31-1.35c1.91-.19,3.62-.54,5.13-1.05,1.51-.51,2.79-1.12,3.85-1.84s1.94-1.43,2.66-2.14c.72-.71,1.45-1.68,2.19-2.91l1.2,.76Zm-7.66-2.23l-.99,1.15c-2.09-1.29-4.18-2.38-6.26-3.26l.76-1.1c2.19,.82,4.36,1.89,6.5,3.21Z"/></g><g><path class="cls-4" d="M88.73,694.73c0,1.48-.24,2.68-.73,3.61s-1.26,1.72-2.32,2.37c-1.05,.65-2.4,1.14-4.04,1.47l-.47-1.24c1.84-.39,3.3-1.04,4.38-1.95,1.08-.91,1.62-2.22,1.62-3.94v-.91h-7.97v-1.28h16.45v1.28h-6.91v.59Zm5.83-5.4h-14.34v-1.22h14.34v1.22Z"/><path class="cls-4" d="M113.46,693.44c-.98,1.72-2.26,3.2-3.83,4.45s-3.2,2.18-4.9,2.79-3.69,1.04-5.99,1.29l-.31-1.35c1.91-.19,3.62-.54,5.13-1.05,1.51-.51,2.79-1.12,3.85-1.84s1.94-1.43,2.66-2.14c.72-.71,1.45-1.68,2.19-2.91l1.2,.76Zm-7.66-2.23l-.99,1.15c-2.09-1.29-4.18-2.38-6.26-3.26l.76-1.1c2.19,.82,4.36,1.89,6.5,3.21Z"/><path class="cls-4" d="M131.5,695.92l-.92,1.22c-1.22-.81-2.67-1.61-4.37-2.4s-3.2-1.38-4.53-1.78v9.33h-1.56v-15.39h1.58v4.71c3.47,1.04,6.74,2.48,9.8,4.31Z"/><path class="cls-4" d="M139.81,694.96c0-.45,.16-.83,.47-1.14s.7-.47,1.14-.47,.83,.16,1.14,.47,.47,.7,.47,1.14-.16,.83-.47,1.14-.7,.47-1.14,.47-.83-.16-1.14-.47-.47-.7-.47-1.14Z"/><path class="cls-4" d="M151.46,699.27l-.22-1.18c.91-.1,2.34-.3,4.3-.59v-1.74h.81c.38-.19,.99-.61,1.85-1.25h-4.34c-.79,.44-1.67,.87-2.64,1.3l-.42-.84c1.92-.78,3.59-1.77,5.02-2.97l.04-.04h-4.51v-1.01h3.36v-2h-2.72v-1.01h2.72v-1.37h1.34v1.37h2.21v1.01h-2.21v2h.92c1.21-1.17,2.17-2.4,2.87-3.69l1.2,.46c-.68,1.07-1.53,2.15-2.54,3.23h1.48v1.01h-2.49c-.64,.58-1.37,1.14-2.18,1.67h4.04l.69,.66c-.18,.22-.68,.62-1.48,1.2s-1.38,.95-1.71,1.11v.7c2.03-.32,3.39-.55,4.07-.7l.06,1.01c-.49,.13-1.87,.39-4.13,.77v2.95c0,.34-.15,.61-.44,.81s-.61,.3-.96,.3h-1.99l-.14-1.2h1.52c.45,0,.68-.18,.68-.55v-2.09l-4.08,.66Zm12.59-.44c-1.18,1.56-2.71,2.81-4.58,3.73l-.66-.91c1.92-1.05,3.43-2.4,4.52-4.03-.93-1.71-1.57-3.47-1.93-5.27-.19,.32-.41,.64-.66,.98l-.91-.61c.54-.85,1.05-1.9,1.52-3.15s.79-2.35,.96-3.31l1.36,.18c-.25,1.1-.52,2.06-.83,2.88h4.96v1.06h-.94c-.13,2.7-.8,5.1-2,7.22,1.05,1.62,2.12,2.86,3.18,3.73l-.91,1.08c-1.16-1.01-2.19-2.2-3.08-3.58Zm.03-2.5c.96-1.89,1.44-3.87,1.44-5.93h-3.12s-.16,.35-.16,.35c.42,2.23,1.03,4.09,1.84,5.58Z"/><path class="cls-4" d="M169.49,702.03v-1.06h7.1v-2.54h-6.24v-1.06h6.24v-1.34h1.43v1.34h6.24v1.06h-6.24v2.54h7.32v1.06h-15.86Zm14.52-11.09v-1.87h-13.2v1.94h-1.23v-2.97h7.01v-1.47h1.43v1.47h7.22v2.9h-1.23Zm-11.13,3.44c.59-.78,1.19-1.69,1.8-2.74h-2.96v-1.01h11.22v1.01h-6.71c-.59,.94-1.22,1.84-1.89,2.7,3.47-.1,5.99-.2,7.54-.3-.66-.64-1.18-1.1-1.55-1.39l1.12-.61c.64,.45,1.82,1.52,3.52,3.22l-1.21,.68c-.18-.21-.5-.53-.96-.98-3.18,.23-7.44,.44-12.78,.62l-.18-1.13c.62,0,1.63-.02,3.03-.05Z"/></g><g class="cls-6"><line class="cls-2" x1="213.94" y1="34.21" x2="213.94" y2="734.21"/><line class="cls-2" x1="866.44" y1="34.21" x2="866.44" y2="734.21"/><line class="cls-2" x1="279.19" y1="34.21" x2="279.19" y2="734.21"/><line class="cls-2" x1="344.44" y1="34.21" x2="344.44" y2="734.21"/><line class="cls-2" x1="409.69" y1="34.21" x2="409.69" y2="734.21"/><line class="cls-2" x1="474.94" y1="34.21" x2="474.94" y2="734.21"/><line class="cls-2" x1="540.19" y1="34.21" x2="540.19" y2="734.21"/><line class="cls-2" x1="605.44" y1="34.21" x2="605.44" y2="734.21"/><line class="cls-2" x1="670.69" y1="34.21" x2="670.69" y2="734.21"/><line class="cls-2" x1="735.94" y1="34.21" x2="735.94" y2="734.21"/><line class="cls-2" x1="801.19" y1="34.21" x2="801.19" y2="734.21"/><line class="cls-2" x1="931.69" y1="34.21" x2="931.69" y2="734.21"/><line class="cls-2" x1="996.94" y1="34.21" x2="996.94" y2="734.21"/></g><g><path class="cls-1" d="M657.85,76.39v-2.68l4.61-7.76h-4.3v-3.12h8.36v2.86l-4.56,7.65h4.56v3.05h-8.66Z"/><path class="cls-1" d="M674.26,71.63h3.55v.34c0,1.59-.41,2.78-1.24,3.58s-2.06,1.2-3.7,1.2c-.83,0-1.58-.12-2.25-.35s-1.2-.56-1.57-.97c-.42-.48-.72-1.11-.9-1.9s-.27-2.05-.27-3.79c0-1.91,.09-3.25,.28-4.01s.5-1.38,.94-1.88c.43-.46,.97-.81,1.63-1.04s1.43-.35,2.3-.35,1.66,.13,2.31,.38,1.18,.63,1.58,1.13c.34,.42,.59,.93,.74,1.51s.22,1.59,.22,3v1.63h-6.16s-.01,.09-.01,.15c-.03,.57-.05,.97-.05,1.2,0,.95,.1,1.62,.3,1.99s.55,.56,1.04,.56c.43,0,.75-.14,.97-.43s.33-.72,.33-1.29c0-.12-.01-.3-.04-.54,0-.05-.01-.09-.01-.12Zm-2.45-3.86h2.54v-.07c.03-.34,.05-.59,.05-.73,0-.66-.11-1.15-.32-1.47s-.55-.47-1-.47-.79,.15-.99,.46-.3,.82-.3,1.53c0,.2,0,.35,0,.46s0,.21,.02,.29Z"/><path class="cls-1" d="M680.19,76.39v-13.56h3.55v1.61c.41-.64,.89-1.11,1.42-1.42s1.15-.46,1.86-.46c1.05,0,1.81,.35,2.3,1.05s.73,1.81,.73,3.32v9.46h-3.76v-8.38c0-1.09-.07-1.76-.21-2.03s-.39-.4-.75-.4c-.42,0-.75,.21-.99,.62s-.36,.98-.36,1.72v8.47h-3.79Z"/><path class="cls-1" d="M691.49,62.83h3.75l1.32,8.73,1.34-8.73h3.75l-2.7,12.46c-.52,2.39-1.09,3.93-1.73,4.62s-1.66,1.04-3.06,1.04c-.2,0-.43-.01-.69-.04s-.54-.06-.87-.11v-2.84s.04,0,.07,.01c.27,.02,.46,.04,.57,.04,.43,0,.75-.08,.96-.24s.31-.41,.31-.74c0-.21-.08-.68-.23-1.39-.05-.25-.09-.44-.12-.57l-2.67-12.23Z"/><path class="cls-1" d="M709.67,76.39l-.22-1.24c-.48,.5-1,.88-1.56,1.13s-1.18,.38-1.85,.38c-1.06,0-1.9-.34-2.53-1.03s-.93-1.62-.93-2.79c0-1.02,.26-1.87,.79-2.53s1.39-1.24,2.6-1.72c.29-.11,.68-.25,1.17-.43,1.41-.52,2.12-1.1,2.12-1.75,0-.4-.1-.7-.3-.91s-.5-.31-.88-.31c-.46,0-.8,.14-1.03,.42s-.33,.71-.33,1.28v.09h-3.8c0-1.53,.43-2.67,1.28-3.42s2.14-1.12,3.88-1.12c.78,0,1.48,.07,2.09,.22s1.13,.35,1.54,.63c.53,.36,.9,.79,1.12,1.3s.32,1.43,.32,2.78v5.23c0,1.06,.04,1.87,.11,2.43s.2,1.01,.37,1.37h-3.96Zm-.48-6.53c-.98,.27-1.69,.61-2.14,1.02s-.67,.91-.67,1.52c0,.43,.11,.77,.33,1.03s.52,.39,.9,.39c.55,0,.96-.19,1.21-.56s.38-1,.38-1.89v-1.51Z"/></g><rect class="cls-8" x="279.94" y="677.21" width="521" height="36" rx="18" ry="18"/><g><path class="cls-1" d="M468.35,695.48h-15.91v-2.34h15.91v2.34Z"/><path class="cls-1" d="M474.63,700.05h-1.17v-3.84l-.64,.09c-.11,3.12-.66,5.49-1.64,7.12l-1.61-.67c.39-.7,.71-1.64,.94-2.82,.23-1.17,.36-2.3,.39-3.39-.28,.04-.55,.06-.8,.09l-.27-1.65c.23-.01,.59-.04,1.08-.08v-5.72h1.91c.24-.69,.43-1.32,.58-1.89l2.15,.25c-.18,.5-.42,1.05-.71,1.63h2.44v4.96l.41-.08v1.46c-.12,.03-.25,.06-.41,.1v6.19c0,.4-.16,.73-.49,.98s-.73,.38-1.23,.38h-1.92l-.23-1.76h1.36c.39,0,.58-.16,.58-.47v-5l-.72,.11v4.01Zm-1.78-5.34c.78-.09,1.61-.19,2.5-.3v-3.75h-2.5v4.05Zm2.16-1.01l-1.15,.31-.74-2.43,1.1-.27,.79,2.39Zm11.92-3.16v1.92c0,.33-.1,.62-.31,.87s-.44,.4-.69,.46c-.25,.06-.7,.09-1.32,.09-.52,0-.93-.02-1.23-.05s-.53-.11-.68-.22c-.16-.11-.28-.26-.37-.45-.09-.19-.14-.39-.14-.61v-3.09h-1.31v.5c0,1.88-.67,3.32-2,4.32l-1.46-1.2c.86-.86,1.28-2.02,1.28-3.5v-1.76h5.7v4.1c0,.18,.07,.27,.22,.27h.28c.16,0,.26-.09,.29-.27,.03-.18,.05-.71,.05-1.6l1.68,.22Zm-.53,4.01c-.03,2.15-.74,3.98-2.12,5.49,.79,.45,1.74,.85,2.86,1.2l-1.22,2c-1.3-.39-2.47-.94-3.51-1.67-1.22,.83-2.55,1.42-4,1.76l-.83-1.78c1.32-.41,2.39-.88,3.21-1.4-.96-1.01-1.64-2.24-2.05-3.71h-.62v-1.9h8.28Zm-3.96,4.25c.66-.74,1.11-1.52,1.34-2.35h-2.82c.3,.88,.79,1.66,1.49,2.35Z"/><path class="cls-1" d="M504.6,695.52h-6.42v.27c0,2.06-.65,3.73-1.96,5.03s-3.15,2.16-5.52,2.6l-.79-2.18c1.79-.38,3.17-1.02,4.14-1.93s1.45-2.04,1.45-3.4v-.4h-7.28v-2.27h16.4v2.27Zm-1.08-4.57h-14.26v-2.25h14.26v2.25Z"/><path class="cls-1" d="M515.73,691.98l-1.61,2.18c-.87-.56-1.64-1.03-2.31-1.41s-2.19-1.17-4.55-2.36l1.39-2.01c1.84,.73,4.2,1.93,7.08,3.59Zm7.13,2.14c-1.49,2.75-3.43,4.84-5.83,6.28s-5.43,2.34-9.1,2.7l-.6-2.46c2-.18,3.67-.49,5.01-.91s2.51-.99,3.51-1.68c1-.69,1.86-1.4,2.57-2.12s1.48-1.79,2.32-3.21l2.11,1.41Z"/><path class="cls-1" d="M540.52,696.65l-1.66,2.08c-2.5-1.69-5.08-3-7.76-3.92v8.57h-2.77v-15.86h2.79v4.69c2.96,.96,6.1,2.43,9.4,4.43Z"/><path class="cls-1" d="M552.11,695.88c0,.5-.18,.92-.53,1.27s-.78,.53-1.27,.53-.92-.18-1.27-.53-.53-.78-.53-1.27,.18-.92,.53-1.27,.78-.53,1.27-.53,.92,.18,1.27,.53,.53,.78,.53,1.27Z"/><path class="cls-1" d="M569.91,699.08c-.36,.09-1.54,.28-3.53,.57v2.21c0,.45-.19,.8-.58,1.05s-.8,.39-1.24,.39h-2.09l-.33-2.07h1.42c.33,0,.5-.14,.5-.41v-.84c-1.71,.22-2.93,.36-3.65,.41l-.33-2.08c.8-.02,2.13-.11,3.97-.28v-1.59h1.15l1.13-.69h-3.21c-.84,.47-1.76,.92-2.77,1.36l-.84-1.62c1.65-.76,3-1.52,4.07-2.29h-3.33v-1.73h3.02v-1h-2.56v-1.73h2.56v-1.35h2.3v1.35h1.7v.99c.44-.57,.83-1.19,1.17-1.84l1.87,.86c-.59,.99-1.23,1.9-1.92,2.72h.58v1.73h-2.24c-.34,.3-.7,.6-1.08,.9h2.7l.91,1.25c-.26,.26-.72,.62-1.36,1.08s-1.16,.8-1.54,1.02v.33c1.88-.22,3.02-.39,3.45-.53l.09,1.82Zm-4.32-7.6h.11c.37-.35,.7-.68,.98-1h-1.09v1Zm10.5,.34c-.17,2.48-.77,4.65-1.81,6.49,.84,1.24,1.84,2.28,3.01,3.13l-1.56,1.72c-1.1-.94-2.04-1.92-2.82-2.95-1.07,1.18-2.47,2.21-4.19,3.08l-1.12-1.71c1.78-.92,3.15-2.03,4.1-3.34-.59-1.14-1.03-2.36-1.32-3.67-.11,.18-.21,.35-.3,.49l-1.43-1.01c1.13-1.95,1.84-4.17,2.14-6.66l2.29,.25c-.15,.93-.3,1.69-.47,2.3h4.25v1.87h-.76Zm-3.19,4.17c.51-1.2,.81-2.58,.91-4.17h-1.92l-.08,.15c.21,1.48,.57,2.82,1.09,4.02Z"/><path class="cls-1" d="M594.46,692.26h-2.12v-1.81h-11.95v1.89h-2.09v-3.66h6.73v-1.39h2.5v1.39h6.93v3.58Zm-.02,10.77h-16.09v-1.96h6.66v-1.34h-5.84v-1.94h5.84v-1.11l-6.08,.21-.25-1.94c.16,0,.38,0,.64,0,.59,0,1.41-.01,2.46-.04,.37-.57,.74-1.18,1.12-1.83h-2.09v-1.71h11.14v1.71h-.8l3.17,3.13-2.18,1.15-.96-1.03c-.81,.06-2.02,.14-3.65,.22v1.22h5.89v1.94h-5.89v1.34h6.91v1.96Zm-8.8-9.93c-.33,.54-.72,1.12-1.17,1.76l2.9-.1,2.18-.11c-.38-.38-.68-.66-.92-.86l1.1-.69h-4.09Z"/><path class="cls-1" d="M613.36,693.09l-1.28,2.01c-1.22-.46-2.56-1.21-4.03-2.25s-2.7-2.12-3.69-3.25c-.84,1.07-2.03,2.15-3.56,3.23-1.53,1.08-2.92,1.86-4.19,2.35l-1.13-1.87c1.24-.45,2.67-1.27,4.29-2.48s2.73-2.33,3.35-3.38h2.25c.67,.86,1.72,1.83,3.15,2.91,1.43,1.09,3.04,1.99,4.84,2.72Zm-14.56,7.7v-6.54h2.52v6.54h2.41v-9.18h2.56v3.21h4.62v2.13h-4.62v3.85h6.13v2.16h-16.08v-2.16h2.45Z"/><path class="cls-1" d="M626.54,699.84h-8.42v-8.62h3.06v-1.32h-7.02v-1.91h16.44v1.91h-7.13v1.32h3.08v8.62Zm-9.41,3.42h-2.37v-12.24h2.37v9.86h10.55v-9.86h2.36v12.24h-2.36v-.6h-10.55v.6Zm4.17-10.34h-1.24v1.7h1.24v-1.7Zm-1.24,3.24v1.96h1.24v-1.96h-1.24Zm4.52-1.55v-1.7h-1.23v1.7h1.23Zm0,3.51v-1.96h-1.23v1.96h1.23Z"/></g><rect class="cls-7" x="831.94" y="462.21" width="100" height="36" rx="18" ry="18"/><g><path class="cls-1" d="M873.49,482.43c-.66,1.37-1.63,2.54-2.93,3.54-1.3,.99-2.83,1.75-4.6,2.25l-.91-2.04c1.18-.31,2.23-.76,3.13-1.34s1.65-1.25,2.22-2.02c.57-.77,.97-1.48,1.18-2.14,.21-.66,.32-1.46,.32-2.39v-5.69h2.58v5.12c0,.67,.24,1.58,.71,2.75s1.29,2.22,2.45,3.19,2.54,1.74,4.15,2.33l-1.44,2.14c-1.32-.45-2.62-1.18-3.88-2.22s-2.25-2.19-2.97-3.48Zm-3.34-7.29c-.18,.93-.49,2-.94,3.22s-.89,2.2-1.31,2.94l-2.27-.76c.42-.69,.83-1.6,1.23-2.72s.7-2.16,.89-3.13l2.39,.45Zm10.94-.29c-.33,1.08-.79,2.32-1.38,3.7s-1.02,2.26-1.31,2.62l-2.12-.63c.35-.54,.75-1.44,1.2-2.72s.79-2.44,1.03-3.51l2.57,.54Z"/><path class="cls-1" d="M885.65,478.93l-1.34-1.04c-.23,.17-.44,.32-.63,.45l-1.17-1.34c.8-.54,1.6-1.25,2.38-2.11,.79-.86,1.42-1.73,1.89-2.61l2.07,.4c-.13,.3-.27,.59-.42,.86h2.5c-.08-.22-.16-.44-.24-.68l2.13-.44c.13,.36,.26,.69,.4,.99h5.55l.79,.62c-.63,1.37-1.56,2.69-2.79,3.97,.93,.76,2.12,1.49,3.57,2.18l-1.46,1.89c-1.3-.71-2.43-1.46-3.38-2.22v.76h-7.69v-.81c-1.19,.86-2.54,1.61-4.04,2.25l-.94-1.63c1-.4,1.95-.9,2.86-1.49Zm4.03,6.1c-.7,.6-1.66,1.18-2.86,1.76s-2.25,.98-3.14,1.23l-1.04-1.85c.69-.18,1.62-.54,2.81-1.11s2.02-1.05,2.5-1.48l1.72,1.45Zm3.01,1.43c0,.6-.19,1.06-.56,1.39s-.89,.5-1.54,.5h-2.14l-.34-2.2h1.58c.13,0,.25-.05,.36-.14s.15-.2,.15-.31v-2.18h-5.35v-1.94h13.1v1.94h-5.25v2.94Zm-7.23-9.5l1.45,1.06c.33-.26,.6-.49,.82-.69l-1.59-1c-.27,.26-.5,.47-.68,.63Zm3.31-.75c.32-.39,.57-.75,.77-1.09h-2.27l-.13,.15c.5,.28,1.04,.59,1.63,.94Zm2.93-.97c-.62,1.29-1.46,2.43-2.5,3.4h4.96c-.94-.96-1.75-2.09-2.45-3.4Zm8.35,10.71l-1.17,2.13c-.96-.26-2.04-.67-3.24-1.24-1.2-.57-2.07-1.09-2.61-1.56l1.24-1.7c.57,.39,1.45,.83,2.62,1.3s2.23,.83,3.15,1.07Zm-5.84-10.75c.34,.5,.71,.98,1.11,1.42,.41-.49,.76-.96,1.05-1.42h-2.15Z"/></g><rect class="cls-5" x="279.94" y="516.21" width="456" height="36" rx="18" ry="18"/><g><path class="cls-1" d="M451.63,527.73c0,2.98-.46,5.52-1.37,7.61s-2.39,3.71-4.43,4.84-4.5,1.83-7.38,2.09l-.7-2.35c2.46-.25,4.52-.81,6.17-1.68,1.65-.87,2.82-1.95,3.52-3.23,.69-1.29,1.13-2.96,1.32-5.01h-11.11v-2.27h13.98Z"/><path class="cls-1" d="M469.7,531.7c-.02,1.61-.29,3.13-.83,4.54s-1.41,2.6-2.62,3.54c-1.21,.94-2.59,1.58-4.13,1.93s-3.14,.54-4.8,.6l-.52-2.29c3.27-.18,5.65-.73,7.13-1.66s2.44-2.38,2.87-4.36h-11.68v-2.3h14.59Zm-.68-1.89h-13.38v-2.21h13.38v2.21Z"/><path class="cls-1" d="M482.8,542.23h-2.7v-7.97c-2.19,1.12-4.62,2-7.3,2.65l-.81-2.3c3.09-.74,5.78-1.83,8.07-3.26s4.02-3.08,5.19-4.95l2.56,.98c-.9,1.35-1.74,2.41-2.51,3.16s-1.61,1.44-2.5,2.06v9.65Z"/><path class="cls-1" d="M496.87,527.3c-.05,2.78-.24,4.94-.58,6.46-.33,1.53-.93,3.01-1.8,4.45-.87,1.44-1.96,2.77-3.27,3.99l-1.78-1.69c1.08-1.04,1.92-2.05,2.51-3.04,.59-.99,1.11-2.16,1.55-3.51s.68-3.59,.73-6.73l2.65,.08Zm10.33,12.96l-1.98,1.84c-1.33-1.38-2.36-2.91-3.09-4.59s-1.24-3.39-1.54-5.15c-.3-1.75-.45-3.26-.45-4.5v-.6s2.66-.05,2.66-.05v.29c0,2.44,.31,4.68,.92,6.74s1.77,4.06,3.48,6.02Zm.02-12.53c0,.54-.19,1-.56,1.35-.38,.36-.85,.53-1.42,.53s-1.04-.18-1.42-.53c-.38-.35-.56-.8-.56-1.35s.19-.99,.56-1.35,.85-.53,1.42-.53,1.04,.18,1.42,.53,.56,.8,.56,1.35Zm-1.18-.79c-.21-.22-.48-.33-.8-.33s-.58,.11-.8,.33-.32,.48-.32,.79,.11,.57,.32,.79,.48,.33,.8,.33,.58-.11,.8-.33,.32-.48,.32-.79-.11-.57-.32-.79Z"/><path class="cls-1" d="M517.73,530.98l-1.61,2.18c-.87-.56-1.64-1.03-2.31-1.41s-2.19-1.17-4.55-2.36l1.39-2.01c1.84,.73,4.2,1.93,7.08,3.59Zm7.13,2.14c-1.49,2.75-3.43,4.84-5.83,6.28s-5.43,2.34-9.1,2.7l-.6-2.46c2-.18,3.67-.49,5.01-.91s2.51-.99,3.51-1.68c1-.69,1.86-1.4,2.57-2.12s1.48-1.79,2.32-3.21l2.11,1.41Z"/><path class="cls-1" d="M541.7,531.7c-.02,1.61-.29,3.13-.83,4.54s-1.41,2.6-2.62,3.54c-1.21,.94-2.59,1.58-4.13,1.93s-3.14,.54-4.8,.6l-.52-2.29c3.27-.18,5.65-.73,7.13-1.66s2.44-2.38,2.87-4.36h-11.68v-2.3h14.59Zm-.68-1.89h-13.38v-2.21h13.38v2.21Z"/><path class="cls-1" d="M554.8,542.23h-2.7v-7.97c-2.19,1.12-4.62,2-7.3,2.65l-.81-2.3c3.09-.74,5.78-1.83,8.07-3.26s4.02-3.08,5.19-4.95l2.56,.98c-.9,1.35-1.74,2.41-2.51,3.16s-1.61,1.44-2.5,2.06v9.65Z"/><path class="cls-1" d="M575.55,529.55c0,.09,0,.17,0,.25,0,1.18-.35,2.85-1.05,4.99-.7,2.14-2.06,3.85-4.07,5.12-2.02,1.27-4.56,2.06-7.63,2.37l-.7-2.33c2.38-.25,4.39-.82,6.02-1.73,1.63-.91,2.78-2,3.44-3.29s1.06-2.93,1.19-4.92l-10.87-.02v-2.27l12.88,.02,.79,1.8Zm1.6-1.12l-1.24,.48c-.25-.81-.65-1.73-1.21-2.73l1.21-.46c.46,.87,.87,1.78,1.24,2.71Zm2.23-.33l-1.22,.47c-.46-1.15-.86-2.05-1.2-2.72l1.16-.43c.45,.86,.86,1.75,1.26,2.68Z"/></g><rect class="cls-17" x="539.94" y="568.21" width="130" height="36" rx="18" ry="18"/><g><path class="cls-1" d="M563.94,582.83c0,1.75-.14,3.16-.42,4.25s-.7,2.04-1.27,2.87-1.3,1.54-2.21,2.15-2.03,1.1-3.35,1.49-2.84,.64-4.56,.77l-.62-2.35c1.69-.13,3.27-.43,4.75-.89,1.48-.46,2.67-1.28,3.57-2.45s1.34-2.92,1.34-5.26v-1.34h-9.2v4.46h-2.7v-6.7h14.67v3.01Z"/><path class="cls-1" d="M580.73,587.91h-16.15v-2.34h16.15v2.34Z"/><path class="cls-1" d="M596.37,580.34l-.12,1.68c-.24,3.29-1.35,5.94-3.32,7.97-1.97,2.03-4.95,3.48-8.92,4.36l-.84-2.35c2.82-.53,5.09-1.54,6.81-3.02s2.84-3.6,3.38-6.35h-5.73c-1.5,2.39-3.46,4.29-5.88,5.71l-1.46-1.85c3.21-2.06,5.32-4.78,6.34-8.16l2.73,.31c-.22,.67-.43,1.24-.62,1.71h7.64Z"/><path class="cls-1" d="M605.61,585.78l-1.2,2.21c-1.3-.57-2.37-1-3.21-1.28s-2.24-.71-4.2-1.26l1-2.07c1.22,.25,2.34,.54,3.34,.86,1,.32,2.42,.83,4.26,1.54Zm7.87-.69c-1.49,2.77-3.48,4.89-5.96,6.36s-5.47,2.37-8.96,2.69l-.58-2.36c3-.31,5.58-1.04,7.74-2.19s4.02-3.02,5.57-5.62l2.2,1.12Zm-6.16-3.62l-1.24,2.2c-.64-.29-1.3-.57-1.98-.85s-1.23-.49-1.66-.62l-3.69-1.19,1.03-2.03c1.87,.42,4.38,1.25,7.54,2.5Z"/><path class="cls-1" d="M626.67,593.95h-12.21v-1.95h9.88v-3.34h-9.55v-1.89h9.55v-2.78h-9.59v-1.87h11.92v11.83Z"/><path class="cls-1" d="M634.53,588.13l-2.21,.7c-.51-1.83-1.29-3.76-2.34-5.77l2-.77c.34,.64,.67,1.3,.99,1.97,.32,.68,.84,1.97,1.56,3.87Zm8.88-5.94c-.32,3.69-1.37,6.53-3.15,8.53s-4.37,3.23-7.77,3.67l-.6-1.84c2.97-.42,5.19-1.47,6.66-3.16,1.47-1.68,2.34-4.16,2.61-7.44l2.25,.23Zm-4.74,5.08l-2.19,.76c-.5-1.8-1.29-3.74-2.36-5.82l1.98-.77c.56,1,.95,1.75,1.17,2.26s.69,1.7,1.41,3.58Z"/><path class="cls-1" d="M658.89,581.33v.02c0,.34-.11,1.24-.33,2.69-.22,1.46-.75,2.94-1.58,4.46s-2.15,2.78-3.97,3.79-4.23,1.67-7.22,1.99l-.7-2.33c2.46-.25,4.52-.81,6.17-1.68,1.65-.87,2.82-1.95,3.52-3.23,.69-1.29,1.13-2.96,1.32-5.01l-11.11-.02v-2.27l13.03,.02c.1,.7,.39,1.23,.88,1.58Zm3.66-1.83c0,.54-.19,1-.56,1.35s-.85,.53-1.42,.53-1.04-.18-1.42-.53-.56-.8-.56-1.35,.19-.99,.56-1.35c.38-.35,.85-.53,1.42-.53s1.04,.18,1.42,.53c.38,.36,.56,.8,.56,1.35Zm-1.18-.79c-.21-.22-.48-.33-.8-.33s-.58,.11-.8,.33-.32,.48-.32,.79,.11,.57,.32,.79,.48,.33,.8,.33,.58-.11,.8-.33,.32-.48,.32-.79-.11-.57-.32-.79Z"/></g><rect class="cls-17" x="279.94" y="568.21" width="128" height="36" rx="18" ry="18"/><g><path class="cls-1" d="M302.94,582.83c0,1.75-.14,3.16-.42,4.25s-.7,2.04-1.27,2.87-1.3,1.54-2.21,2.15-2.03,1.1-3.35,1.49-2.84,.64-4.56,.77l-.62-2.35c1.69-.13,3.27-.43,4.75-.89,1.48-.46,2.67-1.28,3.57-2.45s1.34-2.92,1.34-5.26v-1.34h-9.2v4.46h-2.7v-6.7h14.67v3.01Z"/><path class="cls-1" d="M319.73,587.91h-16.15v-2.34h16.15v2.34Z"/><path class="cls-1" d="M335.37,580.34l-.12,1.68c-.24,3.29-1.35,5.94-3.32,7.97-1.97,2.03-4.95,3.48-8.92,4.36l-.84-2.35c2.82-.53,5.09-1.54,6.81-3.02s2.84-3.6,3.38-6.35h-5.73c-1.5,2.39-3.46,4.29-5.88,5.71l-1.46-1.85c3.21-2.06,5.32-4.78,6.34-8.16l2.73,.31c-.22,.67-.43,1.24-.62,1.71h7.64Z"/><path class="cls-1" d="M344.61,585.78l-1.2,2.21c-1.3-.57-2.37-1-3.21-1.28s-2.24-.71-4.2-1.26l1-2.07c1.22,.25,2.34,.54,3.34,.86,1,.32,2.42,.83,4.26,1.54Zm7.87-.69c-1.49,2.77-3.48,4.89-5.96,6.36s-5.47,2.37-8.96,2.69l-.58-2.36c3-.31,5.58-1.04,7.74-2.19s4.02-3.02,5.57-5.62l2.2,1.12Zm-6.16-3.62l-1.24,2.2c-.64-.29-1.3-.57-1.98-.85s-1.23-.49-1.66-.62l-3.69-1.19,1.03-2.03c1.87,.42,4.38,1.25,7.54,2.5Z"/><path class="cls-1" d="M365.67,593.95h-12.21v-1.95h9.88v-3.34h-9.55v-1.89h9.55v-2.78h-9.59v-1.87h11.92v11.83Z"/><path class="cls-1" d="M373.53,588.13l-2.21,.7c-.51-1.83-1.29-3.76-2.34-5.77l2-.77c.34,.64,.67,1.3,.99,1.97,.32,.68,.84,1.97,1.56,3.87Zm8.88-5.94c-.32,3.69-1.37,6.53-3.15,8.53s-4.37,3.23-7.77,3.67l-.6-1.84c2.97-.42,5.19-1.47,6.66-3.16,1.47-1.68,2.34-4.16,2.61-7.44l2.25,.23Zm-4.74,5.08l-2.19,.76c-.5-1.8-1.29-3.74-2.36-5.82l1.98-.77c.56,1,.95,1.75,1.17,2.26s.69,1.7,1.41,3.58Z"/><path class="cls-1" d="M397.89,581.33v.02c0,.34-.11,1.24-.33,2.69-.22,1.46-.75,2.94-1.58,4.46s-2.15,2.78-3.97,3.79-4.23,1.67-7.22,1.99l-.7-2.33c2.46-.25,4.52-.81,6.17-1.68,1.65-.87,2.82-1.95,3.52-3.23,.69-1.29,1.13-2.96,1.32-5.01l-11.11-.02v-2.27l13.03,.02c.1,.7,.39,1.23,.88,1.58Zm3.66-1.83c0,.54-.19,1-.56,1.35s-.85,.53-1.42,.53-1.04-.18-1.42-.53-.56-.8-.56-1.35,.19-.99,.56-1.35c.38-.35,.85-.53,1.42-.53s1.04,.18,1.42,.53c.38,.36,.56,.8,.56,1.35Zm-1.18-.79c-.21-.22-.48-.33-.8-.33s-.58,.11-.8,.33-.32,.48-.32,.79,.11,.57,.32,.79,.48,.33,.8,.33,.58-.11,.8-.33,.32-.48,.32-.79-.11-.57-.32-.79Z"/></g><rect class="cls-14" x="801.94" y="409.21" width="64" height="36" rx="18" ry="18"/><g><path class="cls-1" d="M822.17,428.28h3.63c0,.1,.01,.2,.02,.31,0,.11,0,.27,0,.49,0,1.93-.42,3.36-1.27,4.29-.84,.93-2.14,1.4-3.88,1.4-1.03,0-1.9-.17-2.64-.51-.73-.34-1.32-.86-1.77-1.55-.31-.49-.54-1.18-.68-2.05s-.21-2.26-.21-4.16,.07-3.29,.21-4.16,.36-1.56,.68-2.05c.44-.68,1.03-1.2,1.75-1.54,.72-.35,1.59-.52,2.59-.52,1.73,0,3.03,.48,3.89,1.44,.86,.96,1.3,2.4,1.3,4.31v.15h-3.59c-.01-1.08-.14-1.84-.37-2.27-.23-.43-.62-.65-1.17-.65-.59,0-1,.26-1.22,.79-.22,.53-.33,1.93-.33,4.2v.3c0,2.44,.11,3.94,.33,4.49,.22,.55,.63,.83,1.22,.83,.55,0,.94-.2,1.16-.6,.22-.4,.33-1.14,.33-2.23v-.7Z"/><path class="cls-1" d="M828.21,434.39v-15.79h3.97c1.2,0,2.07,.05,2.59,.14,.52,.1,.98,.26,1.36,.48,.57,.34,1,.79,1.29,1.35,.29,.56,.44,1.22,.44,1.99,0,.68-.14,1.29-.4,1.82-.27,.53-.7,1.05-1.3,1.56,.7,.36,1.23,.84,1.59,1.45,.36,.61,.53,1.35,.53,2.2,0,.71-.12,1.37-.36,2s-.57,1.17-1,1.61c-.41,.43-.92,.74-1.52,.91s-1.53,.27-2.79,.27h-4.39Zm3.69-9.62h.24c.72,0,1.26-.15,1.6-.46,.35-.3,.52-.77,.52-1.41,0-.55-.17-.98-.51-1.28-.34-.3-.83-.45-1.47-.45-.1,0-.18,0-.24,0-.05,0-.1,0-.13,.02v3.57Zm-.01,6.83h.32c.77,0,1.35-.18,1.74-.54s.58-.9,.58-1.62c0-.67-.19-1.16-.57-1.47-.38-.31-.99-.47-1.81-.47h-.26v4.1Z"/><path class="cls-1" d="M839.26,434.39l3.45-15.79h4.39l3.4,15.79h-3.69l-.46-3.03h-2.9l-.46,3.03h-3.72Zm4.56-5.88h2.12l-1.06-6.89-1.07,6.89Z"/></g><rect class="cls-18" x="344.94" y="617.21" width="455" height="25" rx="12.5" ry="12.5"/><g><path class="cls-1" d="M553.14,632.73c-.52,.63-1.33,1.37-2.43,2.2-1.11,.83-2.43,1.61-3.96,2.33l-1.21-1.98c1.55-.79,2.77-1.54,3.68-2.24s1.78-1.51,2.6-2.44h-5.49v-2.09h6.79v-2.01h-5.66v-2.09h5.66v-2.43h2.48v2.43h5.84v2.09h-5.84v2.01h6.93v2.09h-5.84c.73,.8,1.7,1.62,2.9,2.46,1.2,.83,2.42,1.5,3.64,2.01l-1.54,2.1c-1.27-.62-2.48-1.38-3.62-2.29s-1.97-1.69-2.5-2.36v5.33h-2.44v-5.13Z"/><path class="cls-1" d="M569.3,629.33v.18c0,1.43-.08,2.52-.25,3.27,.51,.78,1.22,1.37,2.13,1.78v-6.19h-4.12v-1.95h10.71v1.95h-4.03v2.03h5.72v1.94h-5.72v2.82c.99,.12,2.18,.18,3.56,.18h.51s.51-.02,.51-.02h.51s.51,0,.51,0h.51s.51-.02,.51-.02h.51s-.46,2.19-.46,2.19h-1.35c-1.55,0-2.73-.01-3.55-.04s-1.74-.11-2.76-.25-1.9-.41-2.63-.8c-.73-.38-1.35-.87-1.87-1.46-.76,1.36-1.82,2.36-3.17,3l-1.36-1.67c.85-.54,1.49-1.11,1.93-1.72,.44-.61,.75-1.23,.93-1.87,.18-.64,.28-1.57,.28-2.79,0-.18,0-.36,0-.55h2.47Zm11.18-1.84h-2.14v-2.03h-11.87v2.11h-2.18v-3.93h6.77v-1.71h2.59v1.71h6.83v3.85Z"/><path class="cls-1" d="M588.51,635.89h-3.06v1.02h-2.02v-5.07c-.18,.29-.37,.57-.57,.83l-1.35-1.17c1.38-2.1,2.24-4.46,2.59-7.08h-2.01v-1.82h6.86v1.82h-2.57c-.13,.98-.33,1.9-.58,2.75h2.72v8.72Zm-2.02-1.73v-5.27h-1.04v5.27h1.04Zm6.71-3.78c-.15,3.14-1.08,5.65-2.79,7.52l-1.75-1.27c.52-.58,.99-1.37,1.43-2.38s.69-2.3,.76-3.87h-1.8v-2.05h1.82v-3.84h-1.37v-1.96h9.36v1.96h-1.29v3.84h1.49v2.05h-1.49v7.31h-2.37v-7.31h-2Zm.03-5.89v3.84h1.97v-3.84h-1.97Z"/></g><rect class="cls-13" x="278.94" y="643.21" width="391" height="25" rx="12.5" ry="12.5"/><g><path class="cls-1" d="M459.68,662.84c-.62,.15-1.79,.34-3.51,.55s-2.96,.35-3.73,.39l-.33-2,1.84-.15v-3.23h-1.83c-.33,2.43-.93,4.25-1.81,5.46l-1.82-.96c.45-.9,.8-1.96,1.06-3.2,.25-1.23,.38-2.43,.38-3.59v-7.73h14.91v4.17h-2.42s0,1.03,0,1.03h2.43v1.79h-2.43v1.17h3.01v1.85h-1.85l1.3,1.12c-.49,.4-1.16,.86-2.01,1.38,.73,.32,1.76,.62,3.08,.91l-1.08,2.02c-2.11-.42-3.84-1.23-5.19-2.44v1.47Zm-4.62-10.32h-2.73s0,3.21,0,3.21c0,.28,0,.55-.02,.81h2.76v-1.17h-2v-1.79h2v-1.05Zm-2.72-1.49l10.3-.02v-1.01h-10.3v1.03Zm4.02,10.36c1.26-.13,2.26-.25,2.99-.36-.68-.7-1.21-1.58-1.6-2.65h-1.39v3.01Zm3.73-8.86h-2.68s0,1.04,0,1.04h2.68v-1.04Zm-2.68,4h2.68v-1.17h-2.68v1.17Zm5.73,1.85h-3.16c.29,.52,.69,1,1.19,1.43,.76-.5,1.41-.98,1.97-1.43Z"/><path class="cls-1" d="M473.29,657.35c-.39,.77-1.03,1.71-1.9,2.8s-1.94,2.13-3.21,3.11l-1.53-1.6c.93-.73,1.82-1.65,2.69-2.76s1.43-1.96,1.7-2.57l2.25,1.01Zm3.66,4.61c0,.59-.22,1.05-.66,1.38s-.99,.49-1.64,.49h-2.65l-.33-2.37h2.16c.13,0,.25-.04,.37-.14s.18-.2,.18-.32v-5.12h-6.98v-2.09h15.93v2.09h-6.39v6.08Zm5.24-10.8h-13.74v-2.01h13.74v2.01Zm1.94,10.32l-1.89,1.74c-.71-.59-1.5-1.46-2.39-2.61s-1.59-2.24-2.13-3.29l2.11-1.03c.14,.3,.48,.83,1.03,1.59s1.06,1.39,1.52,1.91c.47,.52,1.05,1.08,1.74,1.69Z"/><path class="cls-1" d="M498.34,655.17h-9.76v-1c-1.08,.68-2.07,1.19-2.95,1.54l-1.15-1.87c1.26-.5,2.69-1.35,4.3-2.55s2.71-2.3,3.31-3.31h2.38c1.9,2.4,4.51,4.26,7.83,5.58l-1.28,2.07c-.83-.33-1.73-.78-2.68-1.35v.91Zm-.36,7.77c-2.78,.31-6.72,.59-11.8,.85l-.38-2.16,2.29-.08c.62-.94,1.2-1.91,1.73-2.93h-4.25v-2.11h15.63v2.11h-3.62c1.49,1.51,2.71,2.96,3.66,4.34l-2.63,.98c-.13-.26-.35-.6-.63-1.01Zm-7.87-9.81h6.52c-1.35-.98-2.43-1.99-3.26-3.01-.78,.98-1.87,1.98-3.26,3.01Zm.88,8.29c2.31-.12,4.15-.25,5.52-.38-.57-.7-1.09-1.3-1.54-1.78l1.17-.63h-3.48c-.52,.96-1.07,1.89-1.67,2.79Z"/></g><rect class="cls-16" x="866.94" y="185.21" width="64" height="36" rx="18" ry="18"/><g><path class="cls-1" d="M883.51,209.84v-2.5h.28c1.34,.77,2.6,1.15,3.77,1.15,.93,0,1.65-.19,2.17-.58,.52-.38,.78-.94,.78-1.68,0-.59-.2-1.04-.61-1.36-.41-.32-1.25-.48-2.53-.48h-.77v-2h.73c1.97,0,2.95-.6,2.95-1.8,0-.5-.21-.89-.63-1.15s-1.02-.39-1.8-.39c-1.05,0-2.28,.38-3.69,1.12h-.26v-2.47c1.49-.56,2.92-.83,4.3-.83,1.63,0,2.86,.3,3.7,.9s1.25,1.39,1.25,2.38c0,.74-.23,1.38-.69,1.94-.46,.55-1.08,.92-1.85,1.11v.12c.88,.16,1.58,.5,2.1,1.03,.52,.53,.77,1.21,.77,2.05,0,1.29-.49,2.32-1.48,3.09s-2.32,1.16-4,1.16-3.12-.28-4.48-.83Z"/><path class="cls-1" d="M906.19,209.39h-3.06v1.02h-2.02v-5.07c-.18,.29-.37,.57-.57,.83l-1.35-1.17c1.38-2.1,2.24-4.46,2.59-7.08h-2.01v-1.82h6.86v1.82h-2.57c-.13,.98-.33,1.9-.58,2.75h2.72v8.72Zm-2.02-1.73v-5.27h-1.04v5.27h1.04Zm6.71-3.78c-.15,3.14-1.08,5.65-2.79,7.52l-1.75-1.27c.52-.58,.99-1.37,1.43-2.38s.69-2.3,.76-3.87h-1.8v-2.05h1.82v-3.84h-1.37v-1.96h9.36v1.96h-1.29v3.84h1.49v2.05h-1.49v7.31h-2.37v-7.31h-2Zm.03-5.89v3.84h1.97v-3.84h-1.97Z"/></g><rect class="cls-11" x="735.94" y="143.21" width="130" height="36" rx="18" ry="18"/><g><path class="cls-1" d="M795.72,168.39h-9.98v-2.08c2.53-1.92,4.22-3.4,5.09-4.45s1.31-1.97,1.31-2.78c0-.64-.21-1.14-.63-1.5-.42-.35-.99-.53-1.73-.53-1.11,0-2.27,.4-3.48,1.19h-.22v-2.52c1.45-.56,2.84-.83,4.16-.83,1.56,0,2.77,.34,3.62,1.02s1.27,1.64,1.27,2.87c0,.95-.34,1.95-1.03,3.01-.69,1.06-2.29,2.55-4.8,4.47h6.43v2.14Z"/><path class="cls-1" d="M808.19,167.39h-3.06v1.02h-2.02v-5.07c-.18,.29-.37,.57-.57,.83l-1.35-1.17c1.38-2.1,2.24-4.46,2.59-7.08h-2.01v-1.82h6.86v1.82h-2.57c-.13,.98-.33,1.9-.58,2.75h2.72v8.72Zm-2.02-1.73v-5.27h-1.04v5.27h1.04Zm6.71-3.78c-.15,3.14-1.08,5.65-2.79,7.52l-1.75-1.27c.52-.58,.99-1.37,1.43-2.38s.69-2.3,.76-3.87h-1.8v-2.05h1.82v-3.84h-1.37v-1.96h9.36v1.96h-1.29v3.84h1.49v2.05h-1.49v7.31h-2.37v-7.31h-2Zm.03-5.89v3.84h1.97v-3.84h-1.97Z"/></g><rect class="cls-13" x="279.94" y="270.21" width="455" height="36" rx="18" ry="18"/><g><path class="cls-1" d="M492.68,295.34c-.62,.15-1.79,.34-3.51,.55s-2.96,.35-3.73,.39l-.33-2,1.84-.15v-3.23h-1.83c-.33,2.43-.93,4.25-1.81,5.46l-1.82-.96c.45-.9,.8-1.96,1.06-3.2,.25-1.23,.38-2.43,.38-3.59v-7.73h14.91v4.17h-2.42s0,1.03,0,1.03h2.43v1.79h-2.43v1.17h3.01v1.85h-1.85l1.3,1.12c-.49,.4-1.16,.86-2.01,1.38,.73,.32,1.76,.62,3.08,.91l-1.08,2.02c-2.11-.42-3.84-1.23-5.19-2.44v1.47Zm-4.62-10.32h-2.73s0,3.21,0,3.21c0,.28,0,.55-.02,.81h2.76v-1.17h-2v-1.79h2v-1.05Zm-2.72-1.49l10.3-.02v-1.01h-10.3v1.03Zm4.02,10.36c1.26-.13,2.26-.25,2.99-.36-.68-.7-1.21-1.58-1.6-2.65h-1.39v3.01Zm3.73-8.86h-2.68s0,1.04,0,1.04h2.68v-1.04Zm-2.68,4h2.68v-1.17h-2.68v1.17Zm5.73,1.85h-3.16c.29,.52,.69,1,1.19,1.43,.76-.5,1.41-.98,1.97-1.43Z"/><path class="cls-1" d="M506.29,289.85c-.39,.77-1.03,1.71-1.9,2.8s-1.94,2.13-3.21,3.11l-1.53-1.6c.93-.73,1.82-1.65,2.69-2.76s1.43-1.96,1.7-2.57l2.25,1.01Zm3.66,4.61c0,.59-.22,1.05-.66,1.38s-.99,.49-1.64,.49h-2.65l-.33-2.37h2.16c.13,0,.25-.04,.37-.14s.18-.2,.18-.32v-5.12h-6.98v-2.09h15.93v2.09h-6.39v6.08Zm5.24-10.8h-13.74v-2.01h13.74v2.01Zm1.94,10.32l-1.89,1.74c-.71-.59-1.5-1.46-2.39-2.61s-1.59-2.24-2.13-3.29l2.11-1.03c.14,.3,.48,.83,1.03,1.59s1.06,1.39,1.52,1.91c.47,.52,1.05,1.08,1.74,1.69Z"/><path class="cls-1" d="M531.34,287.67h-9.76v-1c-1.08,.68-2.07,1.19-2.95,1.54l-1.15-1.87c1.26-.5,2.69-1.35,4.3-2.55s2.71-2.3,3.31-3.31h2.38c1.9,2.4,4.51,4.26,7.83,5.58l-1.28,2.07c-.83-.33-1.73-.78-2.68-1.35v.91Zm-.36,7.77c-2.78,.31-6.72,.59-11.8,.85l-.38-2.16,2.29-.08c.62-.94,1.2-1.91,1.73-2.93h-4.25v-2.11h15.63v2.11h-3.62c1.49,1.51,2.71,2.96,3.66,4.34l-2.63,.98c-.13-.26-.35-.6-.63-1.01Zm-7.87-9.81h6.52c-1.35-.98-2.43-1.99-3.26-3.01-.78,.98-1.87,1.98-3.26,3.01Zm.88,8.29c2.31-.12,4.15-.25,5.52-.38-.57-.7-1.09-1.3-1.54-1.78l1.17-.63h-3.48c-.52,.96-1.07,1.89-1.67,2.79Z"/></g><rect class="cls-8" x="279.94" y="312.21" width="520" height="36" rx="18" ry="18"/><g><path class="cls-1" d="M467.35,330.48h-15.91v-2.34h15.91v2.34Z"/><path class="cls-1" d="M473.63,335.05h-1.17v-3.84l-.64,.09c-.11,3.12-.66,5.49-1.64,7.12l-1.61-.67c.39-.7,.71-1.64,.94-2.82,.23-1.17,.36-2.3,.39-3.39-.28,.04-.55,.06-.8,.09l-.27-1.65c.23-.01,.59-.04,1.08-.08v-5.72h1.91c.24-.69,.43-1.32,.58-1.89l2.15,.25c-.18,.5-.42,1.05-.71,1.63h2.44v4.96l.41-.08v1.46c-.12,.03-.25,.06-.41,.1v6.19c0,.4-.16,.73-.49,.98s-.73,.38-1.23,.38h-1.92l-.23-1.76h1.36c.39,0,.58-.16,.58-.47v-5l-.72,.11v4.01Zm-1.78-5.34c.78-.09,1.61-.19,2.5-.3v-3.75h-2.5v4.05Zm2.16-1.01l-1.15,.31-.74-2.43,1.1-.27,.79,2.39Zm11.92-3.16v1.92c0,.33-.1,.62-.31,.87s-.44,.4-.69,.46c-.25,.06-.7,.09-1.32,.09-.52,0-.93-.02-1.23-.05s-.53-.11-.68-.22c-.16-.11-.28-.26-.37-.45-.09-.19-.14-.39-.14-.61v-3.09h-1.31v.5c0,1.88-.67,3.32-2,4.32l-1.46-1.2c.86-.86,1.28-2.02,1.28-3.5v-1.76h5.7v4.1c0,.18,.07,.27,.22,.27h.28c.16,0,.26-.09,.29-.27,.03-.18,.05-.71,.05-1.6l1.68,.22Zm-.53,4.01c-.03,2.15-.74,3.98-2.12,5.49,.79,.45,1.74,.85,2.86,1.2l-1.22,2c-1.3-.39-2.47-.94-3.51-1.67-1.22,.83-2.55,1.42-4,1.76l-.83-1.78c1.32-.41,2.39-.88,3.21-1.4-.96-1.01-1.64-2.24-2.05-3.71h-.62v-1.9h8.28Zm-3.96,4.25c.66-.74,1.11-1.52,1.34-2.35h-2.82c.3,.88,.79,1.66,1.49,2.35Z"/><path class="cls-1" d="M503.6,330.52h-6.42v.27c0,2.06-.65,3.73-1.96,5.03s-3.15,2.16-5.52,2.6l-.79-2.18c1.79-.38,3.17-1.02,4.14-1.93s1.45-2.04,1.45-3.4v-.4h-7.28v-2.27h16.4v2.27Zm-1.08-4.57h-14.26v-2.25h14.26v2.25Z"/><path class="cls-1" d="M514.73,326.98l-1.61,2.18c-.87-.56-1.64-1.03-2.31-1.41s-2.19-1.17-4.55-2.36l1.39-2.01c1.84,.73,4.2,1.93,7.08,3.59Zm7.13,2.14c-1.49,2.75-3.43,4.84-5.83,6.28s-5.43,2.34-9.1,2.7l-.6-2.46c2-.18,3.67-.49,5.01-.91s2.51-.99,3.51-1.68c1-.69,1.86-1.4,2.57-2.12s1.48-1.79,2.32-3.21l2.11,1.41Z"/><path class="cls-1" d="M539.52,331.65l-1.66,2.08c-2.5-1.69-5.08-3-7.76-3.92v8.57h-2.77v-15.86h2.79v4.69c2.96,.96,6.1,2.43,9.4,4.43Z"/><path class="cls-1" d="M551.11,330.88c0,.5-.18,.92-.53,1.27s-.78,.53-1.27,.53-.92-.18-1.27-.53-.53-.78-.53-1.27,.18-.92,.53-1.27,.78-.53,1.27-.53,.92,.18,1.27,.53,.53,.78,.53,1.27Z"/><path class="cls-1" d="M568.91,334.08c-.36,.09-1.54,.28-3.53,.57v2.21c0,.45-.19,.8-.58,1.05s-.8,.39-1.24,.39h-2.09l-.33-2.07h1.42c.33,0,.5-.14,.5-.41v-.84c-1.71,.22-2.93,.36-3.65,.41l-.33-2.08c.8-.02,2.13-.11,3.97-.28v-1.59h1.15l1.13-.69h-3.21c-.84,.47-1.76,.92-2.77,1.36l-.84-1.62c1.65-.76,3-1.52,4.07-2.29h-3.33v-1.73h3.02v-1h-2.56v-1.73h2.56v-1.35h2.3v1.35h1.7v.99c.44-.57,.83-1.19,1.17-1.84l1.87,.86c-.59,.99-1.23,1.9-1.92,2.72h.58v1.73h-2.24c-.34,.3-.7,.6-1.08,.9h2.7l.91,1.25c-.26,.26-.72,.62-1.36,1.08s-1.16,.8-1.54,1.02v.33c1.88-.22,3.02-.39,3.45-.53l.09,1.82Zm-4.32-7.6h.11c.37-.35,.7-.68,.98-1h-1.09v1Zm10.5,.34c-.17,2.48-.77,4.65-1.81,6.49,.84,1.24,1.84,2.28,3.01,3.13l-1.56,1.72c-1.1-.94-2.04-1.92-2.82-2.95-1.07,1.18-2.47,2.21-4.19,3.08l-1.12-1.71c1.78-.92,3.15-2.03,4.1-3.34-.59-1.14-1.03-2.36-1.32-3.67-.11,.18-.21,.35-.3,.49l-1.43-1.01c1.13-1.95,1.84-4.17,2.14-6.66l2.29,.25c-.15,.93-.3,1.69-.47,2.3h4.25v1.87h-.76Zm-3.19,4.17c.51-1.2,.81-2.58,.91-4.17h-1.92l-.08,.15c.21,1.48,.57,2.82,1.09,4.02Z"/><path class="cls-1" d="M593.46,327.26h-2.12v-1.81h-11.95v1.89h-2.09v-3.66h6.73v-1.39h2.5v1.39h6.93v3.58Zm-.02,10.77h-16.09v-1.96h6.66v-1.34h-5.84v-1.94h5.84v-1.11l-6.08,.21-.25-1.94c.16,0,.38,0,.64,0,.59,0,1.41-.01,2.46-.04,.37-.57,.74-1.18,1.12-1.83h-2.09v-1.71h11.14v1.71h-.8l3.17,3.13-2.18,1.15-.96-1.03c-.81,.06-2.02,.14-3.65,.22v1.22h5.89v1.94h-5.89v1.34h6.91v1.96Zm-8.8-9.93c-.33,.54-.72,1.12-1.17,1.76l2.9-.1,2.18-.11c-.38-.38-.68-.66-.92-.86l1.1-.69h-4.09Z"/><path class="cls-1" d="M612.36,328.09l-1.28,2.01c-1.22-.46-2.56-1.21-4.03-2.25s-2.7-2.12-3.69-3.25c-.84,1.07-2.03,2.15-3.56,3.23-1.53,1.08-2.92,1.86-4.19,2.35l-1.13-1.87c1.24-.45,2.67-1.27,4.29-2.48s2.73-2.33,3.35-3.38h2.25c.67,.86,1.72,1.83,3.15,2.91,1.43,1.09,3.04,1.99,4.84,2.72Zm-14.56,7.7v-6.54h2.52v6.54h2.41v-9.18h2.56v3.21h4.62v2.13h-4.62v3.85h6.13v2.16h-16.08v-2.16h2.45Z"/><path class="cls-1" d="M625.54,334.84h-8.42v-8.62h3.06v-1.32h-7.02v-1.91h16.44v1.91h-7.13v1.32h3.08v8.62Zm-9.41,3.42h-2.37v-12.24h2.37v9.86h10.55v-9.86h2.36v12.24h-2.36v-.6h-10.55v.6Zm4.17-10.34h-1.24v1.7h1.24v-1.7Zm-1.24,3.24v1.96h1.24v-1.96h-1.24Zm4.52-1.55v-1.7h-1.23v1.7h1.23Zm0,3.51v-1.96h-1.23v1.96h1.23Z"/></g><rect class="cls-5" x="278.94" y="228.21" width="391" height="36" rx="18" ry="18"/><g><path class="cls-1" d="M420.63,239.73c0,2.98-.46,5.52-1.37,7.61s-2.39,3.71-4.43,4.84-4.5,1.83-7.38,2.09l-.7-2.35c2.46-.25,4.52-.81,6.17-1.68,1.65-.87,2.82-1.95,3.52-3.23,.69-1.29,1.13-2.96,1.32-5.01h-11.11v-2.27h13.98Z"/><path class="cls-1" d="M438.7,243.7c-.02,1.61-.29,3.13-.83,4.54s-1.41,2.6-2.62,3.54c-1.21,.94-2.59,1.58-4.13,1.93s-3.14,.54-4.8,.6l-.52-2.29c3.27-.18,5.65-.73,7.13-1.66s2.44-2.38,2.87-4.36h-11.68v-2.3h14.59Zm-.68-1.89h-13.38v-2.21h13.38v2.21Z"/><path class="cls-1" d="M451.8,254.23h-2.7v-7.97c-2.19,1.12-4.62,2-7.3,2.65l-.81-2.3c3.09-.74,5.78-1.83,8.07-3.26s4.02-3.08,5.19-4.95l2.56,.98c-.9,1.35-1.74,2.41-2.51,3.16s-1.61,1.44-2.5,2.06v9.65Z"/><path class="cls-1" d="M465.87,239.3c-.05,2.78-.24,4.94-.58,6.46-.33,1.53-.93,3.01-1.8,4.45-.87,1.44-1.96,2.77-3.27,3.99l-1.78-1.69c1.08-1.04,1.92-2.05,2.51-3.04,.59-.99,1.11-2.16,1.55-3.51s.68-3.59,.73-6.73l2.65,.08Zm10.33,12.96l-1.98,1.84c-1.33-1.38-2.36-2.91-3.09-4.59s-1.24-3.39-1.54-5.15c-.3-1.75-.45-3.26-.45-4.5v-.6s2.66-.05,2.66-.05v.29c0,2.44,.31,4.68,.92,6.74s1.77,4.06,3.48,6.02Zm.02-12.53c0,.54-.19,1-.56,1.35-.38,.36-.85,.53-1.42,.53s-1.04-.18-1.42-.53c-.38-.35-.56-.8-.56-1.35s.19-.99,.56-1.35,.85-.53,1.42-.53,1.04,.18,1.42,.53,.56,.8,.56,1.35Zm-1.18-.79c-.21-.22-.48-.33-.8-.33s-.58,.11-.8,.33-.32,.48-.32,.79,.11,.57,.32,.79,.48,.33,.8,.33,.58-.11,.8-.33,.32-.48,.32-.79-.11-.57-.32-.79Z"/><path class="cls-1" d="M486.73,242.98l-1.61,2.18c-.87-.56-1.64-1.03-2.31-1.41s-2.19-1.17-4.55-2.36l1.39-2.01c1.84,.73,4.2,1.93,7.08,3.59Zm7.13,2.14c-1.49,2.75-3.43,4.84-5.83,6.28s-5.43,2.34-9.1,2.7l-.6-2.46c2-.18,3.67-.49,5.01-.91s2.51-.99,3.51-1.68c1-.69,1.86-1.4,2.57-2.12s1.48-1.79,2.32-3.21l2.11,1.41Z"/><path class="cls-1" d="M510.7,243.7c-.02,1.61-.29,3.13-.83,4.54s-1.41,2.6-2.62,3.54c-1.21,.94-2.59,1.58-4.13,1.93s-3.14,.54-4.8,.6l-.52-2.29c3.27-.18,5.65-.73,7.13-1.66s2.44-2.38,2.87-4.36h-11.68v-2.3h14.59Zm-.68-1.89h-13.38v-2.21h13.38v2.21Z"/><path class="cls-1" d="M523.8,254.23h-2.7v-7.97c-2.19,1.12-4.62,2-7.3,2.65l-.81-2.3c3.09-.74,5.78-1.83,8.07-3.26s4.02-3.08,5.19-4.95l2.56,.98c-.9,1.35-1.74,2.41-2.51,3.16s-1.61,1.44-2.5,2.06v9.65Z"/><path class="cls-1" d="M544.55,241.55c0,.09,0,.17,0,.25,0,1.18-.35,2.85-1.05,4.99-.7,2.14-2.06,3.85-4.07,5.12-2.02,1.27-4.56,2.06-7.63,2.37l-.7-2.33c2.38-.25,4.39-.82,6.02-1.73,1.63-.91,2.78-2,3.44-3.29s1.06-2.93,1.19-4.92l-10.87-.02v-2.27l12.88,.02,.79,1.8Zm1.6-1.12l-1.24,.48c-.25-.81-.65-1.73-1.21-2.73l1.21-.46c.46,.87,.87,1.78,1.24,2.71Zm2.23-.33l-1.22,.47c-.46-1.15-.86-2.05-1.2-2.72l1.16-.43c.45,.86,.86,1.75,1.26,2.68Z"/></g><rect class="cls-7" x="241.94" y="228.21" width="36" height="36" rx="18" ry="18"/><g><path class="cls-7" d="M194.6,243.75h-4.68v9.65h-2.32v-15.66h7v6.01Zm-2.16-3.51v-1.1h-2.52v1.1h2.52Zm0,2.16v-1.13h-2.52v1.13h2.52Zm1.97,6.87c-.16,.85-.44,1.58-.86,2.19s-1.05,1.19-1.92,1.74l-1.24-1.39c.99-.69,1.61-1.53,1.85-2.54h-1.81v-1.67h1.98v-1.44h-1.63v-1.6h9.05v1.6h-1.53v1.44h1.92v1.67h-1.92v3.71h-2.14v-3.71h-1.74Zm.16-1.67h1.58v-1.44h-1.58v1.44Zm8.59,4.03c0,.46-.19,.84-.58,1.15-.39,.31-.85,.46-1.39,.46h-2.05l-.24-2h1.39c.14,0,.27-.05,.38-.15,.11-.1,.17-.21,.17-.36v-6.99h-4.85v-6.01h7.16v13.9Zm-4.97-11.39h2.66v-1.1h-2.66v1.1Zm2.66,1.03h-2.66v1.13h2.66v-1.13Z"/><path class="cls-7" d="M218.34,244.67h-9.76v-1c-1.08,.68-2.07,1.19-2.95,1.54l-1.15-1.87c1.26-.5,2.69-1.35,4.3-2.55s2.71-2.3,3.31-3.31h2.38c1.9,2.4,4.51,4.26,7.83,5.58l-1.28,2.07c-.83-.33-1.73-.78-2.68-1.35v.91Zm-.36,7.77c-2.78,.31-6.72,.59-11.8,.85l-.38-2.16,2.29-.08c.62-.94,1.2-1.91,1.73-2.93h-4.25v-2.11h15.63v2.11h-3.62c1.49,1.51,2.71,2.96,3.66,4.34l-2.63,.98c-.13-.26-.35-.6-.63-1.01Zm-7.87-9.81h6.52c-1.35-.98-2.43-1.99-3.26-3.01-.78,.98-1.87,1.98-3.26,3.01Zm.88,8.29c2.31-.12,4.15-.25,5.52-.38-.57-.7-1.09-1.3-1.54-1.78l1.17-.63h-3.48c-.52,.96-1.07,1.89-1.67,2.79Z"/><path class="cls-7" d="M239.62,242.51h-4.93c.06,1.15,.16,2.18,.3,3.08s.34,1.69,.59,2.38c.25,.69,.53,1.27,.85,1.75s.53,.74,.62,.79,.17,.08,.24,.08c.18,0,.28-.09,.31-.28s.09-1.17,.18-2.96l1.98,.41c-.06,1.58-.14,2.78-.22,3.59s-.28,1.35-.58,1.62-.73,.4-1.27,.4-1-.14-1.44-.41c-.44-.27-.97-.83-1.6-1.66s-1.14-1.85-1.52-3.07-.67-3.12-.87-5.71h-9.12v-2h9.04c0-.3,0-.71,0-1.25v-1.92s2.46,0,2.46,0v3.17h2.06c-.4-.53-.98-1.25-1.76-2.18l1.8-1.05c.9,.93,1.66,1.8,2.27,2.61l-.95,.62h1.56v2Zm-6.57,7.22l-.02,2.07c-.4,.12-1.83,.32-4.29,.6s-4.19,.46-5.19,.54l-.38-2.2c.73-.04,1.96-.13,3.67-.28v-4.54h-2.97v-2.01h8.02v2.01h-2.61v4.31c1.98-.21,3.23-.38,3.76-.49Z"/></g><path class="cls-15" d="M214.35,14.22c-.56,.35-1.11,.61-1.66,.79-.55,.17-1.12,.26-1.69,.26-1.66,0-2.9-.58-3.71-1.74s-1.22-2.93-1.22-5.3c0-2.75,.55-4.81,1.65-6.16,1.1-1.35,2.77-2.03,5.02-2.03,1.08,0,2.04,.16,2.88,.47s1.56,.79,2.16,1.42c.65,.7,1.12,1.68,1.38,2.92s.4,3.42,.4,6.53c0,2.72-.07,4.67-.21,5.84-.14,1.17-.38,2.11-.71,2.83-.47,1.02-1.22,1.79-2.26,2.34-1.04,.54-2.29,.81-3.78,.81-1.98,0-3.52-.51-4.61-1.52s-1.63-2.46-1.63-4.34l4.8,.02c.02,.7,.16,1.23,.41,1.59,.25,.36,.62,.53,1.11,.53,.62,0,1.05-.27,1.3-.81,.25-.54,.38-1.49,.38-2.85,0-.41,0-.73,0-.96,0-.23-.01-.44-.02-.62Zm.12-6.61c0-1.36-.13-2.32-.4-2.88-.27-.56-.73-.84-1.37-.84-.57,0-.97,.28-1.2,.83-.23,.55-.35,1.54-.35,2.98s.13,2.35,.38,2.91c.25,.56,.69,.84,1.3,.84s1.04-.26,1.28-.78,.36-1.54,.36-3.06Z"/><g><path class="cls-15" d="M270.3,22.73V7.16h-4.5V3.72h.25c1.62,0,2.92-.31,3.88-.92s1.61-1.54,1.93-2.77h3.47V22.73h-5.04Z"/><path class="cls-15" d="M281.14,11.6c0-2.81,.08-4.83,.25-6.06s.45-2.16,.86-2.79c.57-.88,1.34-1.55,2.33-2.02s2.12-.7,3.4-.7,2.43,.24,3.41,.71,1.76,1.15,2.31,2.04c.4,.64,.69,1.54,.86,2.7,.17,1.16,.26,2.87,.26,5.13,0,2.46-.04,4.3-.12,5.53s-.22,2.23-.42,3.01c-.29,1.2-1.02,2.17-2.18,2.92s-2.53,1.11-4.12,1.11c-1.31,0-2.46-.24-3.46-.73s-1.78-1.2-2.35-2.12c-.37-.6-.63-1.52-.79-2.78s-.23-3.24-.23-5.95Zm5.07,0v1.66c0,2.58,.12,4.21,.37,4.89s.72,1.02,1.4,1.02,1.14-.34,1.39-1.02,.38-2.31,.38-4.89v-3.66c0-2.41-.13-3.95-.38-4.6s-.72-.98-1.39-.98-1.15,.34-1.4,1.02c-.25,.68-.37,2.32-.37,4.93v1.64Z"/></g><g><path class="cls-15" d="M334.3,22.73V7.16h-4.5V3.72h.25c1.62,0,2.92-.31,3.88-.92s1.61-1.54,1.93-2.77h3.47V22.73h-5.04Z"/><path class="cls-15" d="M350.38,22.73V7.16h-4.5V3.72h.25c1.62,0,2.92-.31,3.88-.92s1.61-1.54,1.93-2.77h3.47V22.73h-5.04Z"/></g><g><path class="cls-15" d="M399.3,22.73V7.16h-4.5V3.72h.25c1.62,0,2.92-.31,3.88-.92s1.61-1.54,1.93-2.77h3.47V22.73h-5.04Z"/><path class="cls-15" d="M409.99,22.73v-.37c0-.86,.1-1.71,.29-2.54,.19-.83,.49-1.68,.89-2.53,.81-1.77,2.08-3.53,3.82-5.29l.56-.56,.13-.15c1.9-2,2.86-3.75,2.86-5.26,0-.69-.14-1.23-.41-1.6s-.66-.56-1.17-.56c-.72,0-1.25,.3-1.57,.91s-.49,1.57-.49,2.9v.4h-4.69v-.6c0-2.42,.59-4.28,1.78-5.57s2.89-1.93,5.12-1.93c2.01,0,3.58,.56,4.72,1.67s1.7,2.66,1.7,4.63c0,1.16-.24,2.27-.73,3.32s-1.25,2.11-2.3,3.19c-.22,.23-.56,.57-1.01,1.01-1.86,1.81-3.02,3.3-3.49,4.48h7.47v4.44h-13.46Z"/></g><g><path class="cls-15" d="M465.3,22.73V7.16h-4.5V3.72h.25c1.62,0,2.92-.31,3.88-.92s1.61-1.54,1.93-2.77h3.47V22.73h-5.04Z"/><path class="cls-15" d="M476.23,15.26h4.7c.04,1.44,.2,2.46,.48,3.07,.28,.61,.72,.92,1.33,.92s1.06-.28,1.37-.83c.31-.55,.46-1.36,.46-2.44,0-1.14-.28-1.96-.83-2.46s-1.46-.75-2.73-.75c-.21,0-.36,0-.46,0s-.2,.01-.29,.02v-3.54s.47,0,.47,0c1.24,0,2.13-.24,2.67-.72,.54-.48,.81-1.28,.81-2.4,0-.73-.13-1.3-.38-1.7s-.62-.6-1.1-.6c-.59,0-1,.23-1.25,.7-.25,.46-.39,1.32-.43,2.57h-4.61v-.29c0-2.13,.58-3.79,1.75-4.99s2.78-1.79,4.83-1.79c1.86,0,3.37,.54,4.54,1.6,1.17,1.07,1.76,2.44,1.76,4.12,0,1.11-.27,2.08-.8,2.92s-1.34,1.54-2.41,2.12c1.28,.5,2.22,1.19,2.83,2.08s.92,2.02,.92,3.38c0,2.18-.61,3.88-1.83,5.1s-2.92,1.83-5.1,1.83-3.78-.63-4.96-1.9-1.77-3.06-1.77-5.36c0-.07,0-.18,.01-.33s.01-.26,.01-.33Z"/></g><g><path class="cls-15" d="M530.3,22.73V7.16h-4.5V3.72h.25c1.62,0,2.92-.31,3.88-.92s1.61-1.54,1.93-2.77h3.47V22.73h-5.04Z"/><path class="cls-15" d="M548.3,22.73v-4.35h-7.44v-4.26l7.12-13.68h5.16V14.52h1.95v3.87h-1.95v4.35h-4.83Zm.57-8.22V5.48l-4.1,9.04h4.1Z"/></g><g><path class="cls-15" d="M596.3,22.73V7.16h-4.5V3.72h.25c1.62,0,2.92-.31,3.88-.92s1.61-1.54,1.93-2.77h3.47V22.73h-5.04Z"/><path class="cls-15" d="M607.35,15.81h4.67c.04,1.28,.2,2.17,.47,2.68s.73,.76,1.38,.76,1.16-.27,1.45-.81c.29-.54,.44-1.46,.44-2.75,0-1.86-.15-3.09-.45-3.71s-.83-.92-1.6-.92c-.46,0-.84,.13-1.15,.4s-.54,.66-.71,1.2h-4.19l.41-12.25h11.65V4.47h-7.79l-.16,4.1c.61-.4,1.22-.7,1.84-.9,.62-.2,1.27-.3,1.94-.3,1.72,0,2.99,.63,3.82,1.9s1.25,3.2,1.25,5.79c0,2.72-.56,4.77-1.68,6.14s-2.79,2.05-5,2.05-3.76-.6-4.89-1.81c-1.13-1.21-1.69-2.94-1.69-5.21v-.42Z"/></g><g><path class="cls-15" d="M661.3,22.73V7.16h-4.5V3.72h.25c1.62,0,2.92-.31,3.88-.92s1.61-1.54,1.93-2.77h3.47V22.73h-5.04Z"/><path class="cls-15" d="M677.44,8.99c.54-.35,1.08-.62,1.63-.79s1.13-.26,1.74-.26c1.65,0,2.89,.59,3.71,1.78,.83,1.19,1.24,2.97,1.24,5.34,0,2.72-.55,4.76-1.66,6.11s-2.79,2.02-5.03,2.02c-1.08,0-2.04-.16-2.88-.47s-1.56-.79-2.16-1.42c-.66-.7-1.13-1.66-1.4-2.87s-.4-3.4-.4-6.58c0-2.63,.07-4.54,.21-5.75s.38-2.18,.73-2.92c.47-1.03,1.22-1.81,2.26-2.34s2.29-.81,3.76-.81c1.97,0,3.51,.5,4.6,1.5s1.64,2.4,1.64,4.2v.15h-4.79c-.02-.71-.16-1.25-.41-1.6s-.63-.53-1.13-.53c-.61,0-1.04,.27-1.3,.81s-.39,1.48-.39,2.84c0,.42,0,.74,0,.96,0,.22,.01,.43,.02,.64Zm-.15,6.61c0,1.37,.14,2.33,.41,2.89s.74,.83,1.39,.83c.58,0,.98-.27,1.22-.81s.35-1.54,.35-3.02-.13-2.42-.39-2.95-.71-.8-1.35-.8c-.6,0-1.02,.28-1.26,.83s-.37,1.56-.37,3.02Z"/></g><g><path class="cls-15" d="M725.3,22.73V7.16h-4.5V3.72h.25c1.62,0,2.92-.31,3.88-.92s1.61-1.54,1.93-2.77h3.47V22.73h-5.04Z"/><path class="cls-15" d="M738.92,22.73c.26-2.64,.88-5.45,1.84-8.45,.96-2.99,2.26-6.13,3.9-9.41h-8.38V.44h13.2v3.84c-1.39,2.47-2.54,5.27-3.45,8.41s-1.55,6.48-1.91,10.05h-5.2Z"/></g><g><path class="cls-15" d="M791.3,22.73V7.16h-4.5V3.72h.25c1.62,0,2.92-.31,3.88-.92s1.61-1.54,1.93-2.77h3.47V22.73h-5.04Z"/><path class="cls-15" d="M805.08,10.68c-.81-.55-1.42-1.21-1.82-1.99-.41-.78-.61-1.68-.61-2.7,0-1.87,.56-3.33,1.68-4.38s2.67-1.58,4.65-1.58,3.53,.53,4.65,1.58,1.68,2.51,1.68,4.38c0,1.03-.2,1.93-.61,2.7-.41,.78-1.01,1.44-1.82,1.99,.9,.56,1.58,1.32,2.06,2.29,.47,.97,.71,2.12,.71,3.44,0,2.14-.59,3.8-1.77,5s-2.82,1.79-4.93,1.79-3.72-.6-4.89-1.79-1.75-2.86-1.75-4.99c0-1.32,.23-2.46,.7-3.44,.47-.97,1.16-1.74,2.07-2.29Zm2.09,5.3c0,1.1,.15,1.93,.45,2.48s.75,.82,1.35,.82,1.09-.26,1.38-.79,.45-1.36,.45-2.5-.14-2.05-.43-2.58-.74-.8-1.37-.8-1.1,.27-1.39,.81-.44,1.4-.44,2.58Zm.09-9.8c0,.82,.16,1.48,.48,1.98s.74,.75,1.26,.75,.95-.25,1.28-.75,.49-1.16,.49-1.98-.15-1.45-.46-1.9-.74-.67-1.31-.67-.99,.22-1.29,.67-.45,1.08-.45,1.9Z"/></g><g><path class="cls-15" d="M857.3,22.73V7.16h-4.5V3.72h.25c1.62,0,2.92-.31,3.88-.92s1.61-1.54,1.93-2.77h3.47V22.73h-5.04Z"/><path class="cls-15" d="M876.39,14.22c-.56,.35-1.11,.61-1.66,.78s-1.12,.26-1.69,.26c-1.66,0-2.9-.58-3.71-1.74s-1.22-2.93-1.22-5.3c0-2.75,.55-4.81,1.65-6.16s2.77-2.03,5.02-2.03c1.08,0,2.04,.16,2.88,.47s1.56,.79,2.16,1.42c.65,.7,1.12,1.67,1.38,2.92s.4,3.42,.4,6.53c0,2.72-.07,4.67-.21,5.84s-.38,2.11-.71,2.83c-.47,1.02-1.22,1.79-2.26,2.34-1.04,.54-2.29,.81-3.78,.81-1.98,0-3.52-.51-4.61-1.52s-1.63-2.46-1.63-4.34h4.8c.02,.72,.16,1.25,.41,1.6s.62,.53,1.11,.53c.62,0,1.05-.27,1.3-.81,.25-.54,.38-1.49,.38-2.85,0-.41,0-.73,0-.96,0-.23-.01-.44-.02-.62Zm.12-6.61c0-1.36-.13-2.32-.4-2.88-.27-.56-.73-.84-1.37-.84-.57,0-.97,.28-1.2,.83s-.35,1.54-.35,2.98,.13,2.35,.38,2.91,.69,.84,1.3,.84,1.04-.26,1.28-.78,.36-1.54,.36-3.06Z"/></g><g><path class="cls-15" d="M916.91,22.73v-.37c0-.86,.1-1.71,.29-2.54,.19-.83,.49-1.68,.89-2.53,.81-1.77,2.08-3.53,3.82-5.29l.56-.56,.13-.15c1.9-2,2.86-3.75,2.86-5.26,0-.69-.14-1.23-.41-1.6s-.66-.56-1.17-.56c-.72,0-1.25,.3-1.57,.91s-.49,1.57-.49,2.9v.4h-4.69v-.6c0-2.42,.59-4.28,1.78-5.57s2.89-1.93,5.12-1.93c2.01,0,3.58,.56,4.72,1.67s1.7,2.66,1.7,4.63c0,1.16-.24,2.27-.73,3.32s-1.25,2.11-2.3,3.19c-.22,.23-.56,.57-1.01,1.01-1.86,1.81-3.02,3.3-3.49,4.48h7.47v4.44h-13.46Z"/><path class="cls-15" d="M933.14,11.6c0-2.81,.08-4.83,.25-6.06s.45-2.16,.86-2.79c.57-.88,1.34-1.55,2.33-2.02s2.12-.7,3.4-.7,2.43,.24,3.41,.71,1.76,1.15,2.31,2.04c.4,.64,.69,1.54,.86,2.7,.17,1.16,.26,2.87,.26,5.13,0,2.46-.04,4.3-.12,5.53s-.22,2.23-.42,3.01c-.29,1.2-1.02,2.17-2.18,2.92s-2.53,1.11-4.12,1.11c-1.31,0-2.46-.24-3.46-.73s-1.78-1.2-2.35-2.12c-.37-.6-.63-1.52-.79-2.78s-.23-3.24-.23-5.95Zm5.07,0v1.66c0,2.58,.12,4.21,.37,4.89s.72,1.02,1.4,1.02,1.14-.34,1.39-1.02,.38-2.31,.38-4.89v-3.66c0-2.41-.13-3.95-.38-4.6s-.72-.98-1.39-.98-1.15,.34-1.4,1.02c-.25,.68-.37,2.32-.37,4.93v1.64Z"/></g><g><path class="cls-15" d="M981.91,22.73v-.37c0-.86,.1-1.71,.29-2.54,.19-.83,.49-1.68,.89-2.53,.81-1.77,2.08-3.53,3.82-5.29l.56-.56,.13-.15c1.9-2,2.86-3.75,2.86-5.26,0-.69-.14-1.23-.41-1.6s-.66-.56-1.17-.56c-.72,0-1.25,.3-1.57,.91s-.49,1.57-.49,2.9v.4h-4.69v-.6c0-2.42,.59-4.28,1.78-5.57s2.89-1.93,5.12-1.93c2.01,0,3.58,.56,4.72,1.67s1.7,2.66,1.7,4.63c0,1.16-.24,2.27-.73,3.32s-1.25,2.11-2.3,3.19c-.22,.23-.56,.57-1.01,1.01-1.86,1.81-3.02,3.3-3.49,4.48h7.47v4.44h-13.46Z"/><path class="cls-15" d="M1003.38,22.73V7.16h-4.5V3.72h.25c1.62,0,2.92-.31,3.88-.92s1.61-1.54,1.93-2.77h3.47V22.73h-5.04Z"/></g><path class="cls-15" d="M213.35,760.22c-.56,.35-1.11,.61-1.66,.79-.55,.17-1.12,.26-1.69,.26-1.66,0-2.9-.58-3.71-1.74s-1.22-2.93-1.22-5.3c0-2.75,.55-4.81,1.65-6.16,1.1-1.35,2.77-2.03,5.02-2.03,1.08,0,2.04,.16,2.88,.47s1.56,.79,2.16,1.42c.65,.7,1.12,1.68,1.38,2.92s.4,3.42,.4,6.53c0,2.72-.07,4.67-.21,5.84-.14,1.17-.38,2.11-.71,2.83-.47,1.02-1.22,1.79-2.26,2.34-1.04,.54-2.29,.81-3.78,.81-1.98,0-3.52-.51-4.61-1.52s-1.63-2.46-1.63-4.34l4.8,.02c.02,.7,.16,1.23,.41,1.59,.25,.36,.62,.53,1.11,.53,.62,0,1.05-.27,1.3-.81,.25-.54,.38-1.49,.38-2.85,0-.41,0-.73,0-.96,0-.23-.01-.44-.02-.62Zm.12-6.61c0-1.36-.13-2.32-.4-2.88-.27-.56-.73-.84-1.37-.84-.57,0-.97,.28-1.2,.83-.23,.55-.35,1.54-.35,2.98s.13,2.35,.38,2.91c.25,.56,.69,.84,1.3,.84s1.04-.26,1.28-.78,.36-1.54,.36-3.06Z"/><g><path class="cls-15" d="M270.3,768.73v-15.57h-4.5v-3.44h.25c1.62,0,2.92-.31,3.88-.92s1.61-1.54,1.93-2.77h3.47v22.71h-5.04Z"/><path class="cls-15" d="M281.14,757.6c0-2.81,.08-4.83,.25-6.06s.45-2.16,.86-2.79c.57-.88,1.34-1.55,2.33-2.02s2.12-.7,3.4-.7,2.43,.24,3.41,.71,1.76,1.15,2.31,2.04c.4,.64,.69,1.54,.86,2.7,.17,1.16,.26,2.87,.26,5.13,0,2.46-.04,4.3-.12,5.53s-.22,2.23-.42,3.01c-.29,1.2-1.02,2.17-2.18,2.92s-2.53,1.11-4.12,1.11c-1.31,0-2.46-.24-3.46-.73s-1.78-1.2-2.35-2.12c-.37-.6-.63-1.52-.79-2.78s-.23-3.24-.23-5.95Zm5.07,0v1.66c0,2.58,.12,4.21,.37,4.89s.72,1.02,1.4,1.02,1.14-.34,1.39-1.02,.38-2.31,.38-4.89v-3.66c0-2.41-.13-3.95-.38-4.6s-.72-.98-1.39-.98-1.15,.34-1.4,1.02c-.25,.68-.37,2.32-.37,4.93v1.64Z"/></g><g><path class="cls-15" d="M334.3,768.73v-15.57h-4.5v-3.44h.25c1.62,0,2.92-.31,3.88-.92s1.61-1.54,1.93-2.77h3.47v22.71h-5.04Z"/><path class="cls-15" d="M350.38,768.73v-15.57h-4.5v-3.44h.25c1.62,0,2.92-.31,3.88-.92s1.61-1.54,1.93-2.77h3.47v22.71h-5.04Z"/></g><g><path class="cls-15" d="M400.3,768.73v-15.57h-4.5v-3.44h.25c1.62,0,2.92-.31,3.88-.92s1.61-1.54,1.93-2.77h3.47v22.71h-5.04Z"/><path class="cls-15" d="M410.99,768.73v-.37c0-.86,.1-1.71,.29-2.54,.19-.83,.49-1.68,.89-2.53,.81-1.77,2.08-3.53,3.82-5.29l.56-.56,.13-.15c1.9-2,2.86-3.75,2.86-5.26,0-.69-.14-1.23-.41-1.6s-.66-.56-1.17-.56c-.72,0-1.25,.3-1.57,.91s-.49,1.57-.49,2.9v.4h-4.69v-.6c0-2.42,.59-4.28,1.78-5.57s2.89-1.93,5.12-1.93c2.01,0,3.58,.56,4.72,1.67s1.7,2.66,1.7,4.63c0,1.16-.24,2.27-.73,3.32s-1.25,2.11-2.3,3.19c-.22,.23-.56,.57-1.01,1.01-1.86,1.81-3.02,3.3-3.49,4.48h7.47v4.44h-13.46Z"/></g><g><path class="cls-15" d="M465.3,768.73v-15.57h-4.5v-3.44h.25c1.62,0,2.92-.31,3.88-.92s1.61-1.54,1.93-2.77h3.47v22.71h-5.04Z"/><path class="cls-15" d="M476.23,761.26h4.7c.04,1.44,.2,2.46,.48,3.07,.28,.61,.72,.92,1.33,.92s1.06-.28,1.37-.83c.31-.55,.46-1.36,.46-2.44,0-1.14-.28-1.96-.83-2.46s-1.46-.75-2.73-.75c-.21,0-.36,0-.46,0s-.2,.01-.29,.02v-3.54s.47,0,.47,0c1.24,0,2.13-.24,2.67-.72,.54-.48,.81-1.28,.81-2.4,0-.73-.13-1.3-.38-1.7s-.62-.6-1.1-.6c-.59,0-1,.23-1.25,.7-.25,.46-.39,1.32-.43,2.57h-4.61v-.29c0-2.13,.58-3.79,1.75-4.99s2.78-1.79,4.83-1.79c1.86,0,3.37,.54,4.54,1.6,1.17,1.07,1.76,2.44,1.76,4.12,0,1.11-.27,2.08-.8,2.92s-1.34,1.54-2.41,2.12c1.28,.5,2.22,1.19,2.83,2.08s.92,2.02,.92,3.38c0,2.18-.61,3.88-1.83,5.1s-2.92,1.83-5.1,1.83-3.78-.63-4.96-1.9-1.77-3.06-1.77-5.36c0-.07,0-.18,.01-.33s.01-.26,.01-.33Z"/></g><g><path class="cls-15" d="M529.3,768.73v-15.57h-4.5v-3.44h.25c1.62,0,2.92-.31,3.88-.92s1.61-1.54,1.93-2.77h3.47v22.71h-5.04Z"/><path class="cls-15" d="M547.3,768.73v-4.35h-7.44v-4.26l7.12-13.68h5.16v14.08h1.95v3.87h-1.95v4.35h-4.83Zm.57-8.22v-9.04l-4.1,9.04h4.1Z"/></g><g><path class="cls-15" d="M596.3,768.73v-15.57h-4.5v-3.44h.25c1.62,0,2.92-.31,3.88-.92s1.61-1.54,1.93-2.77h3.47v22.71h-5.04Z"/><path class="cls-15" d="M607.35,761.81h4.67c.04,1.28,.2,2.17,.47,2.68s.73,.76,1.38,.76,1.16-.27,1.45-.81c.29-.54,.44-1.46,.44-2.75,0-1.86-.15-3.09-.45-3.71s-.83-.92-1.6-.92c-.46,0-.84,.13-1.15,.4s-.54,.66-.71,1.2h-4.19l.41-12.25h11.65v4.06h-7.79l-.16,4.1c.61-.4,1.22-.7,1.84-.9,.62-.2,1.27-.3,1.94-.3,1.72,0,2.99,.63,3.82,1.9s1.25,3.2,1.25,5.79c0,2.72-.56,4.77-1.68,6.14s-2.79,2.05-5,2.05-3.76-.6-4.89-1.81c-1.13-1.21-1.69-2.94-1.69-5.21v-.42Z"/></g><g><path class="cls-15" d="M660.3,768.73v-15.57h-4.5v-3.44h.25c1.62,0,2.92-.31,3.88-.92s1.61-1.54,1.93-2.77h3.47v22.71h-5.04Z"/><path class="cls-15" d="M676.44,754.99c.54-.35,1.08-.62,1.63-.79s1.13-.26,1.74-.26c1.65,0,2.89,.59,3.71,1.78,.83,1.19,1.24,2.97,1.24,5.34,0,2.72-.55,4.76-1.66,6.11s-2.79,2.02-5.03,2.02c-1.08,0-2.04-.16-2.88-.47s-1.56-.79-2.16-1.42c-.66-.7-1.13-1.66-1.4-2.87s-.4-3.4-.4-6.58c0-2.63,.07-4.54,.21-5.75s.38-2.18,.73-2.92c.47-1.03,1.22-1.81,2.26-2.34s2.29-.81,3.76-.81c1.97,0,3.51,.5,4.6,1.5s1.64,2.4,1.64,4.2v.15h-4.79c-.02-.71-.16-1.25-.41-1.6s-.63-.53-1.13-.53c-.61,0-1.04,.27-1.3,.81s-.39,1.48-.39,2.84c0,.42,0,.74,0,.96,0,.22,.01,.43,.02,.64Zm-.15,6.61c0,1.37,.14,2.33,.41,2.89s.74,.83,1.39,.83c.58,0,.98-.27,1.22-.81s.35-1.54,.35-3.02-.13-2.42-.39-2.95-.71-.8-1.35-.8c-.6,0-1.02,.28-1.26,.83s-.37,1.56-.37,3.02Z"/></g><g><path class="cls-15" d="M727.3,768.73v-15.57h-4.5v-3.44h.25c1.62,0,2.92-.31,3.88-.92s1.61-1.54,1.93-2.77h3.47v22.71h-5.04Z"/><path class="cls-15" d="M740.92,768.73c.26-2.64,.88-5.45,1.84-8.45,.96-2.99,2.26-6.13,3.9-9.41h-8.38v-4.44h13.2v3.84c-1.39,2.47-2.54,5.27-3.45,8.41s-1.55,6.48-1.91,10.05h-5.2Z"/></g><g><path class="cls-15" d="M791.3,768.73v-15.57h-4.5v-3.44h.25c1.62,0,2.92-.31,3.88-.92s1.61-1.54,1.93-2.77h3.47v22.71h-5.04Z"/><path class="cls-15" d="M805.08,756.68c-.81-.55-1.42-1.21-1.82-1.99-.41-.78-.61-1.68-.61-2.7,0-1.87,.56-3.33,1.68-4.38s2.67-1.58,4.65-1.58,3.53,.53,4.65,1.58,1.68,2.51,1.68,4.38c0,1.03-.2,1.93-.61,2.7-.41,.78-1.01,1.44-1.82,1.99,.9,.56,1.58,1.32,2.06,2.29,.47,.97,.71,2.12,.71,3.44,0,2.14-.59,3.8-1.77,5s-2.82,1.79-4.93,1.79-3.72-.6-4.89-1.79-1.75-2.86-1.75-4.99c0-1.32,.23-2.46,.7-3.44,.47-.97,1.16-1.74,2.07-2.29Zm2.09,5.3c0,1.1,.15,1.93,.45,2.48s.75,.82,1.35,.82,1.09-.26,1.38-.79,.45-1.36,.45-2.5-.14-2.05-.43-2.58-.74-.8-1.37-.8-1.1,.27-1.39,.81-.44,1.4-.44,2.58Zm.09-9.8c0,.82,.16,1.48,.48,1.98s.74,.75,1.26,.75,.95-.25,1.28-.75,.49-1.16,.49-1.98-.15-1.45-.46-1.9-.74-.67-1.31-.67-.99,.22-1.29,.67-.45,1.08-.45,1.9Z"/></g><g><path class="cls-15" d="M857.3,768.73v-15.57h-4.5v-3.44h.25c1.62,0,2.92-.31,3.88-.92s1.61-1.54,1.93-2.77h3.47v22.71h-5.04Z"/><path class="cls-15" d="M876.39,760.22c-.56,.35-1.11,.61-1.66,.78s-1.12,.26-1.69,.26c-1.66,0-2.9-.58-3.71-1.74s-1.22-2.93-1.22-5.3c0-2.75,.55-4.81,1.65-6.16s2.77-2.03,5.02-2.03c1.08,0,2.04,.16,2.88,.47s1.56,.79,2.16,1.42c.65,.7,1.12,1.67,1.38,2.92s.4,3.42,.4,6.53c0,2.72-.07,4.67-.21,5.84s-.38,2.11-.71,2.83c-.47,1.02-1.22,1.79-2.26,2.34-1.04,.54-2.29,.81-3.78,.81-1.98,0-3.52-.51-4.61-1.52s-1.63-2.46-1.63-4.34h4.8c.02,.72,.16,1.25,.41,1.6s.62,.53,1.11,.53c.62,0,1.05-.27,1.3-.81,.25-.54,.38-1.49,.38-2.85,0-.41,0-.73,0-.96,0-.23-.01-.44-.02-.62Zm.12-6.61c0-1.36-.13-2.32-.4-2.88-.27-.56-.73-.84-1.37-.84-.57,0-.97,.28-1.2,.83s-.35,1.54-.35,2.98,.13,2.35,.38,2.91,.69,.84,1.3,.84,1.04-.26,1.28-.78,.36-1.54,.36-3.06Z"/></g><g><path class="cls-15" d="M916.91,768.73v-.37c0-.86,.1-1.71,.29-2.54,.19-.83,.49-1.68,.89-2.53,.81-1.77,2.08-3.53,3.82-5.29l.56-.56,.13-.15c1.9-2,2.86-3.75,2.86-5.26,0-.69-.14-1.23-.41-1.6s-.66-.56-1.17-.56c-.72,0-1.25,.3-1.57,.91s-.49,1.57-.49,2.9v.4h-4.69v-.6c0-2.42,.59-4.28,1.78-5.57s2.89-1.93,5.12-1.93c2.01,0,3.58,.56,4.72,1.67s1.7,2.66,1.7,4.63c0,1.16-.24,2.27-.73,3.32s-1.25,2.11-2.3,3.19c-.22,.23-.56,.57-1.01,1.01-1.86,1.81-3.02,3.3-3.49,4.48h7.47v4.44h-13.46Z"/><path class="cls-15" d="M933.14,757.6c0-2.81,.08-4.83,.25-6.06s.45-2.16,.86-2.79c.57-.88,1.34-1.55,2.33-2.02s2.12-.7,3.4-.7,2.43,.24,3.41,.71,1.76,1.15,2.31,2.04c.4,.64,.69,1.54,.86,2.7,.17,1.16,.26,2.87,.26,5.13,0,2.46-.04,4.3-.12,5.53s-.22,2.23-.42,3.01c-.29,1.2-1.02,2.17-2.18,2.92s-2.53,1.11-4.12,1.11c-1.31,0-2.46-.24-3.46-.73s-1.78-1.2-2.35-2.12c-.37-.6-.63-1.52-.79-2.78s-.23-3.24-.23-5.95Zm5.07,0v1.66c0,2.58,.12,4.21,.37,4.89s.72,1.02,1.4,1.02,1.14-.34,1.39-1.02,.38-2.31,.38-4.89v-3.66c0-2.41-.13-3.95-.38-4.6s-.72-.98-1.39-.98-1.15,.34-1.4,1.02c-.25,.68-.37,2.32-.37,4.93v1.64Z"/></g><g><path class="cls-15" d="M981.91,768.73v-.37c0-.86,.1-1.71,.29-2.54,.19-.83,.49-1.68,.89-2.53,.81-1.77,2.08-3.53,3.82-5.29l.56-.56,.13-.15c1.9-2,2.86-3.75,2.86-5.26,0-.69-.14-1.23-.41-1.6s-.66-.56-1.17-.56c-.72,0-1.25,.3-1.57,.91s-.49,1.57-.49,2.9v.4h-4.69v-.6c0-2.42,.59-4.28,1.78-5.57s2.89-1.93,5.12-1.93c2.01,0,3.58,.56,4.72,1.67s1.7,2.66,1.7,4.63c0,1.16-.24,2.27-.73,3.32s-1.25,2.11-2.3,3.19c-.22,.23-.56,.57-1.01,1.01-1.86,1.81-3.02,3.3-3.49,4.48h7.47v4.44h-13.46Z"/><path class="cls-15" d="M1003.38,768.73v-15.57h-4.5v-3.44h.25c1.62,0,2.92-.31,3.88-.92s1.61-1.54,1.93-2.77h3.47v22.71h-5.04Z"/></g><g><path class="cls-15" d="M4.5,59.48v-15.57H0v-3.44H.25c1.62,0,2.92-.31,3.88-.92s1.61-1.54,1.93-2.77h3.47v22.71H4.5Z"/><path class="cls-15" d="M20.58,59.48v-15.57h-4.5v-3.44h.25c1.62,0,2.92-.31,3.88-.92s1.61-1.54,1.93-2.77h3.47v22.71h-5.04Z"/><path class="cls-15" d="M31.66,62.27h-2.49l7.15-25.88h2.49l-7.15,25.88Z"/><path class="cls-15" d="M46.71,59.48v-4.35h-7.44v-4.26l7.12-13.68h5.16v14.08h1.95v3.87h-1.95v4.35h-4.83Zm.57-8.22v-9.04l-4.1,9.04h4.1Z"/><path class="cls-15" d="M11.22,95.48v-22.56h12.3v4.38h-7v4.1h6.49v4.54h-6.49v9.54h-5.3Z"/><path class="cls-15" d="M26.28,95.48v-16.95h4.35v2.37c.52-.85,1.09-1.49,1.71-1.93s1.32-.7,2.1-.78v5.38c-.26-.06-.52-.1-.75-.13s-.46-.04-.65-.04c-.76,0-1.29,.27-1.59,.81s-.45,1.59-.45,3.15v8.13h-4.72Z"/><path class="cls-15" d="M36.77,76.85v-4.1h4.7v4.1h-4.7Zm0,18.63v-16.95h4.7v16.95h-4.7Z"/></g><g><path class="cls-15" d="M4.5,240.48v-15.57H0v-3.44H.25c1.62,0,2.92-.31,3.88-.92s1.61-1.54,1.93-2.77h3.47v22.71H4.5Z"/><path class="cls-15" d="M20.58,240.48v-15.57h-4.5v-3.44h.25c1.62,0,2.92-.31,3.88-.92s1.61-1.54,1.93-2.77h3.47v22.71h-5.04Z"/><path class="cls-15" d="M31.66,243.27h-2.49l7.15-25.88h2.49l-7.15,25.88Z"/><path class="cls-15" d="M39.76,233.56h4.67c.04,1.28,.2,2.17,.47,2.68s.73,.76,1.38,.76,1.16-.27,1.45-.81c.29-.54,.44-1.46,.44-2.75,0-1.86-.15-3.09-.45-3.71s-.83-.92-1.6-.92c-.46,0-.84,.13-1.15,.4s-.54,.66-.71,1.2h-4.19l.41-12.25h11.65v4.06h-7.79l-.16,4.1c.61-.4,1.22-.7,1.84-.9,.62-.2,1.27-.3,1.94-.3,1.72,0,2.99,.63,3.82,1.9s1.25,3.2,1.25,5.79c0,2.72-.56,4.77-1.68,6.14s-2.79,2.05-5,2.05-3.76-.6-4.89-1.81c-1.13-1.21-1.69-2.94-1.69-5.21v-.42Z"/><path class="cls-15" d="M6.73,268.84h4.83v.66c0,1.24,.15,2.11,.44,2.62s.79,.76,1.48,.76c.56,0,1-.19,1.32-.58s.48-.91,.48-1.58c0-1.09-.79-2.14-2.36-3.15-.25-.18-.45-.31-.59-.4-.05-.03-.13-.08-.25-.16-2.12-1.43-3.44-2.5-3.96-3.22-.37-.55-.65-1.16-.85-1.85s-.29-1.43-.29-2.24c0-1.97,.57-3.52,1.71-4.64s2.71-1.68,4.72-1.68c2.18,0,3.84,.55,4.99,1.66s1.72,2.7,1.72,4.79c0,.09,0,.21-.01,.37s-.01,.28-.01,.37h-4.73v-.28c0-.99-.15-1.73-.46-2.24s-.75-.76-1.34-.76c-.5,0-.9,.18-1.2,.53-.3,.36-.45,.83-.45,1.41,0,.96,.86,1.97,2.58,3.05,.31,.21,.55,.36,.72,.47,.14,.08,.33,.2,.57,.37,1.85,1.17,3.03,2.16,3.54,2.96,.32,.52,.57,1.11,.74,1.76,.17,.66,.26,1.38,.26,2.15,0,2.26-.59,3.99-1.76,5.21s-2.85,1.83-5.02,1.83c-2.29,0-4-.58-5.15-1.75-1.15-1.17-1.72-2.9-1.72-5.21,0-.15,0-.3,0-.46,0-.16,.02-.42,.05-.77Z"/><path class="cls-15" d="M31.12,276.48l-.28-1.55c-.6,.62-1.25,1.1-1.96,1.41-.71,.32-1.48,.48-2.31,.48-1.33,0-2.38-.43-3.16-1.29s-1.16-2.02-1.16-3.49c0-1.28,.33-2.33,.99-3.16s1.74-1.55,3.24-2.15c.36-.14,.85-.32,1.46-.54,1.77-.64,2.65-1.37,2.65-2.18,0-.5-.13-.88-.38-1.13s-.62-.39-1.1-.39c-.58,0-1,.17-1.28,.52-.28,.35-.42,.88-.42,1.6v.12h-4.75c0-1.91,.53-3.34,1.6-4.27,1.06-.93,2.68-1.4,4.85-1.4,.98,0,1.85,.09,2.61,.27s1.41,.44,1.93,.78c.66,.45,1.13,.99,1.4,1.63s.4,1.79,.4,3.47v6.53c0,1.33,.05,2.34,.14,3.04,.09,.7,.25,1.27,.46,1.71h-4.95Zm-.6-8.16c-1.22,.34-2.11,.77-2.67,1.27s-.84,1.14-.84,1.9c0,.54,.14,.97,.42,1.29s.65,.48,1.12,.48c.69,0,1.2-.23,1.51-.7s.47-1.25,.47-2.36v-1.89Z"/><path class="cls-15" d="M46.21,276.43c-.58,.11-1.08,.19-1.51,.24-.43,.05-.8,.08-1.1,.08-.94,0-1.74-.15-2.4-.45s-1.15-.74-1.46-1.3c-.21-.39-.35-.88-.43-1.47-.08-.59-.12-1.49-.12-2.7v-7.78h-1.83v-3.5h1.83v-4.69h4.76v4.69h2.26v3.5h-2.26v6.91c0,1.47,.11,2.38,.32,2.72s.63,.51,1.25,.51c.11,0,.28-.01,.53-.04,.07,0,.12-.01,.16-.01v3.3Z"/></g><g><path class="cls-15" d="M4.5,552.48v-15.57H0v-3.44H.25c1.62,0,2.92-.31,3.88-.92s1.61-1.54,1.93-2.77h3.47v22.71H4.5Z"/><path class="cls-15" d="M20.58,552.48v-15.57h-4.5v-3.44h.25c1.62,0,2.92-.31,3.88-.92s1.61-1.54,1.93-2.77h3.47v22.71h-5.04Z"/><path class="cls-15" d="M31.66,555.27h-2.49l7.15-25.88h2.49l-7.15,25.88Z"/><path class="cls-15" d="M44.85,538.74c.54-.35,1.08-.62,1.63-.79s1.13-.26,1.74-.26c1.65,0,2.89,.59,3.71,1.78,.83,1.19,1.24,2.97,1.24,5.34,0,2.72-.55,4.76-1.66,6.11s-2.79,2.02-5.03,2.02c-1.08,0-2.04-.16-2.88-.47s-1.56-.79-2.16-1.42c-.66-.7-1.13-1.66-1.4-2.87s-.4-3.4-.4-6.58c0-2.63,.07-4.54,.21-5.75s.38-2.18,.73-2.92c.47-1.03,1.22-1.81,2.26-2.34s2.29-.81,3.76-.81c1.97,0,3.51,.5,4.6,1.5s1.64,2.4,1.64,4.2v.15h-4.79c-.02-.71-.16-1.25-.41-1.6s-.63-.53-1.13-.53c-.61,0-1.04,.27-1.3,.81s-.39,1.48-.39,2.84c0,.42,0,.74,0,.96,0,.22,.01,.43,.02,.64Zm-.15,6.61c0,1.37,.14,2.33,.41,2.89s.74,.83,1.39,.83c.58,0,.98-.27,1.22-.81s.35-1.54,.35-3.02-.13-2.42-.39-2.95-.71-.8-1.35-.8c-.6,0-1.02,.28-1.26,.83s-.37,1.56-.37,3.02Z"/><path class="cls-15" d="M4,580.84h4.83v.66c0,1.24,.15,2.11,.44,2.62s.79,.76,1.48,.76c.56,0,1-.19,1.32-.58s.48-.91,.48-1.58c0-1.09-.79-2.14-2.36-3.15-.25-.18-.45-.31-.59-.4-.05-.03-.13-.08-.25-.16-2.12-1.43-3.44-2.5-3.96-3.22-.37-.55-.65-1.16-.85-1.85s-.29-1.43-.29-2.24c0-1.97,.57-3.52,1.71-4.64s2.71-1.68,4.72-1.68c2.18,0,3.84,.55,4.99,1.66s1.72,2.7,1.72,4.79c0,.09,0,.21-.01,.37s-.01,.28-.01,.37h-4.73v-.28c0-.99-.15-1.73-.46-2.24s-.75-.76-1.34-.76c-.5,0-.9,.18-1.2,.53-.3,.36-.45,.83-.45,1.41,0,.96,.86,1.97,2.58,3.05,.31,.21,.55,.36,.72,.47,.14,.08,.33,.2,.57,.37,1.85,1.17,3.03,2.16,3.54,2.96,.32,.52,.57,1.11,.74,1.76,.17,.66,.26,1.38,.26,2.15,0,2.26-.59,3.99-1.76,5.21s-2.85,1.83-5.02,1.83c-2.29,0-4-.58-5.15-1.75-1.15-1.17-1.72-2.9-1.72-5.21,0-.15,0-.3,0-.46,0-.16,.02-.42,.05-.77Z"/><path class="cls-15" d="M32.43,571.54v16.95h-4.44v-2.01c-.53,.81-1.12,1.4-1.77,1.78-.65,.38-1.43,.56-2.31,.56-1.31,0-2.27-.44-2.89-1.32s-.92-2.26-.92-4.15v-11.82h4.75v10.47c0,1.36,.09,2.2,.26,2.53s.49,.49,.94,.49c.53,0,.94-.25,1.24-.76s.45-1.22,.45-2.14v-10.59h4.7Z"/><path class="cls-15" d="M35.74,588.48v-16.95h4.44v2.01c.52-.8,1.11-1.39,1.77-1.77s1.44-.57,2.33-.57c1.31,0,2.27,.44,2.87,1.31,.61,.88,.91,2.26,.91,4.15v11.82h-4.7v-10.47c0-1.36-.09-2.2-.26-2.53s-.49-.5-.94-.5c-.53,0-.94,.26-1.24,.77-.3,.51-.45,1.23-.45,2.15v10.59h-4.73Z"/></g></g></svg>