<?xml version="1.0" encoding="UTF-8"?><svg id="_レイヤー_2" xmlns="http://www.w3.org/2000/svg" viewBox="0 0 193 193"><defs><style>.cls-1{stroke-width:5px;}.cls-1,.cls-2,.cls-3,.cls-4,.cls-5{stroke-miterlimit:10;}.cls-1,.cls-2,.cls-3,.cls-5{fill:none;}.cls-1,.cls-2,.cls-4,.cls-5{stroke:#666;}.cls-2{stroke-width:4.9px;}.cls-3{stroke:#ff747c;stroke-width:16px;}.cls-4{fill:#666;stroke-width:5.92px;}.cls-5{stroke-width:4px;}</style></defs><g id="_ご来場の方へ_"><rect class="cls-1" x="32" y="113.67" width="113" height="19"/><line class="cls-2" x1="154" y1="111.17" x2="154" y2="135.17"/><line class="cls-2" x1="162" y1="111.17" x2="162" y2="135.17"/><rect class="cls-4" x="33" y="115" width="42" height="14.5"/><path class="cls-5" d="M161.5,105.5c.48-13.92,.71-19.23,2-27,1-6,2.16-12.23-2-15-3-2-5-2-11-2-7,0-6-.04-16,0-.87,0-1.58,0-2,0,.8-.88,4.37-5.03,4-11-.09-1.38-.36-5.76-4-9-3.18-2.82-6.91-2.99-8-3h-11"/><path class="cls-5" d="M153.5,105.5c-.3-5.78-.61-11.56-.91-17.34-.09-1.74-.78-3.43-2.05-4.63-.01-.01-.02-.02-.03-.03-1.5-1.4-3.18-1.8-4-2-2.83-.69-11,0-19.5-.25-3.43-.1-6.86-.6-9.72-2.49-1.25-.83-2.55-1.89-3.78-3.25-3.97-4.4-4.79-9.26-5-11-2.39,.4-10.02,1.35-18-3-1.8-.98-7.35-4.27-11-11-6.21-11.44-1.72-23.2-1-25"/><circle class="cls-3" cx="96.5" cy="96.5" r="88.5"/><line class="cls-3" x1="35" y1="158" x2="159.5" y2="33.5"/></g></svg>