<svg id="レイヤー_1" data-name="レイヤー 1" xmlns="http://www.w3.org/2000/svg" viewBox="0 0 550 1000"><defs><style>.cls-1{fill:#c9caca;}.cls-2{fill:#595757;stroke:#f7f8f8;stroke-miterlimit:10;stroke-width:1.26px;}</style></defs><title>取っ手3</title><path class="cls-2" d="M761.55,548.16" transform="translate(-265 -40)"/><rect class="cls-2" x="732.65" y="473.16" width="45.64" height="130.64" rx="4.26" transform="translate(1245.95 1036.97) rotate(-180)"/><path class="cls-2" d="M686.61,537c1.37,1,4.12,1.33,6.19.66,16.76-5.41,29.89-7.2,38.11-5.16a58.2,58.2,0,0,1,6.61,2.27c7.06,2.75,11.36,4.27,16.1,3.7a7.44,7.44,0,0,0,4.4-1.93c.49-.48,1.76-1.72,1.47-3.13a2.7,2.7,0,0,0-1.93-2c-1.47-.33-2.23,1.17-5.21,1.69a5.55,5.55,0,0,1-1.23.14c-1.65,0-3.33-.79-7.65-2.47A64.59,64.59,0,0,0,735.2,528c-11.75-2.92-27.37-1.14-47.67,5.43-.62.2-2.09,1-2.11,2C685.4,536.1,686.15,536.68,686.61,537Z" transform="translate(-265 -40)"/><path class="cls-2" d="M761.83,548" transform="translate(-265 -40)"/></svg>