<svg viewBox="0 0 550 1000" xmlns="http://www.w3.org/2000/svg">
  <defs></defs>
  <title>取っ手3</title>
  <path class="cls-2" d="M761.55,548.16" transform="matrix(1, 0, 0, 1, -267.93898, -288.489965)" style="fill: rgb(89, 87, 87); stroke: rgb(247, 248, 248); stroke-miterlimit: 10; stroke-width: 4px;"></path>
  <rect class="cls-2" x="-515.5" y="-850.932" width="245.202" height="701.864" rx="4.26" transform="matrix(-1, 0, 0, -1, 0, 0)" style="fill: rgb(89, 87, 87); stroke: rgb(247, 248, 248); stroke-miterlimit: 10; stroke-width: 4px;"></rect>
  <path class="cls-2" d="M 22.895 491.996 C 30.254 497.369 45.028 499.142 56.151 495.542 C 146.193 466.477 216.735 456.861 260.897 467.821 C 272.967 471.171 284.826 475.243 296.41 480.015 C 334.339 494.791 357.44 502.956 382.907 499.893 C 391.717 499.147 400.028 495.5 406.546 489.524 C 409.178 486.946 416.001 480.285 414.443 472.708 C 413.236 467.487 409.249 463.355 404.075 461.964 C 396.176 460.191 392.092 468.249 376.083 471.044 C 373.916 471.539 371.699 471.791 369.475 471.795 C 360.61 471.795 351.585 467.551 328.375 458.525 C 313.916 452.57 299.073 447.597 283.945 443.644 C 220.817 427.956 136.898 437.518 27.838 472.816 C 24.506 473.892 16.608 478.188 16.502 483.562 C 16.394 487.161 20.424 490.277 22.895 491.996 Z" style="fill: rgb(89, 87, 87); stroke: rgb(247, 248, 248); stroke-miterlimit: 10; stroke-width: 4px;"></path>
  <path class="cls-2" d="M761.83,548" transform="matrix(1, 0, 0, 1, -267.93898, -288.489965)" style="fill: rgb(89, 87, 87); stroke: rgb(247, 248, 248); stroke-miterlimit: 10; stroke-width: 4px;"></path>
</svg>
